<svg xmlns="http://www.w3.org/2000/svg" xmlns:xlink="http://www.w3.org/1999/xlink" width="58" zoomAndPan="magnify" viewBox="0 0 43.5 47.25" height="63" preserveAspectRatio="xMidYMid meet" version="1.0"><defs><clipPath id="4622147dff"><path d="M 12 2 L 26 2 L 26 17 L 12 17 Z M 12 2 " clipRule="nonzero"/></clipPath><clipPath id="7308570730"><path d="M 9.34375 0 L 42.332031 8.0625 L 33.042969 46.074219 L 0.0546875 38.011719 Z M 9.34375 0 " clipRule="nonzero"/></clipPath><clipPath id="a9317a4108"><path d="M 9.34375 0 L 42.332031 8.0625 L 33.042969 46.074219 L 0.0546875 38.011719 Z M 9.34375 0 " clipRule="nonzero"/></clipPath><clipPath id="0182e142fc"><path d="M 9.34375 0 L 42.332031 8.0625 L 33.042969 46.074219 L 0.0546875 38.011719 Z M 9.34375 0 " clipRule="nonzero"/></clipPath><clipPath id="1ea9671164"><path d="M 26 17 L 39 17 L 39 29 L 26 29 Z M 26 17 " clipRule="nonzero"/></clipPath><clipPath id="e16ecaee7e"><path d="M 9.34375 0 L 42.332031 8.0625 L 33.042969 46.074219 L 0.0546875 38.011719 Z M 9.34375 0 " clipRule="nonzero"/></clipPath><clipPath id="ebb32b4eaf"><path d="M 9.34375 0 L 42.332031 8.0625 L 33.042969 46.074219 L 0.0546875 38.011719 Z M 9.34375 0 " clipRule="nonzero"/></clipPath><clipPath id="57cf0db23a"><path d="M 9.34375 0 L 42.332031 8.0625 L 33.042969 46.074219 L 0.0546875 38.011719 Z M 9.34375 0 " clipRule="nonzero"/></clipPath><clipPath id="312924ec29"><path d="M 2 24 L 18 24 L 18 40 L 2 40 Z M 2 24 " clipRule="nonzero"/></clipPath><clipPath id="f8bc79762d"><path d="M 9.34375 0 L 42.332031 8.0625 L 33.042969 46.074219 L 0.0546875 38.011719 Z M 9.34375 0 " clipRule="nonzero"/></clipPath><clipPath id="c14f4a3b8c"><path d="M 9.34375 0 L 42.332031 8.0625 L 33.042969 46.074219 L 0.0546875 38.011719 Z M 9.34375 0 " clipRule="nonzero"/></clipPath><clipPath id="7961426c14"><path d="M 9.34375 0 L 42.332031 8.0625 L 33.042969 46.074219 L 0.0546875 38.011719 Z M 9.34375 0 " clipRule="nonzero"/></clipPath><clipPath id="fc653b1498"><path d="M 12 2 L 26 2 L 26 17 L 12 17 Z M 12 2 " clipRule="nonzero"/></clipPath><clipPath id="4309421d22"><path d="M 9.34375 0 L 42.332031 8.0625 L 33.042969 46.074219 L 0.0546875 38.011719 Z M 9.34375 0 " clipRule="nonzero"/></clipPath><clipPath id="28831acef3"><path d="M 9.34375 0 L 42.332031 8.0625 L 33.042969 46.074219 L 0.0546875 38.011719 Z M 9.34375 0 " clipRule="nonzero"/></clipPath><clipPath id="fc5c9ce794"><path d="M 9.34375 0 L 42.332031 8.0625 L 33.042969 46.074219 L 0.0546875 38.011719 Z M 9.34375 0 " clipRule="nonzero"/></clipPath><clipPath id="f93f6bc3bc"><path d="M 26 17 L 39 17 L 39 29 L 26 29 Z M 26 17 " clipRule="nonzero"/></clipPath><clipPath id="74acb04b71"><path d="M 9.34375 0 L 42.332031 8.0625 L 33.042969 46.074219 L 0.0546875 38.011719 Z M 9.34375 0 " clipRule="nonzero"/></clipPath><clipPath id="b26959ffda"><path d="M 9.34375 0 L 42.332031 8.0625 L 33.042969 46.074219 L 0.0546875 38.011719 Z M 9.34375 0 " clipRule="nonzero"/></clipPath><clipPath id="7d24a62a39"><path d="M 9.34375 0 L 42.332031 8.0625 L 33.042969 46.074219 L 0.0546875 38.011719 Z M 9.34375 0 " clipRule="nonzero"/></clipPath><clipPath id="0c7a1a6585"><path d="M 2 24 L 18 24 L 18 40 L 2 40 Z M 2 24 " clipRule="nonzero"/></clipPath><clipPath id="7fc0f50f34"><path d="M 9.34375 0 L 42.332031 8.0625 L 33.042969 46.074219 L 0.0546875 38.011719 Z M 9.34375 0 " clipRule="nonzero"/></clipPath><clipPath id="27e822cf1e"><path d="M 9.34375 0 L 42.332031 8.0625 L 33.042969 46.074219 L 0.0546875 38.011719 Z M 9.34375 0 " clipRule="nonzero"/></clipPath><clipPath id="5a59c14da6"><path d="M 9.34375 0 L 42.332031 8.0625 L 33.042969 46.074219 L 0.0546875 38.011719 Z M 9.34375 0 " clipRule="nonzero"/></clipPath></defs><g clipPath="url(#4622147dff)"><g clipPath="url(#7308570730)"><g clipPath="url(#a9317a4108)"><g clipPath="url(#0182e142fc)"><path fill="#000000" d="M 24.984375 9.800781 C 23.90625 9.390625 22.792969 9.050781 21.671875 8.75 C 22.847656 8.226562 24.027344 7.71875 25.214844 7.226562 C 25.667969 7.039062 25.664062 6.015625 25.070312 6.210938 C 23.5 6.726562 21.964844 7.3125 20.457031 7.972656 C 20.953125 6.550781 21.425781 5.121094 21.878906 3.683594 C 21.949219 3.449219 21.886719 3.078125 21.617188 3.007812 C 21.328125 2.933594 21.136719 3.238281 21.058594 3.46875 C 20.527344 5.050781 19.96875 6.621094 19.382812 8.183594 C 19.375 8.183594 19.367188 8.179688 19.359375 8.179688 C 18.804688 6.8125 18.125 5.511719 17.183594 4.359375 C 16.828125 3.925781 16.375 4.734375 16.625 5.085938 C 17.246094 5.960938 17.730469 6.914062 18.140625 7.902344 C 16.671875 7.578125 15.1875 7.289062 13.695312 7.164062 C 13.136719 7.117188 12.804688 8.1875 13.390625 8.332031 C 14.804688 8.679688 16.234375 8.964844 17.65625 9.292969 C 16.042969 10.109375 14.46875 11.007812 12.933594 11.988281 C 12.589844 12.207031 12.679688 13.15625 13.164062 12.898438 C 14.960938 11.945312 16.777344 11.035156 18.613281 10.160156 C 18.074219 11.496094 17.511719 12.820312 17.015625 14.171875 C 16.769531 14.84375 17.585938 15.308594 17.917969 14.601562 C 18.433594 13.496094 18.878906 12.351562 19.300781 11.199219 C 19.871094 13.019531 20.386719 14.894531 21.355469 16.539062 C 21.6875 17.101562 22.277344 16.164062 22.105469 15.757812 C 21.308594 13.832031 20.65625 11.863281 19.988281 9.890625 C 21.535156 10.320312 23.0625 10.808594 24.605469 11.25 C 25.304688 11.449219 25.65625 10.054688 24.984375 9.800781 " fillOpacity="1" fillRule="nonzero"/></g></g></g></g><g clipPath="url(#1ea9671164)"><g clipPath="url(#e16ecaee7e)"><g clipPath="url(#ebb32b4eaf)"><g clipPath="url(#57cf0db23a)"><path fill="#000000" d="M 37.820312 24.019531 C 36.464844 23.421875 35.046875 22.972656 33.617188 22.574219 C 34.132812 22.117188 34.648438 21.664062 35.167969 21.210938 C 35.722656 20.722656 36.304688 20.277344 36.984375 19.988281 C 37.066406 19.957031 37.132812 19.898438 37.1875 19.828125 C 37.703125 19.855469 37.957031 18.785156 37.421875 18.65625 C 37.292969 18.625 37.175781 18.660156 37.082031 18.738281 C 37.007812 18.71875 36.917969 18.726562 36.8125 18.773438 C 35.460938 19.398438 34.351562 20.550781 33.246094 21.550781 C 33.390625 20.148438 33.53125 18.746094 33.597656 17.34375 C 33.613281 16.960938 33.15625 16.941406 33.097656 17.304688 C 32.875 18.660156 32.71875 20.027344 32.566406 21.394531 C 31.925781 20.132812 31.269531 18.878906 30.535156 17.671875 C 30.292969 17.269531 29.890625 17.941406 30.003906 18.226562 C 30.527344 19.535156 31.128906 20.8125 31.746094 22.082031 C 30.242188 21.714844 28.726562 21.410156 27.199219 21.164062 C 26.632812 21.074219 26.335938 22.214844 26.894531 22.316406 C 28.367188 22.582031 29.832031 22.902344 31.277344 23.277344 C 30.5625 23.910156 29.859375 24.554688 29.199219 25.242188 C 28.894531 25.558594 29.132812 26.382812 29.621094 26.019531 C 30.554688 25.328125 31.425781 24.546875 32.292969 23.761719 C 32.089844 25.34375 31.859375 26.933594 31.808594 28.523438 C 31.789062 29.054688 32.414062 29.085938 32.507812 28.570312 C 32.742188 27.265625 32.855469 25.933594 32.964844 24.605469 C 33.113281 24.910156 33.261719 25.214844 33.410156 25.515625 C 33.800781 26.328125 34.148438 27.183594 34.613281 27.949219 C 34.765625 28.203125 35.09375 28.117188 35.261719 27.941406 C 35.46875 27.726562 35.566406 27.363281 35.449219 27.074219 C 35.125 26.265625 34.664062 25.496094 34.265625 24.71875 C 34.148438 24.492188 34.03125 24.265625 33.917969 24.035156 C 35.117188 24.417969 36.308594 24.828125 37.507812 25.207031 C 38.082031 25.386719 38.347656 24.25 37.820312 24.019531 " fillOpacity="1" fillRule="nonzero"/></g></g></g></g><g clipPath="url(#312924ec29)"><g clipPath="url(#f8bc79762d)"><g clipPath="url(#c14f4a3b8c)"><g clipPath="url(#7961426c14)"><path fill="#000000" d="M 16.6875 34.335938 C 14.882812 33.519531 13.007812 32.832031 11.160156 32.109375 C 12.289062 31.542969 13.410156 30.953125 14.480469 30.277344 C 14.792969 30.082031 14.984375 29.722656 14.925781 29.34375 C 14.875 29.019531 14.621094 28.769531 14.285156 28.902344 C 12.777344 29.496094 11.339844 30.253906 9.90625 31.023438 C 10.695312 29.164062 11.46875 27.300781 12.273438 25.449219 C 12.445312 25.054688 12.027344 24.640625 11.800781 25.109375 C 11.121094 26.535156 10.425781 27.945312 9.726562 29.359375 C 9.609375 28.078125 9.492188 26.800781 9.410156 25.515625 C 9.386719 25.144531 9.042969 24.878906 8.691406 25.019531 C 8.316406 25.167969 8.148438 25.691406 8.195312 26.0625 C 8.414062 27.738281 8.550781 29.421875 8.675781 31.109375 C 6.800781 30.332031 4.929688 29.535156 3.035156 28.804688 C 2.480469 28.589844 2.066406 29.832031 2.566406 30.074219 C 4.207031 30.859375 5.871094 31.578125 7.546875 32.277344 C 6.054688 33.070312 4.5625 33.863281 3.070312 34.660156 C 2.757812 34.824219 2.589844 35.210938 2.640625 35.5625 C 2.6875 35.855469 2.945312 36.144531 3.261719 35.988281 C 4.691406 35.289062 6.125 34.585938 7.554688 33.882812 C 7.40625 34.207031 7.253906 34.535156 7.105469 34.859375 C 6.589844 35.976562 6.050781 37.074219 5.632812 38.230469 C 5.402344 38.867188 6.117188 39.234375 6.457031 38.625 C 7.042969 37.585938 7.496094 36.472656 7.988281 35.386719 C 8.277344 34.746094 8.5625 34.105469 8.847656 33.46875 C 8.910156 34.320312 8.96875 35.175781 9.027344 36.027344 C 9.101562 37.148438 9.136719 38.28125 9.300781 39.390625 C 9.4375 40.304688 10.441406 39.78125 10.453125 39.070312 C 10.484375 37.167969 10.277344 35.238281 10.09375 33.335938 C 12.144531 34.195312 14.199219 35.101562 16.304688 35.789062 C 17.007812 36.015625 17.328125 34.625 16.6875 34.335938 " fillOpacity="1" fillRule="nonzero"/></g></g></g></g><g clipPath="url(#fc653b1498)"><g clipPath="url(#4309421d22)"><g clipPath="url(#28831acef3)"><g clipPath="url(#fc5c9ce794)"><path fill="#000000" d="M 24.984375 9.800781 C 23.90625 9.390625 22.792969 9.050781 21.671875 8.75 C 22.847656 8.226562 24.027344 7.71875 25.214844 7.226562 C 25.667969 7.039062 25.664062 6.015625 25.070312 6.210938 C 23.5 6.726562 21.964844 7.3125 20.457031 7.972656 C 20.953125 6.550781 21.425781 5.121094 21.878906 3.683594 C 21.949219 3.449219 21.886719 3.078125 21.617188 3.007812 C 21.328125 2.933594 21.136719 3.238281 21.058594 3.46875 C 20.527344 5.050781 19.96875 6.621094 19.382812 8.183594 C 19.375 8.183594 19.367188 8.179688 19.359375 8.179688 C 18.804688 6.8125 18.125 5.511719 17.183594 4.359375 C 16.828125 3.925781 16.375 4.734375 16.625 5.085938 C 17.246094 5.960938 17.730469 6.914062 18.140625 7.902344 C 16.671875 7.578125 15.1875 7.289062 13.695312 7.164062 C 13.136719 7.117188 12.804688 8.1875 13.390625 8.332031 C 14.804688 8.679688 16.234375 8.964844 17.65625 9.292969 C 16.042969 10.109375 14.46875 11.007812 12.933594 11.988281 C 12.589844 12.207031 12.679688 13.15625 13.164062 12.898438 C 14.960938 11.945312 16.777344 11.035156 18.613281 10.160156 C 18.074219 11.496094 17.511719 12.820312 17.015625 14.171875 C 16.769531 14.84375 17.585938 15.308594 17.917969 14.601562 C 18.433594 13.496094 18.878906 12.351562 19.300781 11.199219 C 19.871094 13.019531 20.386719 14.894531 21.355469 16.539062 C 21.6875 17.101562 22.277344 16.164062 22.105469 15.757812 C 21.308594 13.832031 20.65625 11.863281 19.988281 9.890625 C 21.535156 10.320312 23.0625 10.808594 24.605469 11.25 C 25.304688 11.449219 25.65625 10.054688 24.984375 9.800781 " fillOpacity="1" fillRule="nonzero"/></g></g></g></g><g clipPath="url(#f93f6bc3bc)"><g clipPath="url(#74acb04b71)"><g clipPath="url(#b26959ffda)"><g clipPath="url(#7d24a62a39)"><path fill="#000000" d="M 37.820312 24.019531 C 36.464844 23.421875 35.046875 22.972656 33.617188 22.574219 C 34.132812 22.117188 34.648438 21.664062 35.167969 21.210938 C 35.722656 20.722656 36.304688 20.277344 36.984375 19.988281 C 37.066406 19.957031 37.132812 19.898438 37.1875 19.828125 C 37.703125 19.855469 37.957031 18.785156 37.421875 18.65625 C 37.292969 18.625 37.175781 18.660156 37.082031 18.738281 C 37.007812 18.71875 36.917969 18.726562 36.8125 18.773438 C 35.460938 19.398438 34.351562 20.550781 33.246094 21.550781 C 33.390625 20.148438 33.53125 18.746094 33.597656 17.34375 C 33.613281 16.960938 33.15625 16.941406 33.097656 17.304688 C 32.875 18.660156 32.71875 20.027344 32.566406 21.394531 C 31.925781 20.132812 31.269531 18.878906 30.535156 17.671875 C 30.292969 17.269531 29.890625 17.941406 30.003906 18.226562 C 30.527344 19.535156 31.128906 20.8125 31.746094 22.082031 C 30.242188 21.714844 28.726562 21.410156 27.199219 21.164062 C 26.632812 21.074219 26.335938 22.214844 26.894531 22.316406 C 28.367188 22.582031 29.832031 22.902344 31.277344 23.277344 C 30.5625 23.910156 29.859375 24.554688 29.199219 25.242188 C 28.894531 25.558594 29.132812 26.382812 29.621094 26.019531 C 30.554688 25.328125 31.425781 24.546875 32.292969 23.761719 C 32.089844 25.34375 31.859375 26.933594 31.808594 28.523438 C 31.789062 29.054688 32.414062 29.085938 32.507812 28.570312 C 32.742188 27.265625 32.855469 25.933594 32.964844 24.605469 C 33.113281 24.910156 33.261719 25.214844 33.410156 25.515625 C 33.800781 26.328125 34.148438 27.183594 34.613281 27.949219 C 34.765625 28.203125 35.09375 28.117188 35.261719 27.941406 C 35.46875 27.726562 35.566406 27.363281 35.449219 27.074219 C 35.125 26.265625 34.664062 25.496094 34.265625 24.71875 C 34.148438 24.492188 34.03125 24.265625 33.917969 24.035156 C 35.117188 24.417969 36.308594 24.828125 37.507812 25.207031 C 38.082031 25.386719 38.347656 24.25 37.820312 24.019531 " fillOpacity="1" fillRule="nonzero"/></g></g></g></g><g clipPath="url(#0c7a1a6585)"><g clipPath="url(#7fc0f50f34)"><g clipPath="url(#27e822cf1e)"><g clipPath="url(#5a59c14da6)"><path fill="#000000" d="M 16.6875 34.335938 C 14.882812 33.519531 13.007812 32.832031 11.160156 32.109375 C 12.289062 31.542969 13.410156 30.953125 14.480469 30.277344 C 14.792969 30.082031 14.984375 29.722656 14.925781 29.34375 C 14.875 29.019531 14.621094 28.769531 14.285156 28.902344 C 12.777344 29.496094 11.339844 30.253906 9.90625 31.023438 C 10.695312 29.164062 11.46875 27.300781 12.273438 25.449219 C 12.445312 25.054688 12.027344 24.640625 11.800781 25.109375 C 11.121094 26.535156 10.425781 27.945312 9.726562 29.359375 C 9.609375 28.078125 9.492188 26.800781 9.410156 25.515625 C 9.386719 25.144531 9.042969 24.878906 8.691406 25.019531 C 8.316406 25.167969 8.148438 25.691406 8.195312 26.0625 C 8.414062 27.738281 8.550781 29.421875 8.675781 31.109375 C 6.800781 30.332031 4.929688 29.535156 3.035156 28.804688 C 2.480469 28.589844 2.066406 29.832031 2.566406 30.074219 C 4.207031 30.859375 5.871094 31.578125 7.546875 32.277344 C 6.054688 33.070312 4.5625 33.863281 3.070312 34.660156 C 2.757812 34.824219 2.589844 35.210938 2.640625 35.5625 C 2.6875 35.855469 2.945312 36.144531 3.261719 35.988281 C 4.691406 35.289062 6.125 34.585938 7.554688 33.882812 C 7.40625 34.207031 7.253906 34.535156 7.105469 34.859375 C 6.589844 35.976562 6.050781 37.074219 5.632812 38.230469 C 5.402344 38.867188 6.117188 39.234375 6.457031 38.625 C 7.042969 37.585938 7.496094 36.472656 7.988281 35.386719 C 8.277344 34.746094 8.5625 34.105469 8.847656 33.46875 C 8.910156 34.320312 8.96875 35.175781 9.027344 36.027344 C 9.101562 37.148438 9.136719 38.28125 9.300781 39.390625 C 9.4375 40.304688 10.441406 39.78125 10.453125 39.070312 C 10.484375 37.167969 10.277344 35.238281 10.09375 33.335938 C 12.144531 34.195312 14.199219 35.101562 16.304688 35.789062 C 17.007812 36.015625 17.328125 34.625 16.6875 34.335938 " fillOpacity="1" fillRule="nonzero"/></g></g></g></g></svg>