<svg xmlns="http://www.w3.org/2000/svg" xmlns:xlink="http://www.w3.org/1999/xlink" width="180" zoomAndPan="magnify" viewBox="0 0 135 88.499997" height="118" preserveAspectRatio="xMidYMid meet" version="1.0"><defs><g/></defs><g fill="#000000" fill-opacity="1"><g transform="translate(13.727578, 60.984887)"><g><path d="M 0.4375 -23.140625 L 0.4375 -24.40625 C 0.4375 -24.914062 0.5 -25.410156 0.625 -25.890625 C 0.75 -26.378906 0.957031 -26.789062 1.25 -27.125 C 1.539062 -27.46875 1.945312 -27.640625 2.46875 -27.640625 C 3.050781 -27.640625 3.460938 -27.40625 3.703125 -26.9375 C 3.941406 -26.46875 4.078125 -25.976562 4.109375 -25.46875 L 4.109375 -20.109375 C 4.109375 -19.972656 4.128906 -19.625 4.171875 -19.0625 C 4.222656 -18.5 4.289062 -17.867188 4.375 -17.171875 C 4.457031 -16.484375 4.53125 -15.800781 4.59375 -15.125 C 4.664062 -14.457031 4.742188 -13.957031 4.828125 -13.625 C 4.890625 -13.144531 4.976562 -12.441406 5.09375 -11.515625 C 5.207031 -10.597656 5.328125 -9.679688 5.453125 -8.765625 C 5.585938 -7.847656 5.734375 -7.039062 5.890625 -6.34375 C 6.046875 -5.65625 6.207031 -5.3125 6.375 -5.3125 C 6.675781 -5.3125 7.039062 -5.613281 7.46875 -6.21875 C 7.894531 -6.832031 8.34375 -7.59375 8.8125 -8.5 C 9.28125 -9.40625 9.757812 -10.378906 10.25 -11.421875 C 10.738281 -12.472656 11.238281 -13.457031 11.75 -14.375 C 12.257812 -15.289062 12.738281 -16.050781 13.1875 -16.65625 C 13.644531 -17.269531 14.078125 -17.578125 14.484375 -17.578125 C 14.847656 -17.578125 15.179688 -17.398438 15.484375 -17.046875 C 15.796875 -16.691406 15.953125 -16.34375 15.953125 -16 C 15.953125 -15.125 15.875 -14.238281 15.71875 -13.34375 C 15.570312 -12.445312 15.40625 -11.5625 15.21875 -10.6875 C 15.03125 -9.8125 14.859375 -8.921875 14.703125 -8.015625 C 14.554688 -7.117188 14.484375 -6.21875 14.484375 -5.3125 C 14.484375 -4.832031 14.507812 -4.476562 14.5625 -4.25 C 14.613281 -4.019531 14.894531 -3.90625 15.40625 -3.90625 C 16.925781 -3.90625 18.359375 -4.46875 19.703125 -5.59375 C 21.054688 -6.726562 22.3125 -8.15625 23.46875 -9.875 C 24.632812 -11.601562 25.707031 -13.453125 26.6875 -15.421875 C 27.664062 -17.390625 28.550781 -19.234375 29.34375 -20.953125 C 30.132812 -22.679688 30.835938 -24.113281 31.453125 -25.25 C 32.066406 -26.382812 32.566406 -26.953125 32.953125 -26.953125 C 33.472656 -26.953125 33.820312 -26.804688 34 -26.515625 C 34.175781 -26.234375 34.265625 -25.851562 34.265625 -25.375 C 34.265625 -24.25 33.976562 -22.863281 33.40625 -21.21875 C 32.84375 -19.570312 32.070312 -17.835938 31.09375 -16.015625 C 30.113281 -14.191406 28.976562 -12.351562 27.6875 -10.5 C 26.40625 -8.65625 25.0625 -7.007812 23.65625 -5.5625 C 22.257812 -4.113281 20.84375 -2.9375 19.40625 -2.03125 C 17.976562 -1.125 16.628906 -0.671875 15.359375 -0.671875 C 14.296875 -0.671875 13.5 -0.878906 12.96875 -1.296875 C 12.4375 -1.710938 12.0625 -2.269531 11.84375 -2.96875 C 11.625 -3.613281 11.515625 -4.332031 11.515625 -5.125 L 11.515625 -5.296875 C 11.535156 -6.148438 11.578125 -7.015625 11.640625 -7.890625 C 11.546875 -7.691406 11.351562 -7.335938 11.0625 -6.828125 C 10.769531 -6.328125 10.472656 -5.78125 10.171875 -5.1875 C 9.867188 -4.59375 9.582031 -4.046875 9.3125 -3.546875 C 9.039062 -3.046875 8.851562 -2.6875 8.75 -2.46875 C 8.425781 -1.90625 8.0625 -1.460938 7.65625 -1.140625 C 7.25 -0.828125 6.707031 -0.671875 6.03125 -0.671875 C 5.289062 -0.671875 4.6875 -0.925781 4.21875 -1.4375 C 3.757812 -1.957031 3.484375 -2.554688 3.390625 -3.234375 L 0.5 -21.515625 C 0.5 -21.546875 0.488281 -21.773438 0.46875 -22.203125 C 0.445312 -22.628906 0.4375 -22.941406 0.4375 -23.140625 Z M 0.4375 -23.140625 "/></g></g></g><g fill="#000000" fill-opacity="1"><g transform="translate(48.492131, 60.984887)"><g><path d="M 0.5 -4.65625 C 0.539062 -5.03125 0.578125 -5.519531 0.609375 -6.125 C 0.648438 -6.738281 0.6875 -7.347656 0.71875 -7.953125 C 0.75 -8.554688 0.78125 -9.09375 0.8125 -9.5625 C 0.84375 -10.039062 0.859375 -10.316406 0.859375 -10.390625 C 0.898438 -10.546875 0.941406 -10.890625 0.984375 -11.421875 C 1.035156 -11.953125 1.132812 -12.484375 1.28125 -13.015625 C 1.4375 -13.554688 1.648438 -14.035156 1.921875 -14.453125 C 2.191406 -14.867188 2.53125 -15.078125 2.9375 -15.078125 C 3.945312 -15.078125 4.453125 -14.539062 4.453125 -13.46875 C 4.453125 -12.414062 4.425781 -11.4375 4.375 -10.53125 C 4.320312 -9.625 4.269531 -8.703125 4.21875 -7.765625 C 4.175781 -6.835938 4.140625 -5.898438 4.109375 -4.953125 C 4.085938 -4.453125 4.078125 -3.9375 4.078125 -3.40625 C 4.078125 -2.894531 4.085938 -2.351562 4.109375 -1.78125 C 3.941406 -1.300781 3.753906 -0.992188 3.546875 -0.859375 C 3.335938 -0.734375 2.976562 -0.671875 2.46875 -0.671875 C 2.039062 -0.671875 1.691406 -0.769531 1.421875 -0.96875 C 1.148438 -1.164062 0.945312 -1.429688 0.8125 -1.765625 C 0.6875 -2.109375 0.601562 -2.472656 0.5625 -2.859375 C 0.519531 -3.242188 0.5 -3.644531 0.5 -4.0625 Z M 2.625 -21.9375 C 2.625 -22.507812 2.675781 -22.878906 2.78125 -23.046875 C 2.882812 -23.210938 3.226562 -23.296875 3.8125 -23.296875 C 4.269531 -23.296875 4.675781 -23.148438 5.03125 -22.859375 C 5.382812 -22.566406 5.5625 -22.175781 5.5625 -21.6875 C 5.5625 -21.300781 5.410156 -20.929688 5.109375 -20.578125 C 4.804688 -20.222656 4.472656 -20.046875 4.109375 -20.046875 C 3.597656 -20.046875 3.222656 -20.265625 2.984375 -20.703125 C 2.742188 -21.140625 2.625 -21.550781 2.625 -21.9375 Z M 2.625 -21.9375 "/></g></g></g><g fill="#000000" fill-opacity="1"><g transform="translate(54.549965, 60.984887)"><g><path d="M 0.5 -1.78125 C 0.5 -1.945312 0.488281 -2.269531 0.46875 -2.75 C 0.445312 -3.238281 0.4375 -3.578125 0.4375 -3.765625 C 0.4375 -4.054688 0.457031 -4.570312 0.5 -5.3125 C 0.539062 -6.050781 0.59375 -6.894531 0.65625 -7.84375 C 0.726562 -8.789062 0.8125 -9.78125 0.90625 -10.8125 C 1.007812 -11.84375 1.132812 -12.78125 1.28125 -13.625 C 1.4375 -14.46875 1.613281 -15.160156 1.8125 -15.703125 C 2.019531 -16.242188 2.238281 -16.515625 2.46875 -16.515625 C 2.75 -16.515625 3.015625 -16.335938 3.265625 -15.984375 C 3.515625 -15.628906 3.679688 -15.328125 3.765625 -15.078125 C 3.796875 -14.921875 3.828125 -14.65625 3.859375 -14.28125 C 3.890625 -13.90625 3.921875 -13.507812 3.953125 -13.09375 C 3.984375 -12.675781 4.015625 -12.28125 4.046875 -11.90625 C 4.085938 -11.53125 4.109375 -11.28125 4.109375 -11.15625 C 4.710938 -11.351562 5.179688 -11.71875 5.515625 -12.25 C 5.859375 -12.789062 6.191406 -13.359375 6.515625 -13.953125 C 6.835938 -14.546875 7.21875 -15.054688 7.65625 -15.484375 C 8.09375 -15.921875 8.695312 -16.140625 9.46875 -16.140625 C 10.40625 -16.140625 11.1875 -15.71875 11.8125 -14.875 C 12.445312 -14.039062 12.957031 -13.066406 13.34375 -11.953125 C 13.726562 -10.835938 14.039062 -9.71875 14.28125 -8.59375 C 14.519531 -7.46875 14.722656 -6.628906 14.890625 -6.078125 C 14.890625 -6.015625 14.9375 -5.863281 15.03125 -5.625 C 15.132812 -5.382812 15.253906 -5.117188 15.390625 -4.828125 C 15.535156 -4.546875 15.65625 -4.285156 15.75 -4.046875 C 15.851562 -3.816406 15.921875 -3.660156 15.953125 -3.578125 C 15.953125 -3.546875 15.957031 -3.457031 15.96875 -3.3125 C 15.988281 -3.164062 16 -3.054688 16 -2.984375 C 16 -2.609375 15.863281 -2.25 15.59375 -1.90625 C 15.320312 -1.570312 14.972656 -1.40625 14.546875 -1.40625 C 13.617188 -1.40625 12.925781 -1.6875 12.46875 -2.25 C 12.019531 -2.8125 11.6875 -3.503906 11.46875 -4.328125 C 11.257812 -5.148438 11.113281 -6.039062 11.03125 -7 C 10.957031 -7.96875 10.863281 -8.863281 10.75 -9.6875 C 10.632812 -10.507812 10.445312 -11.203125 10.1875 -11.765625 C 9.9375 -12.328125 9.507812 -12.609375 8.90625 -12.609375 C 8.4375 -12.609375 7.984375 -12.375 7.546875 -11.90625 C 7.117188 -11.4375 6.710938 -10.894531 6.328125 -10.28125 C 5.953125 -9.675781 5.628906 -9.078125 5.359375 -8.484375 C 5.097656 -7.890625 4.921875 -7.460938 4.828125 -7.203125 C 4.742188 -7.066406 4.617188 -6.722656 4.453125 -6.171875 C 4.285156 -5.628906 4.097656 -5.050781 3.890625 -4.4375 C 3.679688 -3.832031 3.492188 -3.269531 3.328125 -2.75 C 3.171875 -2.238281 3.078125 -1.914062 3.046875 -1.78125 C 2.878906 -1.363281 2.757812 -1.128906 2.6875 -1.078125 C 2.613281 -1.035156 2.378906 -1.015625 1.984375 -1.015625 C 1.671875 -1.015625 1.378906 -1.046875 1.109375 -1.109375 C 0.847656 -1.179688 0.644531 -1.40625 0.5 -1.78125 Z M 0.5 -1.78125 "/></g></g></g><g fill="#000000" fill-opacity="1"><g transform="translate(71.042111, 60.984887)"><g><path d="M 0.4375 -7.203125 C 0.4375 -8.203125 0.570312 -9.117188 0.84375 -9.953125 C 1.125 -10.785156 1.507812 -11.539062 2 -12.21875 C 2.5 -12.894531 3.070312 -13.515625 3.71875 -14.078125 C 4.375 -14.648438 5.097656 -15.207031 5.890625 -15.75 C 6.117188 -15.914062 6.382812 -16.125 6.6875 -16.375 C 6.988281 -16.632812 7.304688 -16.875 7.640625 -17.09375 C 7.984375 -17.320312 8.320312 -17.515625 8.65625 -17.671875 C 9 -17.835938 9.320312 -17.921875 9.625 -17.921875 C 10 -17.921875 10.394531 -17.863281 10.8125 -17.75 C 11.238281 -17.632812 11.617188 -17.457031 11.953125 -17.21875 C 12.296875 -16.976562 12.570312 -16.695312 12.78125 -16.375 C 13 -16.0625 13.109375 -15.679688 13.109375 -15.234375 C 13.109375 -14.390625 12.890625 -13.617188 12.453125 -12.921875 C 12.015625 -12.234375 11.460938 -11.644531 10.796875 -11.15625 C 10.140625 -10.675781 9.398438 -10.300781 8.578125 -10.03125 C 7.753906 -9.757812 6.972656 -9.625 6.234375 -9.625 C 6.160156 -9.625 6.046875 -9.640625 5.890625 -9.671875 C 5.804688 -9.671875 5.5625 -9.71875 5.15625 -9.8125 C 4.75 -9.914062 4.515625 -9.992188 4.453125 -10.046875 L 4.25 -10.046875 C 3.988281 -10.046875 3.796875 -9.929688 3.671875 -9.703125 C 3.546875 -9.484375 3.457031 -9.21875 3.40625 -8.90625 C 3.363281 -8.601562 3.34375 -8.304688 3.34375 -8.015625 L 3.34375 -7.34375 C 3.34375 -6.15625 3.578125 -5.285156 4.046875 -4.734375 C 4.523438 -4.179688 5.351562 -3.90625 6.53125 -3.90625 C 7.945312 -3.90625 9.203125 -4.066406 10.296875 -4.390625 C 11.390625 -4.710938 12.546875 -5.273438 13.765625 -6.078125 C 13.804688 -6.078125 13.890625 -6.082031 14.015625 -6.09375 C 14.148438 -6.113281 14.242188 -6.125 14.296875 -6.125 C 15.171875 -6.125 15.609375 -5.691406 15.609375 -4.828125 C 15.609375 -4.179688 15.257812 -3.601562 14.5625 -3.09375 C 13.875 -2.582031 13.0625 -2.148438 12.125 -1.796875 C 11.195312 -1.441406 10.257812 -1.171875 9.3125 -0.984375 C 8.363281 -0.804688 7.640625 -0.71875 7.140625 -0.71875 C 6.191406 -0.71875 5.3125 -0.878906 4.5 -1.203125 C 3.6875 -1.523438 2.972656 -1.960938 2.359375 -2.515625 C 1.753906 -3.066406 1.28125 -3.738281 0.9375 -4.53125 C 0.601562 -5.320312 0.4375 -6.210938 0.4375 -7.203125 Z M 5.890625 -12.859375 C 5.953125 -12.691406 6.039062 -12.59375 6.15625 -12.5625 C 6.269531 -12.53125 6.410156 -12.515625 6.578125 -12.515625 C 6.828125 -12.515625 7.160156 -12.5625 7.578125 -12.65625 C 7.992188 -12.757812 8.40625 -12.910156 8.8125 -13.109375 C 9.21875 -13.316406 9.5625 -13.550781 9.84375 -13.8125 C 10.132812 -14.082031 10.28125 -14.390625 10.28125 -14.734375 C 9.539062 -14.734375 8.738281 -14.582031 7.875 -14.28125 C 7.007812 -13.976562 6.347656 -13.503906 5.890625 -12.859375 Z M 5.890625 -12.859375 "/></g></g></g><g fill="#000000" fill-opacity="1"><g transform="translate(87.138643, 60.984887)"><g><path d="M 0.5 -2.6875 C 0.5 -4.664062 0.566406 -6.628906 0.703125 -8.578125 C 0.847656 -10.523438 0.992188 -12.457031 1.140625 -14.375 C 1.285156 -16.300781 1.414062 -18.234375 1.53125 -20.171875 C 1.582031 -21.273438 1.609375 -22.390625 1.609375 -23.515625 C 1.609375 -24.390625 1.59375 -25.265625 1.5625 -26.140625 C 2.132812 -26.878906 2.804688 -27.25 3.578125 -27.25 C 4.222656 -27.25 4.707031 -26.957031 5.03125 -26.375 C 5.351562 -25.800781 5.515625 -25.242188 5.515625 -24.703125 C 5.515625 -22.984375 5.457031 -21.179688 5.34375 -19.296875 C 5.226562 -17.410156 5.09375 -15.484375 4.9375 -13.515625 C 4.78125 -11.554688 4.625 -9.609375 4.46875 -7.671875 C 4.320312 -5.734375 4.203125 -3.882812 4.109375 -2.125 C 3.941406 -1.644531 3.632812 -1.226562 3.1875 -0.875 C 2.738281 -0.519531 2.269531 -0.34375 1.78125 -0.34375 C 1.53125 -0.34375 1.289062 -0.421875 1.0625 -0.578125 C 0.832031 -0.734375 0.644531 -0.894531 0.5 -1.0625 Z M 0.5 -2.6875 "/></g></g></g><g fill="#000000" fill-opacity="1"><g transform="translate(93.196478, 60.984887)"><g><path d="M 0.4375 -7.34375 C 0.4375 -8.050781 0.625 -8.976562 1 -10.125 C 1.375 -11.269531 1.875 -12.5 2.5 -13.8125 C 3.125 -15.132812 3.84375 -16.460938 4.65625 -17.796875 C 5.476562 -19.140625 6.316406 -20.359375 7.171875 -21.453125 C 8.023438 -22.546875 8.878906 -23.429688 9.734375 -24.109375 C 10.597656 -24.785156 11.410156 -25.125 12.171875 -25.125 C 12.765625 -25.125 13.175781 -25.035156 13.40625 -24.859375 C 13.644531 -24.691406 13.820312 -24.484375 13.9375 -24.234375 C 14.0625 -23.984375 14.203125 -23.707031 14.359375 -23.40625 C 14.515625 -23.101562 14.789062 -22.828125 15.1875 -22.578125 C 16.40625 -21.867188 17.398438 -21.242188 18.171875 -20.703125 C 18.953125 -20.171875 19.578125 -19.570312 20.046875 -18.90625 C 20.523438 -18.25 20.851562 -17.445312 21.03125 -16.5 C 21.21875 -15.550781 21.3125 -14.335938 21.3125 -12.859375 C 21.3125 -12.085938 21.132812 -11.363281 20.78125 -10.6875 C 20.425781 -10.007812 20.132812 -9.316406 19.90625 -8.609375 C 19.03125 -6.003906 17.535156 -4.03125 15.421875 -2.6875 C 13.316406 -1.34375 10.910156 -0.671875 8.203125 -0.671875 C 7.117188 -0.671875 6.109375 -0.789062 5.171875 -1.03125 C 4.234375 -1.28125 3.414062 -1.675781 2.71875 -2.21875 C 2.03125 -2.769531 1.476562 -3.460938 1.0625 -4.296875 C 0.644531 -5.140625 0.4375 -6.15625 0.4375 -7.34375 Z M 3.765625 -6.078125 C 3.796875 -5.503906 3.976562 -5.070312 4.3125 -4.78125 C 4.65625 -4.5 5.050781 -4.289062 5.5 -4.15625 C 5.957031 -4.019531 6.425781 -3.941406 6.90625 -3.921875 C 7.394531 -3.910156 7.828125 -3.90625 8.203125 -3.90625 C 9.523438 -3.90625 10.757812 -4.15625 11.90625 -4.65625 C 13.050781 -5.164062 14.050781 -5.851562 14.90625 -6.71875 C 15.769531 -7.582031 16.457031 -8.59375 16.96875 -9.75 C 17.476562 -10.914062 17.734375 -12.15625 17.734375 -13.46875 L 17.734375 -13.625 C 17.703125 -13.757812 17.648438 -14.019531 17.578125 -14.40625 C 17.515625 -14.789062 17.445312 -15.1875 17.375 -15.59375 C 17.300781 -16 17.226562 -16.382812 17.15625 -16.75 C 17.09375 -17.125 17.046875 -17.398438 17.015625 -17.578125 C 16.847656 -17.910156 16.5625 -18.160156 16.15625 -18.328125 C 15.75 -18.503906 15.304688 -18.632812 14.828125 -18.71875 C 14.359375 -18.800781 13.894531 -18.847656 13.4375 -18.859375 C 12.988281 -18.878906 12.628906 -18.921875 12.359375 -18.984375 C 12.296875 -18.984375 12.175781 -19.023438 12 -19.109375 C 11.832031 -19.191406 11.648438 -19.273438 11.453125 -19.359375 C 11.253906 -19.441406 11.054688 -19.519531 10.859375 -19.59375 C 10.671875 -19.664062 10.5625 -19.703125 10.53125 -19.703125 C 10.050781 -19.609375 9.550781 -19.265625 9.03125 -18.671875 C 8.519531 -18.078125 8.003906 -17.351562 7.484375 -16.5 C 6.972656 -15.65625 6.484375 -14.722656 6.015625 -13.703125 C 5.546875 -12.679688 5.132812 -11.675781 4.78125 -10.6875 C 4.425781 -9.707031 4.160156 -8.804688 3.984375 -7.984375 C 3.835938 -7.273438 3.765625 -6.707031 3.765625 -6.28125 Z M 3.765625 -6.078125 "/></g></g></g><g fill="#000000" fill-opacity="1"><g transform="translate(115.054134, 60.984887)"><g><path d="M 0.5 -2.6875 C 0.5 -4.664062 0.566406 -6.628906 0.703125 -8.578125 C 0.847656 -10.523438 0.992188 -12.457031 1.140625 -14.375 C 1.285156 -16.300781 1.414062 -18.234375 1.53125 -20.171875 C 1.582031 -21.273438 1.609375 -22.390625 1.609375 -23.515625 C 1.609375 -24.390625 1.59375 -25.265625 1.5625 -26.140625 C 2.132812 -26.878906 2.804688 -27.25 3.578125 -27.25 C 4.222656 -27.25 4.707031 -26.957031 5.03125 -26.375 C 5.351562 -25.800781 5.515625 -25.242188 5.515625 -24.703125 C 5.515625 -22.984375 5.457031 -21.179688 5.34375 -19.296875 C 5.226562 -17.410156 5.09375 -15.484375 4.9375 -13.515625 C 4.78125 -11.554688 4.625 -9.609375 4.46875 -7.671875 C 4.320312 -5.734375 4.203125 -3.882812 4.109375 -2.125 C 3.941406 -1.644531 3.632812 -1.226562 3.1875 -0.875 C 2.738281 -0.519531 2.269531 -0.34375 1.78125 -0.34375 C 1.53125 -0.34375 1.289062 -0.421875 1.0625 -0.578125 C 0.832031 -0.734375 0.644531 -0.894531 0.5 -1.0625 Z M 0.5 -2.6875 "/></g></g></g><g fill="#000000" fill-opacity="1"><g transform="translate(13.727578, 60.984887)"><g><path d="M 0.4375 -23.140625 L 0.4375 -24.40625 C 0.4375 -24.914062 0.5 -25.410156 0.625 -25.890625 C 0.75 -26.378906 0.957031 -26.789062 1.25 -27.125 C 1.539062 -27.46875 1.945312 -27.640625 2.46875 -27.640625 C 3.050781 -27.640625 3.460938 -27.40625 3.703125 -26.9375 C 3.941406 -26.46875 4.078125 -25.976562 4.109375 -25.46875 L 4.109375 -20.109375 C 4.109375 -19.972656 4.128906 -19.625 4.171875 -19.0625 C 4.222656 -18.5 4.289062 -17.867188 4.375 -17.171875 C 4.457031 -16.484375 4.53125 -15.800781 4.59375 -15.125 C 4.664062 -14.457031 4.742188 -13.957031 4.828125 -13.625 C 4.890625 -13.144531 4.976562 -12.441406 5.09375 -11.515625 C 5.207031 -10.597656 5.328125 -9.679688 5.453125 -8.765625 C 5.585938 -7.847656 5.734375 -7.039062 5.890625 -6.34375 C 6.046875 -5.65625 6.207031 -5.3125 6.375 -5.3125 C 6.675781 -5.3125 7.039062 -5.613281 7.46875 -6.21875 C 7.894531 -6.832031 8.34375 -7.59375 8.8125 -8.5 C 9.28125 -9.40625 9.757812 -10.378906 10.25 -11.421875 C 10.738281 -12.472656 11.238281 -13.457031 11.75 -14.375 C 12.257812 -15.289062 12.738281 -16.050781 13.1875 -16.65625 C 13.644531 -17.269531 14.078125 -17.578125 14.484375 -17.578125 C 14.847656 -17.578125 15.179688 -17.398438 15.484375 -17.046875 C 15.796875 -16.691406 15.953125 -16.34375 15.953125 -16 C 15.953125 -15.125 15.875 -14.238281 15.71875 -13.34375 C 15.570312 -12.445312 15.40625 -11.5625 15.21875 -10.6875 C 15.03125 -9.8125 14.859375 -8.921875 14.703125 -8.015625 C 14.554688 -7.117188 14.484375 -6.21875 14.484375 -5.3125 C 14.484375 -4.832031 14.507812 -4.476562 14.5625 -4.25 C 14.613281 -4.019531 14.894531 -3.90625 15.40625 -3.90625 C 16.925781 -3.90625 18.359375 -4.46875 19.703125 -5.59375 C 21.054688 -6.726562 22.3125 -8.15625 23.46875 -9.875 C 24.632812 -11.601562 25.707031 -13.453125 26.6875 -15.421875 C 27.664062 -17.390625 28.550781 -19.234375 29.34375 -20.953125 C 30.132812 -22.679688 30.835938 -24.113281 31.453125 -25.25 C 32.066406 -26.382812 32.566406 -26.953125 32.953125 -26.953125 C 33.472656 -26.953125 33.820312 -26.804688 34 -26.515625 C 34.175781 -26.234375 34.265625 -25.851562 34.265625 -25.375 C 34.265625 -24.25 33.976562 -22.863281 33.40625 -21.21875 C 32.84375 -19.570312 32.070312 -17.835938 31.09375 -16.015625 C 30.113281 -14.191406 28.976562 -12.351562 27.6875 -10.5 C 26.40625 -8.65625 25.0625 -7.007812 23.65625 -5.5625 C 22.257812 -4.113281 20.84375 -2.9375 19.40625 -2.03125 C 17.976562 -1.125 16.628906 -0.671875 15.359375 -0.671875 C 14.296875 -0.671875 13.5 -0.878906 12.96875 -1.296875 C 12.4375 -1.710938 12.0625 -2.269531 11.84375 -2.96875 C 11.625 -3.613281 11.515625 -4.332031 11.515625 -5.125 L 11.515625 -5.296875 C 11.535156 -6.148438 11.578125 -7.015625 11.640625 -7.890625 C 11.546875 -7.691406 11.351562 -7.335938 11.0625 -6.828125 C 10.769531 -6.328125 10.472656 -5.78125 10.171875 -5.1875 C 9.867188 -4.59375 9.582031 -4.046875 9.3125 -3.546875 C 9.039062 -3.046875 8.851562 -2.6875 8.75 -2.46875 C 8.425781 -1.90625 8.0625 -1.460938 7.65625 -1.140625 C 7.25 -0.828125 6.707031 -0.671875 6.03125 -0.671875 C 5.289062 -0.671875 4.6875 -0.925781 4.21875 -1.4375 C 3.757812 -1.957031 3.484375 -2.554688 3.390625 -3.234375 L 0.5 -21.515625 C 0.5 -21.546875 0.488281 -21.773438 0.46875 -22.203125 C 0.445312 -22.628906 0.4375 -22.941406 0.4375 -23.140625 Z M 0.4375 -23.140625 "/></g></g></g><g fill="#000000" fill-opacity="1"><g transform="translate(48.492131, 60.984887)"><g><path d="M 0.5 -4.65625 C 0.539062 -5.03125 0.578125 -5.519531 0.609375 -6.125 C 0.648438 -6.738281 0.6875 -7.347656 0.71875 -7.953125 C 0.75 -8.554688 0.78125 -9.09375 0.8125 -9.5625 C 0.84375 -10.039062 0.859375 -10.316406 0.859375 -10.390625 C 0.898438 -10.546875 0.941406 -10.890625 0.984375 -11.421875 C 1.035156 -11.953125 1.132812 -12.484375 1.28125 -13.015625 C 1.4375 -13.554688 1.648438 -14.035156 1.921875 -14.453125 C 2.191406 -14.867188 2.53125 -15.078125 2.9375 -15.078125 C 3.945312 -15.078125 4.453125 -14.539062 4.453125 -13.46875 C 4.453125 -12.414062 4.425781 -11.4375 4.375 -10.53125 C 4.320312 -9.625 4.269531 -8.703125 4.21875 -7.765625 C 4.175781 -6.835938 4.140625 -5.898438 4.109375 -4.953125 C 4.085938 -4.453125 4.078125 -3.9375 4.078125 -3.40625 C 4.078125 -2.894531 4.085938 -2.351562 4.109375 -1.78125 C 3.941406 -1.300781 3.753906 -0.992188 3.546875 -0.859375 C 3.335938 -0.734375 2.976562 -0.671875 2.46875 -0.671875 C 2.039062 -0.671875 1.691406 -0.769531 1.421875 -0.96875 C 1.148438 -1.164062 0.945312 -1.429688 0.8125 -1.765625 C 0.6875 -2.109375 0.601562 -2.472656 0.5625 -2.859375 C 0.519531 -3.242188 0.5 -3.644531 0.5 -4.0625 Z M 2.625 -21.9375 C 2.625 -22.507812 2.675781 -22.878906 2.78125 -23.046875 C 2.882812 -23.210938 3.226562 -23.296875 3.8125 -23.296875 C 4.269531 -23.296875 4.675781 -23.148438 5.03125 -22.859375 C 5.382812 -22.566406 5.5625 -22.175781 5.5625 -21.6875 C 5.5625 -21.300781 5.410156 -20.929688 5.109375 -20.578125 C 4.804688 -20.222656 4.472656 -20.046875 4.109375 -20.046875 C 3.597656 -20.046875 3.222656 -20.265625 2.984375 -20.703125 C 2.742188 -21.140625 2.625 -21.550781 2.625 -21.9375 Z M 2.625 -21.9375 "/></g></g></g><g fill="#000000" fill-opacity="1"><g transform="translate(54.549965, 60.984887)"><g><path d="M 0.5 -1.78125 C 0.5 -1.945312 0.488281 -2.269531 0.46875 -2.75 C 0.445312 -3.238281 0.4375 -3.578125 0.4375 -3.765625 C 0.4375 -4.054688 0.457031 -4.570312 0.5 -5.3125 C 0.539062 -6.050781 0.59375 -6.894531 0.65625 -7.84375 C 0.726562 -8.789062 0.8125 -9.78125 0.90625 -10.8125 C 1.007812 -11.84375 1.132812 -12.78125 1.28125 -13.625 C 1.4375 -14.46875 1.613281 -15.160156 1.8125 -15.703125 C 2.019531 -16.242188 2.238281 -16.515625 2.46875 -16.515625 C 2.75 -16.515625 3.015625 -16.335938 3.265625 -15.984375 C 3.515625 -15.628906 3.679688 -15.328125 3.765625 -15.078125 C 3.796875 -14.921875 3.828125 -14.65625 3.859375 -14.28125 C 3.890625 -13.90625 3.921875 -13.507812 3.953125 -13.09375 C 3.984375 -12.675781 4.015625 -12.28125 4.046875 -11.90625 C 4.085938 -11.53125 4.109375 -11.28125 4.109375 -11.15625 C 4.710938 -11.351562 5.179688 -11.71875 5.515625 -12.25 C 5.859375 -12.789062 6.191406 -13.359375 6.515625 -13.953125 C 6.835938 -14.546875 7.21875 -15.054688 7.65625 -15.484375 C 8.09375 -15.921875 8.695312 -16.140625 9.46875 -16.140625 C 10.40625 -16.140625 11.1875 -15.71875 11.8125 -14.875 C 12.445312 -14.039062 12.957031 -13.066406 13.34375 -11.953125 C 13.726562 -10.835938 14.039062 -9.71875 14.28125 -8.59375 C 14.519531 -7.46875 14.722656 -6.628906 14.890625 -6.078125 C 14.890625 -6.015625 14.9375 -5.863281 15.03125 -5.625 C 15.132812 -5.382812 15.253906 -5.117188 15.390625 -4.828125 C 15.535156 -4.546875 15.65625 -4.285156 15.75 -4.046875 C 15.851562 -3.816406 15.921875 -3.660156 15.953125 -3.578125 C 15.953125 -3.546875 15.957031 -3.457031 15.96875 -3.3125 C 15.988281 -3.164062 16 -3.054688 16 -2.984375 C 16 -2.609375 15.863281 -2.25 15.59375 -1.90625 C 15.320312 -1.570312 14.972656 -1.40625 14.546875 -1.40625 C 13.617188 -1.40625 12.925781 -1.6875 12.46875 -2.25 C 12.019531 -2.8125 11.6875 -3.503906 11.46875 -4.328125 C 11.257812 -5.148438 11.113281 -6.039062 11.03125 -7 C 10.957031 -7.96875 10.863281 -8.863281 10.75 -9.6875 C 10.632812 -10.507812 10.445312 -11.203125 10.1875 -11.765625 C 9.9375 -12.328125 9.507812 -12.609375 8.90625 -12.609375 C 8.4375 -12.609375 7.984375 -12.375 7.546875 -11.90625 C 7.117188 -11.4375 6.710938 -10.894531 6.328125 -10.28125 C 5.953125 -9.675781 5.628906 -9.078125 5.359375 -8.484375 C 5.097656 -7.890625 4.921875 -7.460938 4.828125 -7.203125 C 4.742188 -7.066406 4.617188 -6.722656 4.453125 -6.171875 C 4.285156 -5.628906 4.097656 -5.050781 3.890625 -4.4375 C 3.679688 -3.832031 3.492188 -3.269531 3.328125 -2.75 C 3.171875 -2.238281 3.078125 -1.914062 3.046875 -1.78125 C 2.878906 -1.363281 2.757812 -1.128906 2.6875 -1.078125 C 2.613281 -1.035156 2.378906 -1.015625 1.984375 -1.015625 C 1.671875 -1.015625 1.378906 -1.046875 1.109375 -1.109375 C 0.847656 -1.179688 0.644531 -1.40625 0.5 -1.78125 Z M 0.5 -1.78125 "/></g></g></g><g fill="#000000" fill-opacity="1"><g transform="translate(71.042111, 60.984887)"><g><path d="M 0.4375 -7.203125 C 0.4375 -8.203125 0.570312 -9.117188 0.84375 -9.953125 C 1.125 -10.785156 1.507812 -11.539062 2 -12.21875 C 2.5 -12.894531 3.070312 -13.515625 3.71875 -14.078125 C 4.375 -14.648438 5.097656 -15.207031 5.890625 -15.75 C 6.117188 -15.914062 6.382812 -16.125 6.6875 -16.375 C 6.988281 -16.632812 7.304688 -16.875 7.640625 -17.09375 C 7.984375 -17.320312 8.320312 -17.515625 8.65625 -17.671875 C 9 -17.835938 9.320312 -17.921875 9.625 -17.921875 C 10 -17.921875 10.394531 -17.863281 10.8125 -17.75 C 11.238281 -17.632812 11.617188 -17.457031 11.953125 -17.21875 C 12.296875 -16.976562 12.570312 -16.695312 12.78125 -16.375 C 13 -16.0625 13.109375 -15.679688 13.109375 -15.234375 C 13.109375 -14.390625 12.890625 -13.617188 12.453125 -12.921875 C 12.015625 -12.234375 11.460938 -11.644531 10.796875 -11.15625 C 10.140625 -10.675781 9.398438 -10.300781 8.578125 -10.03125 C 7.753906 -9.757812 6.972656 -9.625 6.234375 -9.625 C 6.160156 -9.625 6.046875 -9.640625 5.890625 -9.671875 C 5.804688 -9.671875 5.5625 -9.71875 5.15625 -9.8125 C 4.75 -9.914062 4.515625 -9.992188 4.453125 -10.046875 L 4.25 -10.046875 C 3.988281 -10.046875 3.796875 -9.929688 3.671875 -9.703125 C 3.546875 -9.484375 3.457031 -9.21875 3.40625 -8.90625 C 3.363281 -8.601562 3.34375 -8.304688 3.34375 -8.015625 L 3.34375 -7.34375 C 3.34375 -6.15625 3.578125 -5.285156 4.046875 -4.734375 C 4.523438 -4.179688 5.351562 -3.90625 6.53125 -3.90625 C 7.945312 -3.90625 9.203125 -4.066406 10.296875 -4.390625 C 11.390625 -4.710938 12.546875 -5.273438 13.765625 -6.078125 C 13.804688 -6.078125 13.890625 -6.082031 14.015625 -6.09375 C 14.148438 -6.113281 14.242188 -6.125 14.296875 -6.125 C 15.171875 -6.125 15.609375 -5.691406 15.609375 -4.828125 C 15.609375 -4.179688 15.257812 -3.601562 14.5625 -3.09375 C 13.875 -2.582031 13.0625 -2.148438 12.125 -1.796875 C 11.195312 -1.441406 10.257812 -1.171875 9.3125 -0.984375 C 8.363281 -0.804688 7.640625 -0.71875 7.140625 -0.71875 C 6.191406 -0.71875 5.3125 -0.878906 4.5 -1.203125 C 3.6875 -1.523438 2.972656 -1.960938 2.359375 -2.515625 C 1.753906 -3.066406 1.28125 -3.738281 0.9375 -4.53125 C 0.601562 -5.320312 0.4375 -6.210938 0.4375 -7.203125 Z M 5.890625 -12.859375 C 5.953125 -12.691406 6.039062 -12.59375 6.15625 -12.5625 C 6.269531 -12.53125 6.410156 -12.515625 6.578125 -12.515625 C 6.828125 -12.515625 7.160156 -12.5625 7.578125 -12.65625 C 7.992188 -12.757812 8.40625 -12.910156 8.8125 -13.109375 C 9.21875 -13.316406 9.5625 -13.550781 9.84375 -13.8125 C 10.132812 -14.082031 10.28125 -14.390625 10.28125 -14.734375 C 9.539062 -14.734375 8.738281 -14.582031 7.875 -14.28125 C 7.007812 -13.976562 6.347656 -13.503906 5.890625 -12.859375 Z M 5.890625 -12.859375 "/></g></g></g><g fill="#000000" fill-opacity="1"><g transform="translate(87.138643, 60.984887)"><g><path d="M 0.5 -2.6875 C 0.5 -4.664062 0.566406 -6.628906 0.703125 -8.578125 C 0.847656 -10.523438 0.992188 -12.457031 1.140625 -14.375 C 1.285156 -16.300781 1.414062 -18.234375 1.53125 -20.171875 C 1.582031 -21.273438 1.609375 -22.390625 1.609375 -23.515625 C 1.609375 -24.390625 1.59375 -25.265625 1.5625 -26.140625 C 2.132812 -26.878906 2.804688 -27.25 3.578125 -27.25 C 4.222656 -27.25 4.707031 -26.957031 5.03125 -26.375 C 5.351562 -25.800781 5.515625 -25.242188 5.515625 -24.703125 C 5.515625 -22.984375 5.457031 -21.179688 5.34375 -19.296875 C 5.226562 -17.410156 5.09375 -15.484375 4.9375 -13.515625 C 4.78125 -11.554688 4.625 -9.609375 4.46875 -7.671875 C 4.320312 -5.734375 4.203125 -3.882812 4.109375 -2.125 C 3.941406 -1.644531 3.632812 -1.226562 3.1875 -0.875 C 2.738281 -0.519531 2.269531 -0.34375 1.78125 -0.34375 C 1.53125 -0.34375 1.289062 -0.421875 1.0625 -0.578125 C 0.832031 -0.734375 0.644531 -0.894531 0.5 -1.0625 Z M 0.5 -2.6875 "/></g></g></g><g fill="#000000" fill-opacity="1"><g transform="translate(93.196478, 60.984887)"><g><path d="M 0.4375 -7.34375 C 0.4375 -8.050781 0.625 -8.976562 1 -10.125 C 1.375 -11.269531 1.875 -12.5 2.5 -13.8125 C 3.125 -15.132812 3.84375 -16.460938 4.65625 -17.796875 C 5.476562 -19.140625 6.316406 -20.359375 7.171875 -21.453125 C 8.023438 -22.546875 8.878906 -23.429688 9.734375 -24.109375 C 10.597656 -24.785156 11.410156 -25.125 12.171875 -25.125 C 12.765625 -25.125 13.175781 -25.035156 13.40625 -24.859375 C 13.644531 -24.691406 13.820312 -24.484375 13.9375 -24.234375 C 14.0625 -23.984375 14.203125 -23.707031 14.359375 -23.40625 C 14.515625 -23.101562 14.789062 -22.828125 15.1875 -22.578125 C 16.40625 -21.867188 17.398438 -21.242188 18.171875 -20.703125 C 18.953125 -20.171875 19.578125 -19.570312 20.046875 -18.90625 C 20.523438 -18.25 20.851562 -17.445312 21.03125 -16.5 C 21.21875 -15.550781 21.3125 -14.335938 21.3125 -12.859375 C 21.3125 -12.085938 21.132812 -11.363281 20.78125 -10.6875 C 20.425781 -10.007812 20.132812 -9.316406 19.90625 -8.609375 C 19.03125 -6.003906 17.535156 -4.03125 15.421875 -2.6875 C 13.316406 -1.34375 10.910156 -0.671875 8.203125 -0.671875 C 7.117188 -0.671875 6.109375 -0.789062 5.171875 -1.03125 C 4.234375 -1.28125 3.414062 -1.675781 2.71875 -2.21875 C 2.03125 -2.769531 1.476562 -3.460938 1.0625 -4.296875 C 0.644531 -5.140625 0.4375 -6.15625 0.4375 -7.34375 Z M 3.765625 -6.078125 C 3.796875 -5.503906 3.976562 -5.070312 4.3125 -4.78125 C 4.65625 -4.5 5.050781 -4.289062 5.5 -4.15625 C 5.957031 -4.019531 6.425781 -3.941406 6.90625 -3.921875 C 7.394531 -3.910156 7.828125 -3.90625 8.203125 -3.90625 C 9.523438 -3.90625 10.757812 -4.15625 11.90625 -4.65625 C 13.050781 -5.164062 14.050781 -5.851562 14.90625 -6.71875 C 15.769531 -7.582031 16.457031 -8.59375 16.96875 -9.75 C 17.476562 -10.914062 17.734375 -12.15625 17.734375 -13.46875 L 17.734375 -13.625 C 17.703125 -13.757812 17.648438 -14.019531 17.578125 -14.40625 C 17.515625 -14.789062 17.445312 -15.1875 17.375 -15.59375 C 17.300781 -16 17.226562 -16.382812 17.15625 -16.75 C 17.09375 -17.125 17.046875 -17.398438 17.015625 -17.578125 C 16.847656 -17.910156 16.5625 -18.160156 16.15625 -18.328125 C 15.75 -18.503906 15.304688 -18.632812 14.828125 -18.71875 C 14.359375 -18.800781 13.894531 -18.847656 13.4375 -18.859375 C 12.988281 -18.878906 12.628906 -18.921875 12.359375 -18.984375 C 12.296875 -18.984375 12.175781 -19.023438 12 -19.109375 C 11.832031 -19.191406 11.648438 -19.273438 11.453125 -19.359375 C 11.253906 -19.441406 11.054688 -19.519531 10.859375 -19.59375 C 10.671875 -19.664062 10.5625 -19.703125 10.53125 -19.703125 C 10.050781 -19.609375 9.550781 -19.265625 9.03125 -18.671875 C 8.519531 -18.078125 8.003906 -17.351562 7.484375 -16.5 C 6.972656 -15.65625 6.484375 -14.722656 6.015625 -13.703125 C 5.546875 -12.679688 5.132812 -11.675781 4.78125 -10.6875 C 4.425781 -9.707031 4.160156 -8.804688 3.984375 -7.984375 C 3.835938 -7.273438 3.765625 -6.707031 3.765625 -6.28125 Z M 3.765625 -6.078125 "/></g></g></g><g fill="#000000" fill-opacity="1"><g transform="translate(115.054134, 60.984887)"><g><path d="M 0.5 -2.6875 C 0.5 -4.664062 0.566406 -6.628906 0.703125 -8.578125 C 0.847656 -10.523438 0.992188 -12.457031 1.140625 -14.375 C 1.285156 -16.300781 1.414062 -18.234375 1.53125 -20.171875 C 1.582031 -21.273438 1.609375 -22.390625 1.609375 -23.515625 C 1.609375 -24.390625 1.59375 -25.265625 1.5625 -26.140625 C 2.132812 -26.878906 2.804688 -27.25 3.578125 -27.25 C 4.222656 -27.25 4.707031 -26.957031 5.03125 -26.375 C 5.351562 -25.800781 5.515625 -25.242188 5.515625 -24.703125 C 5.515625 -22.984375 5.457031 -21.179688 5.34375 -19.296875 C 5.226562 -17.410156 5.09375 -15.484375 4.9375 -13.515625 C 4.78125 -11.554688 4.625 -9.609375 4.46875 -7.671875 C 4.320312 -5.734375 4.203125 -3.882812 4.109375 -2.125 C 3.941406 -1.644531 3.632812 -1.226562 3.1875 -0.875 C 2.738281 -0.519531 2.269531 -0.34375 1.78125 -0.34375 C 1.53125 -0.34375 1.289062 -0.421875 1.0625 -0.578125 C 0.832031 -0.734375 0.644531 -0.894531 0.5 -1.0625 Z M 0.5 -2.6875 "/></g></g></g></svg>