<svg xmlns="http://www.w3.org/2000/svg" xmlns:xlink="http://www.w3.org/1999/xlink" width="135" zoomAndPan="magnify" viewBox="0 0 101.25 141.749996" height="189" preserveAspectRatio="xMidYMid meet" version="1.0"><defs><clipPath id="57dc247738"><path d="M 15 42 L 58 42 L 58 141.105469 L 15 141.105469 Z M 15 42 " clip-rule="nonzero"/></clipPath><clipPath id="0c3bd9a5d6"><path d="M 0 0.398438 L 100 0.398438 L 100 57 L 0 57 Z M 0 0.398438 " clip-rule="nonzero"/></clipPath><clipPath id="e330202ce5"><path d="M 15 42 L 58 42 L 58 141.105469 L 15 141.105469 Z M 15 42 " clip-rule="nonzero"/></clipPath><clipPath id="a88dd7e93e"><path d="M 0 0.398438 L 100 0.398438 L 100 57 L 0 57 Z M 0 0.398438 " clip-rule="nonzero"/></clipPath></defs><g clip-path="url(#57dc247738)"><path fill="#000000" d="M 44.277344 94.730469 C 45.359375 94.316406 46.640625 93.039062 47.921875 91.386719 C 48.464844 90.800781 48.984375 90.195312 49.503906 89.523438 C 51.738281 86.699219 53.410156 83.574219 54.625 80.300781 C 58.660156 69.515625 57.898438 56.992188 56.1875 47.3125 C 56.1875 47.226562 56.207031 47.117188 56.207031 47.03125 C 56.207031 43.863281 46.078125 42.148438 36.53125 42.148438 C 26.984375 42.148438 16.964844 43.84375 16.855469 46.96875 C 12.777344 69.816406 18.285156 82.6875 23.625 89.433594 C 27.398438 94.230469 31.5625 96.683594 34.078125 97.855469 L 34.078125 135.117188 C 28.179688 135.265625 19.847656 136.003906 19.847656 138.089844 C 19.847656 140.171875 30.628906 141.082031 36.335938 141.082031 C 42.042969 141.082031 52.824219 140.453125 52.824219 138.089844 C 52.824219 135.722656 44.472656 135.265625 38.59375 135.117188 L 38.59375 98.070312 C 39.960938 97.484375 42 96.445312 44.253906 94.707031 Z M 36.554688 42.910156 C 47.703125 42.910156 55.46875 45.078125 55.46875 47.03125 C 55.46875 48.984375 55.46875 47.183594 55.425781 47.269531 C 54.796875 49.160156 47.226562 51.15625 36.554688 51.15625 C 25.878906 51.15625 20.128906 49.765625 18.089844 47.855469 C 17.789062 47.574219 17.636719 47.292969 17.636719 47.03125 C 17.636719 45.078125 25.402344 42.910156 36.554688 42.910156 Z M 17.417969 48.246094 C 17.460938 48.289062 17.503906 48.335938 17.570312 48.398438 C 19.785156 50.460938 27.570312 51.914062 36.554688 51.914062 C 45.535156 51.914062 53.277344 50.675781 55.601562 48.335938 C 56.945312 56.339844 57.097656 63.046875 56.511719 68.667969 C 36.121094 76.609375 18.71875 69.621094 16.574219 68.667969 C 15.792969 61.550781 16.398438 54.367188 17.417969 48.246094 Z M 44.253906 94.753906 C 45.339844 94.339844 46.617188 93.058594 47.898438 91.410156 C 48.441406 90.824219 48.960938 90.214844 49.484375 89.542969 C 51.71875 86.722656 53.386719 83.597656 54.601562 80.320312 C 58.636719 69.535156 57.878906 57.015625 56.164062 47.335938 C 56.164062 47.25 56.1875 47.140625 56.1875 47.054688 C 56.1875 43.886719 46.054688 42.171875 36.507812 42.171875 C 26.964844 42.171875 16.941406 43.863281 16.832031 46.988281 C 12.753906 69.839844 18.265625 82.707031 23.601562 89.457031 C 27.375 94.253906 31.542969 96.703125 34.058594 97.875 L 34.058594 135.136719 C 28.15625 135.289062 19.828125 136.027344 19.828125 138.109375 C 19.828125 140.195312 30.609375 141.105469 36.3125 141.105469 C 42.019531 141.105469 52.800781 140.476562 52.800781 138.109375 C 52.800781 135.746094 44.449219 135.289062 38.570312 135.136719 L 38.570312 98.09375 C 39.9375 97.507812 41.976562 96.464844 44.234375 94.730469 Z M 36.53125 42.929688 C 47.683594 42.929688 55.449219 45.101562 55.449219 47.054688 C 55.449219 49.007812 55.449219 47.207031 55.40625 47.292969 C 54.777344 49.179688 47.203125 51.175781 36.53125 51.175781 C 25.859375 51.175781 20.109375 49.789062 18.070312 47.878906 C 17.765625 47.597656 17.613281 47.3125 17.613281 47.054688 C 17.613281 45.101562 25.378906 42.929688 36.53125 42.929688 Z M 17.398438 48.269531 C 17.441406 48.3125 17.484375 48.355469 17.550781 48.421875 C 19.761719 50.480469 27.550781 51.9375 36.53125 51.9375 C 45.511719 51.9375 53.257812 50.699219 55.578125 48.355469 C 56.921875 56.363281 57.074219 63.070312 56.488281 68.6875 C 36.097656 76.632812 18.699219 69.644531 16.550781 68.6875 C 15.769531 61.570312 16.378906 54.386719 17.398438 48.269531 Z M 17.398438 48.269531 " fill-opacity="1" fill-rule="nonzero"/></g><g clip-path="url(#0c3bd9a5d6)"><path fill="#000000" d="M 96.882812 6.691406 C 96.820312 7.144531 96.339844 7.535156 95.863281 7.429688 C 94.84375 7.1875 93.824219 6.972656 92.804688 6.753906 C 84.625 5.042969 76.316406 3.824219 67.988281 3.109375 C 59.679688 2.371094 51.328125 2.132812 42.996094 2.394531 C 34.644531 2.652344 26.292969 3.390625 18.027344 4.628906 C 15.964844 4.933594 13.90625 5.28125 11.84375 5.648438 C 10.019531 5.972656 8.15625 6.277344 6.421875 6.949219 C 4.964844 7.492188 3.339844 8.425781 2.582031 9.773438 C 1.90625 10.964844 1.710938 12.441406 2.191406 13.699219 C 2.40625 14.285156 2.710938 14.742188 3.253906 15.089844 C 3.253906 15.089844 3.273438 15.089844 3.273438 15.089844 C 3.316406 15.109375 3.382812 15.152344 3.425781 15.175781 C 3.492188 15.195312 3.554688 15.242188 3.621094 15.261719 C 3.839844 15.347656 4.035156 15.414062 4.25 15.4375 C 4.707031 15.523438 5.160156 15.5 5.617188 15.457031 C 6.722656 15.347656 7.832031 15.132812 8.914062 14.9375 C 10.085938 14.742188 11.257812 14.546875 12.40625 14.351562 C 15.683594 13.785156 18.960938 13.242188 22.234375 12.679688 C 23.710938 12.289062 25.230469 11.984375 26.726562 11.746094 C 27.203125 11.679688 27.660156 12.070312 27.703125 12.527344 C 27.746094 12.875 27.570312 13.179688 27.289062 13.351562 C 27.136719 13.527344 26.921875 13.65625 26.683594 13.699219 C 25.511719 13.894531 24.339844 14.089844 23.191406 14.285156 C 23.015625 14.308594 22.820312 14.351562 22.648438 14.371094 C 20.023438 15.066406 17.484375 16 15.054688 17.195312 C 11.691406 18.820312 8.566406 20.925781 5.769531 23.398438 C 4.53125 24.484375 3.230469 25.679688 2.601562 27.152344 C 2.320312 27.785156 2.210938 28.457031 2.429688 29.085938 C 2.6875 29.824219 3.273438 30.277344 3.992188 30.5625 C 5.683594 31.234375 7.636719 30.429688 9.261719 29.757812 C 11.171875 28.957031 13.058594 28.066406 14.902344 27.109375 C 18.65625 25.179688 22.234375 22.921875 25.621094 20.425781 C 25.792969 20.296875 25.945312 20.253906 26.117188 20.253906 C 26.445312 19.949219 26.941406 19.90625 27.289062 20.210938 C 27.660156 20.511719 27.722656 21.097656 27.417969 21.46875 C 26.53125 22.445312 25.640625 23.421875 24.773438 24.417969 C 22.949219 26.4375 21.128906 28.457031 19.304688 30.472656 C 18.394531 31.496094 17.460938 32.515625 16.550781 33.535156 C 15.792969 34.378906 15.011719 35.226562 14.359375 36.160156 C 13.796875 36.984375 13.339844 37.917969 13.253906 38.914062 C 13.167969 39.785156 13.425781 40.5 13.882812 41.109375 C 14.121094 41.433594 14.316406 41.605469 14.683594 41.910156 C 15.011719 42.148438 15.25 42.300781 15.707031 42.476562 C 16.140625 42.671875 16.378906 42.734375 16.8125 42.820312 C 17.050781 42.867188 17.289062 42.910156 17.527344 42.929688 C 17.722656 42.929688 17.917969 42.953125 18.027344 42.953125 C 20.066406 42.910156 21.886719 41.867188 23.472656 40.695312 C 25.273438 39.351562 26.898438 37.808594 28.632812 36.398438 C 32.191406 33.535156 36.140625 30.929688 40.609375 29.78125 C 44.773438 28.714844 49.484375 28.976562 53.257812 31.191406 C 55.125 32.296875 56.707031 33.792969 57.769531 35.703125 C 58.8125 37.59375 59.375 39.695312 59.527344 41.824219 C 59.679688 44.082031 59.332031 46.230469 58.8125 48.421875 C 58.355469 50.289062 57.835938 52.824219 59.289062 54.324219 C 59.917969 54.972656 60.761719 55.214844 61.675781 55.125 C 62.652344 55.039062 63.496094 54.628906 64.234375 53.976562 C 65.90625 52.433594 66.578125 49.984375 66.945312 47.8125 C 67.769531 42.800781 66.835938 37.679688 67.53125 32.667969 C 68.140625 28.390625 70.179688 24.027344 74.125 21.988281 C 74.320312 21.773438 74.625 21.664062 74.929688 21.683594 C 74.972656 21.683594 74.996094 21.683594 75.039062 21.683594 C 76.859375 21.816406 78.660156 21.988281 80.460938 22.25 C 86.925781 23.140625 93.304688 24.855469 99.355469 27.304688 C 100.421875 27.738281 99.683594 29.347656 98.640625 28.933594 C 96.96875 28.261719 95.257812 27.632812 93.542969 27.066406 C 87.578125 25.113281 81.371094 23.941406 75.125 23.464844 C 74.300781 23.855469 73.519531 24.375 72.890625 25.003906 C 69.460938 28.371094 68.984375 33.359375 69.007812 37.9375 C 69.007812 40.542969 69.160156 43.167969 68.964844 45.773438 C 68.789062 48.269531 68.3125 50.894531 67.097656 53.109375 C 65.949219 55.148438 64.039062 56.882812 61.566406 56.925781 C 60.4375 56.925781 59.308594 56.644531 58.441406 55.929688 C 57.53125 55.191406 57.011719 54.105469 56.75 52.976562 C 56.207031 50.570312 57.183594 48.203125 57.574219 45.859375 C 57.921875 43.796875 57.921875 41.695312 57.445312 39.632812 C 57.011719 37.722656 56.054688 35.835938 54.667969 34.445312 C 53.234375 33.011719 51.414062 32.015625 49.484375 31.496094 C 47.398438 30.929688 45.230469 30.800781 43.105469 31.105469 C 40.914062 31.386719 38.808594 32.144531 36.835938 33.121094 C 34.773438 34.140625 32.863281 35.421875 31.042969 36.8125 C 29.199219 38.199219 27.507812 39.742188 25.726562 41.214844 C 23.992188 42.648438 22.0625 43.972656 19.847656 44.515625 C 17.984375 44.96875 15.902344 44.710938 14.230469 43.710938 C 12.429688 42.625 11.324219 40.761719 11.539062 38.613281 C 11.777344 36.289062 13.46875 34.359375 14.96875 32.6875 C 17.136719 30.277344 19.304688 27.890625 21.476562 25.484375 C 18.980469 27.046875 16.398438 28.476562 13.753906 29.757812 C 12.753906 30.234375 11.757812 30.691406 10.738281 31.148438 C 9.738281 31.582031 8.742188 32.015625 7.699219 32.320312 C 5.726562 32.863281 3.339844 32.863281 1.800781 31.300781 C 0.324219 29.824219 0.324219 27.695312 1.300781 25.9375 C 2.253906 24.222656 3.75 22.902344 5.226562 21.640625 C 7.832031 19.40625 10.714844 17.496094 13.773438 15.957031 C 12.105469 16.238281 10.433594 16.519531 8.742188 16.804688 C 6.722656 17.148438 4.359375 17.800781 2.472656 16.671875 C 1.019531 15.828125 0.257812 14.242188 0.171875 12.613281 C 0.0859375 10.964844 0.585938 9.25 1.667969 7.992188 C 2.925781 6.539062 4.683594 5.625 6.507812 5.042969 C 8.4375 4.433594 10.457031 4.109375 12.449219 3.761719 C 14.578125 3.390625 16.726562 3.042969 18.871094 2.742188 C 27.398438 1.503906 35.988281 0.789062 44.601562 0.59375 C 53.234375 0.398438 61.890625 0.722656 70.480469 1.570312 C 79.09375 2.414062 87.664062 3.78125 96.125 5.671875 C 96.601562 5.777344 96.949219 6.167969 96.863281 6.691406 Z M 96.882812 6.691406 " fill-opacity="1" fill-rule="nonzero"/></g><g clip-path="url(#e330202ce5)"><path fill="#000000" d="M 44.277344 94.730469 C 45.359375 94.316406 46.640625 93.039062 47.921875 91.386719 C 48.464844 90.800781 48.984375 90.195312 49.503906 89.523438 C 51.738281 86.699219 53.410156 83.574219 54.625 80.300781 C 58.660156 69.515625 57.898438 56.992188 56.1875 47.3125 C 56.1875 47.226562 56.207031 47.117188 56.207031 47.03125 C 56.207031 43.863281 46.078125 42.148438 36.53125 42.148438 C 26.984375 42.148438 16.964844 43.84375 16.855469 46.96875 C 12.777344 69.816406 18.285156 82.6875 23.625 89.433594 C 27.398438 94.230469 31.5625 96.683594 34.078125 97.855469 L 34.078125 135.117188 C 28.179688 135.265625 19.847656 136.003906 19.847656 138.089844 C 19.847656 140.171875 30.628906 141.082031 36.335938 141.082031 C 42.042969 141.082031 52.824219 140.453125 52.824219 138.089844 C 52.824219 135.722656 44.472656 135.265625 38.59375 135.117188 L 38.59375 98.070312 C 39.960938 97.484375 42 96.445312 44.253906 94.707031 Z M 36.554688 42.910156 C 47.703125 42.910156 55.46875 45.078125 55.46875 47.03125 C 55.46875 48.984375 55.46875 47.183594 55.425781 47.269531 C 54.796875 49.160156 47.226562 51.15625 36.554688 51.15625 C 25.878906 51.15625 20.128906 49.765625 18.089844 47.855469 C 17.789062 47.574219 17.636719 47.292969 17.636719 47.03125 C 17.636719 45.078125 25.402344 42.910156 36.554688 42.910156 Z M 17.417969 48.246094 C 17.460938 48.289062 17.503906 48.335938 17.570312 48.398438 C 19.785156 50.460938 27.570312 51.914062 36.554688 51.914062 C 45.535156 51.914062 53.277344 50.675781 55.601562 48.335938 C 56.945312 56.339844 57.097656 63.046875 56.511719 68.667969 C 36.121094 76.609375 18.71875 69.621094 16.574219 68.667969 C 15.792969 61.550781 16.398438 54.367188 17.417969 48.246094 Z M 44.253906 94.753906 C 45.339844 94.339844 46.617188 93.058594 47.898438 91.410156 C 48.441406 90.824219 48.960938 90.214844 49.484375 89.542969 C 51.71875 86.722656 53.386719 83.597656 54.601562 80.320312 C 58.636719 69.535156 57.878906 57.015625 56.164062 47.335938 C 56.164062 47.25 56.1875 47.140625 56.1875 47.054688 C 56.1875 43.886719 46.054688 42.171875 36.507812 42.171875 C 26.964844 42.171875 16.941406 43.863281 16.832031 46.988281 C 12.753906 69.839844 18.265625 82.707031 23.601562 89.457031 C 27.375 94.253906 31.542969 96.703125 34.058594 97.875 L 34.058594 135.136719 C 28.15625 135.289062 19.828125 136.027344 19.828125 138.109375 C 19.828125 140.195312 30.609375 141.105469 36.3125 141.105469 C 42.019531 141.105469 52.800781 140.476562 52.800781 138.109375 C 52.800781 135.746094 44.449219 135.289062 38.570312 135.136719 L 38.570312 98.09375 C 39.9375 97.507812 41.976562 96.464844 44.234375 94.730469 Z M 36.53125 42.929688 C 47.683594 42.929688 55.449219 45.101562 55.449219 47.054688 C 55.449219 49.007812 55.449219 47.207031 55.40625 47.292969 C 54.777344 49.179688 47.203125 51.175781 36.53125 51.175781 C 25.859375 51.175781 20.109375 49.789062 18.070312 47.878906 C 17.765625 47.597656 17.613281 47.3125 17.613281 47.054688 C 17.613281 45.101562 25.378906 42.929688 36.53125 42.929688 Z M 17.398438 48.269531 C 17.441406 48.3125 17.484375 48.355469 17.550781 48.421875 C 19.761719 50.480469 27.550781 51.9375 36.53125 51.9375 C 45.511719 51.9375 53.257812 50.699219 55.578125 48.355469 C 56.921875 56.363281 57.074219 63.070312 56.488281 68.6875 C 36.097656 76.632812 18.699219 69.644531 16.550781 68.6875 C 15.769531 61.570312 16.378906 54.386719 17.398438 48.269531 Z M 17.398438 48.269531 " fill-opacity="1" fill-rule="nonzero"/></g><g clip-path="url(#a88dd7e93e)"><path fill="#000000" d="M 96.882812 6.691406 C 96.820312 7.144531 96.339844 7.535156 95.863281 7.429688 C 94.84375 7.1875 93.824219 6.972656 92.804688 6.753906 C 84.625 5.042969 76.316406 3.824219 67.988281 3.109375 C 59.679688 2.371094 51.328125 2.132812 42.996094 2.394531 C 34.644531 2.652344 26.292969 3.390625 18.027344 4.628906 C 15.964844 4.933594 13.90625 5.28125 11.84375 5.648438 C 10.019531 5.972656 8.15625 6.277344 6.421875 6.949219 C 4.964844 7.492188 3.339844 8.425781 2.582031 9.773438 C 1.90625 10.964844 1.710938 12.441406 2.191406 13.699219 C 2.40625 14.285156 2.710938 14.742188 3.253906 15.089844 C 3.253906 15.089844 3.273438 15.089844 3.273438 15.089844 C 3.316406 15.109375 3.382812 15.152344 3.425781 15.175781 C 3.492188 15.195312 3.554688 15.242188 3.621094 15.261719 C 3.839844 15.347656 4.035156 15.414062 4.25 15.4375 C 4.707031 15.523438 5.160156 15.5 5.617188 15.457031 C 6.722656 15.347656 7.832031 15.132812 8.914062 14.9375 C 10.085938 14.742188 11.257812 14.546875 12.40625 14.351562 C 15.683594 13.785156 18.960938 13.242188 22.234375 12.679688 C 23.710938 12.289062 25.230469 11.984375 26.726562 11.746094 C 27.203125 11.679688 27.660156 12.070312 27.703125 12.527344 C 27.746094 12.875 27.570312 13.179688 27.289062 13.351562 C 27.136719 13.527344 26.921875 13.65625 26.683594 13.699219 C 25.511719 13.894531 24.339844 14.089844 23.191406 14.285156 C 23.015625 14.308594 22.820312 14.351562 22.648438 14.371094 C 20.023438 15.066406 17.484375 16 15.054688 17.195312 C 11.691406 18.820312 8.566406 20.925781 5.769531 23.398438 C 4.53125 24.484375 3.230469 25.679688 2.601562 27.152344 C 2.320312 27.785156 2.210938 28.457031 2.429688 29.085938 C 2.6875 29.824219 3.273438 30.277344 3.992188 30.5625 C 5.683594 31.234375 7.636719 30.429688 9.261719 29.757812 C 11.171875 28.957031 13.058594 28.066406 14.902344 27.109375 C 18.65625 25.179688 22.234375 22.921875 25.621094 20.425781 C 25.792969 20.296875 25.945312 20.253906 26.117188 20.253906 C 26.445312 19.949219 26.941406 19.90625 27.289062 20.210938 C 27.660156 20.511719 27.722656 21.097656 27.417969 21.46875 C 26.53125 22.445312 25.640625 23.421875 24.773438 24.417969 C 22.949219 26.4375 21.128906 28.457031 19.304688 30.472656 C 18.394531 31.496094 17.460938 32.515625 16.550781 33.535156 C 15.792969 34.378906 15.011719 35.226562 14.359375 36.160156 C 13.796875 36.984375 13.339844 37.917969 13.253906 38.914062 C 13.167969 39.785156 13.425781 40.5 13.882812 41.109375 C 14.121094 41.433594 14.316406 41.605469 14.683594 41.910156 C 15.011719 42.148438 15.25 42.300781 15.707031 42.476562 C 16.140625 42.671875 16.378906 42.734375 16.8125 42.820312 C 17.050781 42.867188 17.289062 42.910156 17.527344 42.929688 C 17.722656 42.929688 17.917969 42.953125 18.027344 42.953125 C 20.066406 42.910156 21.886719 41.867188 23.472656 40.695312 C 25.273438 39.351562 26.898438 37.808594 28.632812 36.398438 C 32.191406 33.535156 36.140625 30.929688 40.609375 29.78125 C 44.773438 28.714844 49.484375 28.976562 53.257812 31.191406 C 55.125 32.296875 56.707031 33.792969 57.769531 35.703125 C 58.8125 37.59375 59.375 39.695312 59.527344 41.824219 C 59.679688 44.082031 59.332031 46.230469 58.8125 48.421875 C 58.355469 50.289062 57.835938 52.824219 59.289062 54.324219 C 59.917969 54.972656 60.761719 55.214844 61.675781 55.125 C 62.652344 55.039062 63.496094 54.628906 64.234375 53.976562 C 65.90625 52.433594 66.578125 49.984375 66.945312 47.8125 C 67.769531 42.800781 66.835938 37.679688 67.53125 32.667969 C 68.140625 28.390625 70.179688 24.027344 74.125 21.988281 C 74.320312 21.773438 74.625 21.664062 74.929688 21.683594 C 74.972656 21.683594 74.996094 21.683594 75.039062 21.683594 C 76.859375 21.816406 78.660156 21.988281 80.460938 22.25 C 86.925781 23.140625 93.304688 24.855469 99.355469 27.304688 C 100.421875 27.738281 99.683594 29.347656 98.640625 28.933594 C 96.96875 28.261719 95.257812 27.632812 93.542969 27.066406 C 87.578125 25.113281 81.371094 23.941406 75.125 23.464844 C 74.300781 23.855469 73.519531 24.375 72.890625 25.003906 C 69.460938 28.371094 68.984375 33.359375 69.007812 37.9375 C 69.007812 40.542969 69.160156 43.167969 68.964844 45.773438 C 68.789062 48.269531 68.3125 50.894531 67.097656 53.109375 C 65.949219 55.148438 64.039062 56.882812 61.566406 56.925781 C 60.4375 56.925781 59.308594 56.644531 58.441406 55.929688 C 57.53125 55.191406 57.011719 54.105469 56.75 52.976562 C 56.207031 50.570312 57.183594 48.203125 57.574219 45.859375 C 57.921875 43.796875 57.921875 41.695312 57.445312 39.632812 C 57.011719 37.722656 56.054688 35.835938 54.667969 34.445312 C 53.234375 33.011719 51.414062 32.015625 49.484375 31.496094 C 47.398438 30.929688 45.230469 30.800781 43.105469 31.105469 C 40.914062 31.386719 38.808594 32.144531 36.835938 33.121094 C 34.773438 34.140625 32.863281 35.421875 31.042969 36.8125 C 29.199219 38.199219 27.507812 39.742188 25.726562 41.214844 C 23.992188 42.648438 22.0625 43.972656 19.847656 44.515625 C 17.984375 44.96875 15.902344 44.710938 14.230469 43.710938 C 12.429688 42.625 11.324219 40.761719 11.539062 38.613281 C 11.777344 36.289062 13.46875 34.359375 14.96875 32.6875 C 17.136719 30.277344 19.304688 27.890625 21.476562 25.484375 C 18.980469 27.046875 16.398438 28.476562 13.753906 29.757812 C 12.753906 30.234375 11.757812 30.691406 10.738281 31.148438 C 9.738281 31.582031 8.742188 32.015625 7.699219 32.320312 C 5.726562 32.863281 3.339844 32.863281 1.800781 31.300781 C 0.324219 29.824219 0.324219 27.695312 1.300781 25.9375 C 2.253906 24.222656 3.75 22.902344 5.226562 21.640625 C 7.832031 19.40625 10.714844 17.496094 13.773438 15.957031 C 12.105469 16.238281 10.433594 16.519531 8.742188 16.804688 C 6.722656 17.148438 4.359375 17.800781 2.472656 16.671875 C 1.019531 15.828125 0.257812 14.242188 0.171875 12.613281 C 0.0859375 10.964844 0.585938 9.25 1.667969 7.992188 C 2.925781 6.539062 4.683594 5.625 6.507812 5.042969 C 8.4375 4.433594 10.457031 4.109375 12.449219 3.761719 C 14.578125 3.390625 16.726562 3.042969 18.871094 2.742188 C 27.398438 1.503906 35.988281 0.789062 44.601562 0.59375 C 53.234375 0.398438 61.890625 0.722656 70.480469 1.570312 C 79.09375 2.414062 87.664062 3.78125 96.125 5.671875 C 96.601562 5.777344 96.949219 6.167969 96.863281 6.691406 Z M 96.882812 6.691406 " fill-opacity="1" fill-rule="nonzero"/></g></svg>