<svg xmlns="http://www.w3.org/2000/svg" xmlns:xlink="http://www.w3.org/1999/xlink" width="108" zoomAndPan="magnify" viewBox="0 0 81 80.999996" height="108" preserveAspectRatio="xMidYMid meet" version="1.0"><defs><clipPath id="17d65cfd61"><path d="M 34 5 L 81 5 L 81 58 L 34 58 Z M 34 5 " clip-rule="nonzero"/></clipPath><clipPath id="5b5c2f50c3"><path d="M 0 38.460938 L 40.972656 -0.078125 L 81.054688 42.535156 L 40.078125 81.074219 Z M 0 38.460938 " clip-rule="nonzero"/></clipPath><clipPath id="58e556bf06"><path d="M 0 38.460938 L 40.972656 -0.078125 L 81.054688 42.535156 L 40.078125 81.074219 Z M 0 38.460938 " clip-rule="nonzero"/></clipPath><clipPath id="18a558699c"><path d="M 0 38.460938 L 40.972656 -0.078125 L 81.054688 42.535156 L 40.078125 81.074219 Z M 0 38.460938 " clip-rule="nonzero"/></clipPath><clipPath id="da74cdb52d"><path d="M 34 5 L 54 5 L 54 25 L 34 25 Z M 34 5 " clip-rule="nonzero"/></clipPath><clipPath id="732a2d42d5"><path d="M 0 38.460938 L 40.972656 -0.078125 L 81.054688 42.535156 L 40.078125 81.074219 Z M 0 38.460938 " clip-rule="nonzero"/></clipPath><clipPath id="ac02ab1745"><path d="M 0 38.460938 L 40.972656 -0.078125 L 81.054688 42.535156 L 40.078125 81.074219 Z M 0 38.460938 " clip-rule="nonzero"/></clipPath><clipPath id="31061fce42"><path d="M 0 38.460938 L 40.972656 -0.078125 L 81.054688 42.535156 L 40.078125 81.074219 Z M 0 38.460938 " clip-rule="nonzero"/></clipPath><clipPath id="952e596101"><path d="M 22 13 L 45 13 L 45 28 L 22 28 Z M 22 13 " clip-rule="nonzero"/></clipPath><clipPath id="b432006519"><path d="M 0 38.460938 L 40.972656 -0.078125 L 81.054688 42.535156 L 40.078125 81.074219 Z M 0 38.460938 " clip-rule="nonzero"/></clipPath><clipPath id="a7fef447c5"><path d="M 0 38.460938 L 40.972656 -0.078125 L 81.054688 42.535156 L 40.078125 81.074219 Z M 0 38.460938 " clip-rule="nonzero"/></clipPath><clipPath id="f4d326ee7e"><path d="M 0 38.460938 L 40.972656 -0.078125 L 81.054688 42.535156 L 40.078125 81.074219 Z M 0 38.460938 " clip-rule="nonzero"/></clipPath><clipPath id="b502bf61ac"><path d="M 23 6 L 40 6 L 40 21 L 23 21 Z M 23 6 " clip-rule="nonzero"/></clipPath><clipPath id="7f3f175fbc"><path d="M 0 38.460938 L 40.972656 -0.078125 L 81.054688 42.535156 L 40.078125 81.074219 Z M 0 38.460938 " clip-rule="nonzero"/></clipPath><clipPath id="43da86e5b3"><path d="M 0 38.460938 L 40.972656 -0.078125 L 81.054688 42.535156 L 40.078125 81.074219 Z M 0 38.460938 " clip-rule="nonzero"/></clipPath><clipPath id="60d141467d"><path d="M 0 38.460938 L 40.972656 -0.078125 L 81.054688 42.535156 L 40.078125 81.074219 Z M 0 38.460938 " clip-rule="nonzero"/></clipPath><clipPath id="3f61c78b73"><path d="M 28 3 L 42 3 L 42 19 L 28 19 Z M 28 3 " clip-rule="nonzero"/></clipPath><clipPath id="144eb0c665"><path d="M 0 38.460938 L 40.972656 -0.078125 L 81.054688 42.535156 L 40.078125 81.074219 Z M 0 38.460938 " clip-rule="nonzero"/></clipPath><clipPath id="c1edc5c21b"><path d="M 0 38.460938 L 40.972656 -0.078125 L 81.054688 42.535156 L 40.078125 81.074219 Z M 0 38.460938 " clip-rule="nonzero"/></clipPath><clipPath id="c84a997439"><path d="M 0 38.460938 L 40.972656 -0.078125 L 81.054688 42.535156 L 40.078125 81.074219 Z M 0 38.460938 " clip-rule="nonzero"/></clipPath><clipPath id="3804a7333e"><path d="M 32 2 L 46 2 L 46 19 L 32 19 Z M 32 2 " clip-rule="nonzero"/></clipPath><clipPath id="c406dad063"><path d="M 0 38.460938 L 40.972656 -0.078125 L 81.054688 42.535156 L 40.078125 81.074219 Z M 0 38.460938 " clip-rule="nonzero"/></clipPath><clipPath id="81996b908b"><path d="M 0 38.460938 L 40.972656 -0.078125 L 81.054688 42.535156 L 40.078125 81.074219 Z M 0 38.460938 " clip-rule="nonzero"/></clipPath><clipPath id="32eee5aff4"><path d="M 0 38.460938 L 40.972656 -0.078125 L 81.054688 42.535156 L 40.078125 81.074219 Z M 0 38.460938 " clip-rule="nonzero"/></clipPath><clipPath id="3fc94d9b15"><path d="M 26 17 L 59 17 L 59 38 L 26 38 Z M 26 17 " clip-rule="nonzero"/></clipPath><clipPath id="1e38db7ede"><path d="M 0 38.460938 L 40.972656 -0.078125 L 81.054688 42.535156 L 40.078125 81.074219 Z M 0 38.460938 " clip-rule="nonzero"/></clipPath><clipPath id="a6fcc448d2"><path d="M 0 38.460938 L 40.972656 -0.078125 L 81.054688 42.535156 L 40.078125 81.074219 Z M 0 38.460938 " clip-rule="nonzero"/></clipPath><clipPath id="297f8a2c94"><path d="M 0 38.460938 L 40.972656 -0.078125 L 81.054688 42.535156 L 40.078125 81.074219 Z M 0 38.460938 " clip-rule="nonzero"/></clipPath><clipPath id="eece8353fb"><path d="M 20 57 L 32 57 L 32 72 L 20 72 Z M 20 57 " clip-rule="nonzero"/></clipPath><clipPath id="cf3a8a3b24"><path d="M 0 38.460938 L 40.972656 -0.078125 L 81.054688 42.535156 L 40.078125 81.074219 Z M 0 38.460938 " clip-rule="nonzero"/></clipPath><clipPath id="c74c8a2995"><path d="M 0 38.460938 L 40.972656 -0.078125 L 81.054688 42.535156 L 40.078125 81.074219 Z M 0 38.460938 " clip-rule="nonzero"/></clipPath><clipPath id="55515bd7a7"><path d="M 0 38.460938 L 40.972656 -0.078125 L 81.054688 42.535156 L 40.078125 81.074219 Z M 0 38.460938 " clip-rule="nonzero"/></clipPath><clipPath id="a11231cf13"><path d="M 20 35 L 40 35 L 40 65 L 20 65 Z M 20 35 " clip-rule="nonzero"/></clipPath><clipPath id="683645f377"><path d="M 0 38.460938 L 40.972656 -0.078125 L 81.054688 42.535156 L 40.078125 81.074219 Z M 0 38.460938 " clip-rule="nonzero"/></clipPath><clipPath id="21678eefa9"><path d="M 0 38.460938 L 40.972656 -0.078125 L 81.054688 42.535156 L 40.078125 81.074219 Z M 0 38.460938 " clip-rule="nonzero"/></clipPath><clipPath id="867fb21b91"><path d="M 0 38.460938 L 40.972656 -0.078125 L 81.054688 42.535156 L 40.078125 81.074219 Z M 0 38.460938 " clip-rule="nonzero"/></clipPath><clipPath id="c3ff18c73c"><path d="M 27 35 L 46 35 L 46 52 L 27 52 Z M 27 35 " clip-rule="nonzero"/></clipPath><clipPath id="c0951646ea"><path d="M 0 38.460938 L 40.972656 -0.078125 L 81.054688 42.535156 L 40.078125 81.074219 Z M 0 38.460938 " clip-rule="nonzero"/></clipPath><clipPath id="0cb40be131"><path d="M 0 38.460938 L 40.972656 -0.078125 L 81.054688 42.535156 L 40.078125 81.074219 Z M 0 38.460938 " clip-rule="nonzero"/></clipPath><clipPath id="dcfdc5b5b3"><path d="M 0 38.460938 L 40.972656 -0.078125 L 81.054688 42.535156 L 40.078125 81.074219 Z M 0 38.460938 " clip-rule="nonzero"/></clipPath><clipPath id="79719fe63e"><path d="M 29 37 L 48 37 L 48 54 L 29 54 Z M 29 37 " clip-rule="nonzero"/></clipPath><clipPath id="5c94d6d655"><path d="M 0 38.460938 L 40.972656 -0.078125 L 81.054688 42.535156 L 40.078125 81.074219 Z M 0 38.460938 " clip-rule="nonzero"/></clipPath><clipPath id="71de872829"><path d="M 0 38.460938 L 40.972656 -0.078125 L 81.054688 42.535156 L 40.078125 81.074219 Z M 0 38.460938 " clip-rule="nonzero"/></clipPath><clipPath id="14ccd56713"><path d="M 0 38.460938 L 40.972656 -0.078125 L 81.054688 42.535156 L 40.078125 81.074219 Z M 0 38.460938 " clip-rule="nonzero"/></clipPath><clipPath id="603143f200"><path d="M 29 42 L 48 42 L 48 58 L 29 58 Z M 29 42 " clip-rule="nonzero"/></clipPath><clipPath id="2436e5c491"><path d="M 0 38.460938 L 40.972656 -0.078125 L 81.054688 42.535156 L 40.078125 81.074219 Z M 0 38.460938 " clip-rule="nonzero"/></clipPath><clipPath id="1d3f883ec4"><path d="M 0 38.460938 L 40.972656 -0.078125 L 81.054688 42.535156 L 40.078125 81.074219 Z M 0 38.460938 " clip-rule="nonzero"/></clipPath><clipPath id="cc56fb8e25"><path d="M 0 38.460938 L 40.972656 -0.078125 L 81.054688 42.535156 L 40.078125 81.074219 Z M 0 38.460938 " clip-rule="nonzero"/></clipPath><clipPath id="9ae39da269"><path d="M 28 46 L 47 46 L 47 61 L 28 61 Z M 28 46 " clip-rule="nonzero"/></clipPath><clipPath id="3d3c48092d"><path d="M 0 38.460938 L 40.972656 -0.078125 L 81.054688 42.535156 L 40.078125 81.074219 Z M 0 38.460938 " clip-rule="nonzero"/></clipPath><clipPath id="f3cec1589f"><path d="M 0 38.460938 L 40.972656 -0.078125 L 81.054688 42.535156 L 40.078125 81.074219 Z M 0 38.460938 " clip-rule="nonzero"/></clipPath><clipPath id="97e6789aea"><path d="M 0 38.460938 L 40.972656 -0.078125 L 81.054688 42.535156 L 40.078125 81.074219 Z M 0 38.460938 " clip-rule="nonzero"/></clipPath><clipPath id="5fa475f8e1"><path d="M 30 49 L 43 49 L 43 64 L 30 64 Z M 30 49 " clip-rule="nonzero"/></clipPath><clipPath id="fc1c4fdda3"><path d="M 0 38.460938 L 40.972656 -0.078125 L 81.054688 42.535156 L 40.078125 81.074219 Z M 0 38.460938 " clip-rule="nonzero"/></clipPath><clipPath id="f86220bdec"><path d="M 0 38.460938 L 40.972656 -0.078125 L 81.054688 42.535156 L 40.078125 81.074219 Z M 0 38.460938 " clip-rule="nonzero"/></clipPath><clipPath id="3071bab2c1"><path d="M 0 38.460938 L 40.972656 -0.078125 L 81.054688 42.535156 L 40.078125 81.074219 Z M 0 38.460938 " clip-rule="nonzero"/></clipPath><clipPath id="89d4b884a0"><path d="M 28 57 L 42 57 L 42 76 L 28 76 Z M 28 57 " clip-rule="nonzero"/></clipPath><clipPath id="cb3c608603"><path d="M 0 38.460938 L 40.972656 -0.078125 L 81.054688 42.535156 L 40.078125 81.074219 Z M 0 38.460938 " clip-rule="nonzero"/></clipPath><clipPath id="d1de052c36"><path d="M 0 38.460938 L 40.972656 -0.078125 L 81.054688 42.535156 L 40.078125 81.074219 Z M 0 38.460938 " clip-rule="nonzero"/></clipPath><clipPath id="2a44da9401"><path d="M 0 38.460938 L 40.972656 -0.078125 L 81.054688 42.535156 L 40.078125 81.074219 Z M 0 38.460938 " clip-rule="nonzero"/></clipPath><clipPath id="4be463e3ff"><path d="M 18 38 L 48 38 L 48 69 L 18 69 Z M 18 38 " clip-rule="nonzero"/></clipPath><clipPath id="9fd0365955"><path d="M 0 38.460938 L 40.972656 -0.078125 L 81.054688 42.535156 L 40.078125 81.074219 Z M 0 38.460938 " clip-rule="nonzero"/></clipPath><clipPath id="569025e1b4"><path d="M 0 38.460938 L 40.972656 -0.078125 L 81.054688 42.535156 L 40.078125 81.074219 Z M 0 38.460938 " clip-rule="nonzero"/></clipPath><clipPath id="0971bb04ad"><path d="M 0 38.460938 L 40.972656 -0.078125 L 81.054688 42.535156 L 40.078125 81.074219 Z M 0 38.460938 " clip-rule="nonzero"/></clipPath><clipPath id="6ce962372b"><path d="M 19 13 L 48 13 L 48 49 L 19 49 Z M 19 13 " clip-rule="nonzero"/></clipPath><clipPath id="fed183c0d2"><path d="M 0 38.460938 L 40.972656 -0.078125 L 81.054688 42.535156 L 40.078125 81.074219 Z M 0 38.460938 " clip-rule="nonzero"/></clipPath><clipPath id="4ee541e1ab"><path d="M 0 38.460938 L 40.972656 -0.078125 L 81.054688 42.535156 L 40.078125 81.074219 Z M 0 38.460938 " clip-rule="nonzero"/></clipPath><clipPath id="0ced808a5d"><path d="M 0 38.460938 L 40.972656 -0.078125 L 81.054688 42.535156 L 40.078125 81.074219 Z M 0 38.460938 " clip-rule="nonzero"/></clipPath><clipPath id="09d1a3c9ca"><path d="M 34 5 L 81 5 L 81 58 L 34 58 Z M 34 5 " clip-rule="nonzero"/></clipPath><clipPath id="17eaac65b0"><path d="M 0 38.460938 L 40.972656 -0.078125 L 81.054688 42.535156 L 40.078125 81.074219 Z M 0 38.460938 " clip-rule="nonzero"/></clipPath><clipPath id="fbbb7bfa21"><path d="M 0 38.460938 L 40.972656 -0.078125 L 81.054688 42.535156 L 40.078125 81.074219 Z M 0 38.460938 " clip-rule="nonzero"/></clipPath><clipPath id="ddd40f22d8"><path d="M 0 38.460938 L 40.972656 -0.078125 L 81.054688 42.535156 L 40.078125 81.074219 Z M 0 38.460938 " clip-rule="nonzero"/></clipPath><clipPath id="14305cc9a8"><path d="M 34 5 L 54 5 L 54 25 L 34 25 Z M 34 5 " clip-rule="nonzero"/></clipPath><clipPath id="89371b2d54"><path d="M 0 38.460938 L 40.972656 -0.078125 L 81.054688 42.535156 L 40.078125 81.074219 Z M 0 38.460938 " clip-rule="nonzero"/></clipPath><clipPath id="84837f8d2d"><path d="M 0 38.460938 L 40.972656 -0.078125 L 81.054688 42.535156 L 40.078125 81.074219 Z M 0 38.460938 " clip-rule="nonzero"/></clipPath><clipPath id="d3890c32ba"><path d="M 0 38.460938 L 40.972656 -0.078125 L 81.054688 42.535156 L 40.078125 81.074219 Z M 0 38.460938 " clip-rule="nonzero"/></clipPath><clipPath id="280d8d33bd"><path d="M 22 13 L 45 13 L 45 28 L 22 28 Z M 22 13 " clip-rule="nonzero"/></clipPath><clipPath id="5abacaac66"><path d="M 0 38.460938 L 40.972656 -0.078125 L 81.054688 42.535156 L 40.078125 81.074219 Z M 0 38.460938 " clip-rule="nonzero"/></clipPath><clipPath id="5c989a3055"><path d="M 0 38.460938 L 40.972656 -0.078125 L 81.054688 42.535156 L 40.078125 81.074219 Z M 0 38.460938 " clip-rule="nonzero"/></clipPath><clipPath id="ca0015ec2e"><path d="M 0 38.460938 L 40.972656 -0.078125 L 81.054688 42.535156 L 40.078125 81.074219 Z M 0 38.460938 " clip-rule="nonzero"/></clipPath><clipPath id="c8da252edb"><path d="M 23 6 L 40 6 L 40 21 L 23 21 Z M 23 6 " clip-rule="nonzero"/></clipPath><clipPath id="85bdc80540"><path d="M 0 38.460938 L 40.972656 -0.078125 L 81.054688 42.535156 L 40.078125 81.074219 Z M 0 38.460938 " clip-rule="nonzero"/></clipPath><clipPath id="856f905b92"><path d="M 0 38.460938 L 40.972656 -0.078125 L 81.054688 42.535156 L 40.078125 81.074219 Z M 0 38.460938 " clip-rule="nonzero"/></clipPath><clipPath id="53347e3172"><path d="M 0 38.460938 L 40.972656 -0.078125 L 81.054688 42.535156 L 40.078125 81.074219 Z M 0 38.460938 " clip-rule="nonzero"/></clipPath><clipPath id="3f10fac8d5"><path d="M 28 3 L 42 3 L 42 19 L 28 19 Z M 28 3 " clip-rule="nonzero"/></clipPath><clipPath id="1b256cd089"><path d="M 0 38.460938 L 40.972656 -0.078125 L 81.054688 42.535156 L 40.078125 81.074219 Z M 0 38.460938 " clip-rule="nonzero"/></clipPath><clipPath id="4886d060cf"><path d="M 0 38.460938 L 40.972656 -0.078125 L 81.054688 42.535156 L 40.078125 81.074219 Z M 0 38.460938 " clip-rule="nonzero"/></clipPath><clipPath id="cce9ecab73"><path d="M 0 38.460938 L 40.972656 -0.078125 L 81.054688 42.535156 L 40.078125 81.074219 Z M 0 38.460938 " clip-rule="nonzero"/></clipPath><clipPath id="fd5b476cec"><path d="M 32 2 L 46 2 L 46 19 L 32 19 Z M 32 2 " clip-rule="nonzero"/></clipPath><clipPath id="7374600bd1"><path d="M 0 38.460938 L 40.972656 -0.078125 L 81.054688 42.535156 L 40.078125 81.074219 Z M 0 38.460938 " clip-rule="nonzero"/></clipPath><clipPath id="109210b1ae"><path d="M 0 38.460938 L 40.972656 -0.078125 L 81.054688 42.535156 L 40.078125 81.074219 Z M 0 38.460938 " clip-rule="nonzero"/></clipPath><clipPath id="3dcf03e772"><path d="M 0 38.460938 L 40.972656 -0.078125 L 81.054688 42.535156 L 40.078125 81.074219 Z M 0 38.460938 " clip-rule="nonzero"/></clipPath><clipPath id="08cd39f528"><path d="M 26 17 L 59 17 L 59 38 L 26 38 Z M 26 17 " clip-rule="nonzero"/></clipPath><clipPath id="825d6e01bf"><path d="M 0 38.460938 L 40.972656 -0.078125 L 81.054688 42.535156 L 40.078125 81.074219 Z M 0 38.460938 " clip-rule="nonzero"/></clipPath><clipPath id="1b96da7a76"><path d="M 0 38.460938 L 40.972656 -0.078125 L 81.054688 42.535156 L 40.078125 81.074219 Z M 0 38.460938 " clip-rule="nonzero"/></clipPath><clipPath id="bfcec9e212"><path d="M 0 38.460938 L 40.972656 -0.078125 L 81.054688 42.535156 L 40.078125 81.074219 Z M 0 38.460938 " clip-rule="nonzero"/></clipPath><clipPath id="b263b4b634"><path d="M 20 57 L 32 57 L 32 72 L 20 72 Z M 20 57 " clip-rule="nonzero"/></clipPath><clipPath id="5d31d77d5b"><path d="M 0 38.460938 L 40.972656 -0.078125 L 81.054688 42.535156 L 40.078125 81.074219 Z M 0 38.460938 " clip-rule="nonzero"/></clipPath><clipPath id="2149e43773"><path d="M 0 38.460938 L 40.972656 -0.078125 L 81.054688 42.535156 L 40.078125 81.074219 Z M 0 38.460938 " clip-rule="nonzero"/></clipPath><clipPath id="d13d0d9765"><path d="M 0 38.460938 L 40.972656 -0.078125 L 81.054688 42.535156 L 40.078125 81.074219 Z M 0 38.460938 " clip-rule="nonzero"/></clipPath><clipPath id="24c860530a"><path d="M 20 35 L 40 35 L 40 65 L 20 65 Z M 20 35 " clip-rule="nonzero"/></clipPath><clipPath id="39b680833d"><path d="M 0 38.460938 L 40.972656 -0.078125 L 81.054688 42.535156 L 40.078125 81.074219 Z M 0 38.460938 " clip-rule="nonzero"/></clipPath><clipPath id="9944e1a2e2"><path d="M 0 38.460938 L 40.972656 -0.078125 L 81.054688 42.535156 L 40.078125 81.074219 Z M 0 38.460938 " clip-rule="nonzero"/></clipPath><clipPath id="5999ed8e0d"><path d="M 0 38.460938 L 40.972656 -0.078125 L 81.054688 42.535156 L 40.078125 81.074219 Z M 0 38.460938 " clip-rule="nonzero"/></clipPath><clipPath id="40d858891b"><path d="M 27 35 L 46 35 L 46 52 L 27 52 Z M 27 35 " clip-rule="nonzero"/></clipPath><clipPath id="4c1ec4267a"><path d="M 0 38.460938 L 40.972656 -0.078125 L 81.054688 42.535156 L 40.078125 81.074219 Z M 0 38.460938 " clip-rule="nonzero"/></clipPath><clipPath id="abde21192d"><path d="M 0 38.460938 L 40.972656 -0.078125 L 81.054688 42.535156 L 40.078125 81.074219 Z M 0 38.460938 " clip-rule="nonzero"/></clipPath><clipPath id="fa7a9a031e"><path d="M 0 38.460938 L 40.972656 -0.078125 L 81.054688 42.535156 L 40.078125 81.074219 Z M 0 38.460938 " clip-rule="nonzero"/></clipPath><clipPath id="023e74022e"><path d="M 29 37 L 48 37 L 48 54 L 29 54 Z M 29 37 " clip-rule="nonzero"/></clipPath><clipPath id="08ef4ca51a"><path d="M 0 38.460938 L 40.972656 -0.078125 L 81.054688 42.535156 L 40.078125 81.074219 Z M 0 38.460938 " clip-rule="nonzero"/></clipPath><clipPath id="3de3c9a43c"><path d="M 0 38.460938 L 40.972656 -0.078125 L 81.054688 42.535156 L 40.078125 81.074219 Z M 0 38.460938 " clip-rule="nonzero"/></clipPath><clipPath id="a258f1c414"><path d="M 0 38.460938 L 40.972656 -0.078125 L 81.054688 42.535156 L 40.078125 81.074219 Z M 0 38.460938 " clip-rule="nonzero"/></clipPath><clipPath id="eb7c3c1343"><path d="M 29 42 L 48 42 L 48 58 L 29 58 Z M 29 42 " clip-rule="nonzero"/></clipPath><clipPath id="256663bf23"><path d="M 0 38.460938 L 40.972656 -0.078125 L 81.054688 42.535156 L 40.078125 81.074219 Z M 0 38.460938 " clip-rule="nonzero"/></clipPath><clipPath id="798c0d1fe0"><path d="M 0 38.460938 L 40.972656 -0.078125 L 81.054688 42.535156 L 40.078125 81.074219 Z M 0 38.460938 " clip-rule="nonzero"/></clipPath><clipPath id="efc7bfdc23"><path d="M 0 38.460938 L 40.972656 -0.078125 L 81.054688 42.535156 L 40.078125 81.074219 Z M 0 38.460938 " clip-rule="nonzero"/></clipPath><clipPath id="37907d8d99"><path d="M 28 46 L 47 46 L 47 61 L 28 61 Z M 28 46 " clip-rule="nonzero"/></clipPath><clipPath id="4f0b688713"><path d="M 0 38.460938 L 40.972656 -0.078125 L 81.054688 42.535156 L 40.078125 81.074219 Z M 0 38.460938 " clip-rule="nonzero"/></clipPath><clipPath id="f14a1411ca"><path d="M 0 38.460938 L 40.972656 -0.078125 L 81.054688 42.535156 L 40.078125 81.074219 Z M 0 38.460938 " clip-rule="nonzero"/></clipPath><clipPath id="64390c07f5"><path d="M 0 38.460938 L 40.972656 -0.078125 L 81.054688 42.535156 L 40.078125 81.074219 Z M 0 38.460938 " clip-rule="nonzero"/></clipPath><clipPath id="254063f93f"><path d="M 30 49 L 43 49 L 43 64 L 30 64 Z M 30 49 " clip-rule="nonzero"/></clipPath><clipPath id="aed01606f2"><path d="M 0 38.460938 L 40.972656 -0.078125 L 81.054688 42.535156 L 40.078125 81.074219 Z M 0 38.460938 " clip-rule="nonzero"/></clipPath><clipPath id="cd3a93f09c"><path d="M 0 38.460938 L 40.972656 -0.078125 L 81.054688 42.535156 L 40.078125 81.074219 Z M 0 38.460938 " clip-rule="nonzero"/></clipPath><clipPath id="6cf601ca66"><path d="M 0 38.460938 L 40.972656 -0.078125 L 81.054688 42.535156 L 40.078125 81.074219 Z M 0 38.460938 " clip-rule="nonzero"/></clipPath><clipPath id="703db80b6b"><path d="M 28 57 L 42 57 L 42 76 L 28 76 Z M 28 57 " clip-rule="nonzero"/></clipPath><clipPath id="2986e2a675"><path d="M 0 38.460938 L 40.972656 -0.078125 L 81.054688 42.535156 L 40.078125 81.074219 Z M 0 38.460938 " clip-rule="nonzero"/></clipPath><clipPath id="90f7389ed3"><path d="M 0 38.460938 L 40.972656 -0.078125 L 81.054688 42.535156 L 40.078125 81.074219 Z M 0 38.460938 " clip-rule="nonzero"/></clipPath><clipPath id="343d864548"><path d="M 0 38.460938 L 40.972656 -0.078125 L 81.054688 42.535156 L 40.078125 81.074219 Z M 0 38.460938 " clip-rule="nonzero"/></clipPath><clipPath id="757d2694ac"><path d="M 18 38 L 48 38 L 48 69 L 18 69 Z M 18 38 " clip-rule="nonzero"/></clipPath><clipPath id="b8ac0d1749"><path d="M 0 38.460938 L 40.972656 -0.078125 L 81.054688 42.535156 L 40.078125 81.074219 Z M 0 38.460938 " clip-rule="nonzero"/></clipPath><clipPath id="fd14907c0a"><path d="M 0 38.460938 L 40.972656 -0.078125 L 81.054688 42.535156 L 40.078125 81.074219 Z M 0 38.460938 " clip-rule="nonzero"/></clipPath><clipPath id="a2b0a58fe6"><path d="M 0 38.460938 L 40.972656 -0.078125 L 81.054688 42.535156 L 40.078125 81.074219 Z M 0 38.460938 " clip-rule="nonzero"/></clipPath><clipPath id="7d8ccff0e1"><path d="M 19 13 L 48 13 L 48 49 L 19 49 Z M 19 13 " clip-rule="nonzero"/></clipPath><clipPath id="f33d0ab39f"><path d="M 0 38.460938 L 40.972656 -0.078125 L 81.054688 42.535156 L 40.078125 81.074219 Z M 0 38.460938 " clip-rule="nonzero"/></clipPath><clipPath id="d8021a6e26"><path d="M 0 38.460938 L 40.972656 -0.078125 L 81.054688 42.535156 L 40.078125 81.074219 Z M 0 38.460938 " clip-rule="nonzero"/></clipPath><clipPath id="46470f80f5"><path d="M 0 38.460938 L 40.972656 -0.078125 L 81.054688 42.535156 L 40.078125 81.074219 Z M 0 38.460938 " clip-rule="nonzero"/></clipPath></defs><g clip-path="url(#17d65cfd61)"><g clip-path="url(#5b5c2f50c3)"><g clip-path="url(#58e556bf06)"><g clip-path="url(#18a558699c)"><path stroke-linecap="butt" transform="matrix(0.141961, -0.133515, 0.134043, 0.142521, 0.0298004, 38.458377)" fill="none" stroke-linejoin="miter" d="M 247.097594 218.399774 C 244.504447 179.298383 259.303403 174.99055 275.112171 156.499414 C 281.802977 148.597396 285.809101 138.701101 286.399582 128.400639 C 287.503158 109.892462 283.502918 90.49495 278.401815 73.108446 C 274.19725 58.590029 248.3879 63.601319 236.295499 61.399982 C 209.911653 56.499491 213.80257 75.109385 209.602135 93.895747 C 205.601976 110.896342 198.495734 128.796868 202.398315 146.403586 C 213.289912 181.000176 241.300519 158.59125 240.793508 207.999121 C 244.498647 285.992899 255.496107 258.609189 210.705607 287.307334 C 207.910655 289.101715 208.712433 293.498111 211.992488 294.104158 C 212.590963 294.198876 213.104439 294.296189 213.391247 294.400425 C 234.599014 295.603068 259.804648 302.305065 278.49288 290.293759 C 286.006721 283.793154 266.700014 275.71046 262.702644 271.609388 C 253.400725 264.704218 250.095469 253.604647 249.501697 242.605889 C 248.700573 230.398781 247.895243 230.493995 247.097594 218.399774 Z M 247.097594 218.399774 " stroke="#000000" stroke-width="2" stroke-opacity="1" stroke-miterlimit="10"/></g></g></g></g><g clip-path="url(#da74cdb52d)"><g clip-path="url(#732a2d42d5)"><g clip-path="url(#ac02ab1745)"><g clip-path="url(#31061fce42)"><path stroke-linecap="butt" transform="matrix(0.141961, -0.133515, 0.134043, 0.142521, 0.0298004, 38.458377)" fill="none" stroke-linejoin="miter" d="M 217.107142 64.994402 C 222.09494 70.40703 227.300885 75.99661 234.29154 78.297245 C 237.70317 79.492491 241.299938 79.792257 244.901753 79.795261 C 256.294545 79.9982 268.701131 77.204094 275.800268 68.286787 " stroke="#000000" stroke-width="2" stroke-opacity="1" stroke-miterlimit="10"/></g></g></g></g><g clip-path="url(#952e596101)"><g clip-path="url(#b432006519)"><g clip-path="url(#a7fef447c5)"><g clip-path="url(#f4d326ee7e)"><path stroke-linecap="butt" transform="matrix(0.141961, -0.133515, 0.134043, 0.142521, 0.0298004, 38.458377)" fill="none" stroke-linejoin="miter" d="M 169.50367 30.403084 C 170.996878 47.589031 183.998154 63.194744 200.588741 67.801078 C 202.203041 68.189632 203.803609 68.59273 205.499269 68.399707 C 208.790987 68.002578 211.49643 65.603589 213.903937 63.199575 " stroke="#000000" stroke-width="2" stroke-opacity="1" stroke-miterlimit="10"/></g></g></g></g><g clip-path="url(#b502bf61ac)"><g clip-path="url(#7f3f175fbc)"><g clip-path="url(#43da86e5b3)"><g clip-path="url(#60d141467d)"><path stroke-linecap="round" transform="matrix(0.141961, -0.133515, 0.134043, 0.142521, 0.0298004, 38.458377)" fill="none" stroke-linejoin="miter" d="M 209.004417 28.405879 C 207.509686 19.002422 204.900565 9.788363 201.000269 1.00921 " stroke="#000000" stroke-width="2" stroke-opacity="1" stroke-miterlimit="10"/></g></g></g></g><g clip-path="url(#3f61c78b73)"><g clip-path="url(#144eb0c665)"><g clip-path="url(#c1edc5c21b)"><g clip-path="url(#c84a997439)"><path stroke-linecap="round" transform="matrix(0.141961, -0.133515, 0.134043, 0.142521, 0.0298004, 38.458377)" fill="none" stroke-linejoin="miter" d="M 222.902337 30.297844 C 224.608703 24.002832 227.200353 17.906773 230.502241 12.311622 " stroke="#000000" stroke-width="2" stroke-opacity="1" stroke-miterlimit="10"/></g></g></g></g><g clip-path="url(#3804a7333e)"><g clip-path="url(#c406dad063)"><g clip-path="url(#81996b908b)"><g clip-path="url(#32eee5aff4)"><path stroke-linecap="round" transform="matrix(0.141961, -0.133515, 0.134043, 0.142521, 0.0298004, 38.458377)" fill="none" stroke-linejoin="miter" d="M 230.793872 35.607675 C 239.20512 32.003378 247.99529 29.19259 256.997859 27.293391 " stroke="#000000" stroke-width="2" stroke-opacity="1" stroke-miterlimit="10"/></g></g></g></g><g clip-path="url(#3fc94d9b15)"><g clip-path="url(#1e38db7ede)"><g clip-path="url(#a6fcc448d2)"><g clip-path="url(#297f8a2c94)"><path fill="#000000" d="M 26.605469 31.242188 C 27.722656 29.414062 31.792969 30.046875 33.285156 30.496094 C 36.050781 31.332031 37.527344 26.101562 40.234375 27.074219 C 40.601562 28.316406 40.042969 30.9375 39.496094 32.09375 C 38.953125 33.25 38.09375 34.242188 37.199219 35.167969 C 35.972656 36.425781 34.542969 37.664062 32.78125 37.898438 C 30.566406 38.183594 27.851562 36.894531 26.945312 34.847656 C 26.167969 33.054688 26.15625 31.988281 26.605469 31.242188 Z M 49.992188 31.21875 C 52.207031 31.984375 54.765625 30.945312 56.621094 29.363281 C 57.074219 28.964844 57.515625 28.550781 57.832031 28.035156 C 58.816406 26.492188 58.664062 24.566406 58.4375 22.792969 C 58.347656 22.070312 58.246094 21.335938 57.933594 20.660156 C 57.671875 20.128906 57.300781 19.675781 56.910156 19.234375 C 56.523438 18.765625 56.097656 18.28125 55.507812 18.054688 C 54.933594 17.84375 54.140625 17.996094 53.835938 18.550781 C 53.601562 18.988281 53.726562 19.515625 53.710938 19.984375 C 53.675781 21.199219 52.792969 22.222656 51.949219 23.148438 C 50.953125 24.246094 49.925781 25.347656 48.710938 26.21875 C 47.667969 26.957031 45.847656 27.4375 46.859375 28.742188 C 47.683594 29.789062 48.746094 30.777344 49.992188 31.21875 Z M 49.992188 31.21875 " fill-opacity="1" fill-rule="nonzero"/></g></g></g></g><g clip-path="url(#eece8353fb)"><g clip-path="url(#cf3a8a3b24)"><g clip-path="url(#c74c8a2995)"><g clip-path="url(#55515bd7a7)"><path stroke-linecap="round" transform="matrix(0.141961, -0.133515, 0.134043, 0.142521, 0.0298004, 38.458377)" fill="none" stroke-linejoin="miter" d="M 13.697478 182.095231 C 8.409481 187.200188 3.901624 191.391497 1.001322 193.90943 " stroke="#000000" stroke-width="2" stroke-opacity="1" stroke-miterlimit="10"/></g></g></g></g><g clip-path="url(#a11231cf13)"><g clip-path="url(#683645f377)"><g clip-path="url(#21678eefa9)"><g clip-path="url(#867fb21b91)"><path stroke-linecap="round" transform="matrix(0.141961, -0.133515, 0.134043, 0.142521, 0.0298004, 38.458377)" fill="none" stroke-linejoin="miter" d="M 88.905704 151.606631 C 91.803975 145.797817 93.200744 140.500955 93.695557 134.002829 C 97.794138 135.403084 101.994926 136.899088 106.392515 136.496437 C 110.705103 136.096382 115.100125 133.306817 115.991568 129.098826 C 117.095447 123.500175 111.899223 118.687129 106.596576 116.405568 C 94.499705 111.294779 79.588489 113.798139 69.904933 122.596629 C 66.291417 125.899049 63.394219 129.89993 60.306339 133.694771 C 55.909707 139.196235 40.894147 154.894802 26.796753 169.096411 " stroke="#000000" stroke-width="2" stroke-opacity="1" stroke-miterlimit="10"/></g></g></g></g><g clip-path="url(#c3ff18c73c)"><g clip-path="url(#c0951646ea)"><g clip-path="url(#0cb40be131)"><g clip-path="url(#dcfdc5b5b3)"><path stroke-linecap="butt" transform="matrix(0.141961, -0.133515, 0.134043, 0.142521, 0.0298004, 38.458377)" fill="none" stroke-linejoin="miter" d="M 129.291354 141.503351 C 132.804655 143.698311 136.097867 147.496029 135.20295 151.591132 C 134.504297 154.691547 131.611647 156.997383 128.488358 157.798971 C 123.103776 159.305203 117.506834 157.597597 112.291794 155.398107 C 109.691574 154.305201 107.087879 153.099407 105.101273 151.21093 C 103.100065 149.308776 101.708996 146.498163 102.005935 143.706625 C 103.697281 131.395155 123.406072 137.798912 129.291354 141.503351 Z M 129.291354 141.503351 " stroke="#000000" stroke-width="2" stroke-opacity="1" stroke-miterlimit="10"/></g></g></g></g><g clip-path="url(#79719fe63e)"><g clip-path="url(#5c94d6d655)"><g clip-path="url(#71de872829)"><g clip-path="url(#14ccd56713)"><path stroke-linecap="butt" transform="matrix(0.141961, -0.133515, 0.134043, 0.142521, 0.0298004, 38.458377)" fill="none" stroke-linejoin="miter" d="M 108.598938 152.897897 C 107.894244 153.498509 93.898216 155.790308 104.006959 166.795112 C 107.897075 171.097198 113.597756 174.79315 118.298287 176.401011 C 134.000115 180.695504 142.999199 169.008328 130.998571 156.888987 " stroke="#000000" stroke-width="2" stroke-opacity="1" stroke-miterlimit="10"/></g></g></g></g><g clip-path="url(#603143f200)"><g clip-path="url(#2436e5c491)"><g clip-path="url(#1d3f883ec4)"><g clip-path="url(#cc56fb8e25)"><path stroke-linecap="butt" transform="matrix(0.141961, -0.133515, 0.134043, 0.142521, 0.0298004, 38.458377)" fill="none" stroke-linejoin="miter" d="M 102.398241 165.205828 C 100.898348 163.00588 98.498033 161.497267 95.904929 161.096231 C 93.598632 160.799429 91.195672 161.508399 89.500511 163.099705 C 87.392509 165.099095 86.711063 168.297854 87.296802 171.20368 C 87.896274 174.094962 89.490722 176.602755 91.305757 178.906073 C 95.404796 184.00686 100.593036 188.099814 106.501108 190.701868 C 108.598979 191.598252 110.892578 192.403913 113.192794 192.503161 C 115.504136 192.503199 117.907096 191.79423 119.496576 189.994288 C 120.98993 188.296152 121.50849 185.794454 121.196862 183.501723 C 120.898966 181.194448 119.997548 179.089218 118.997398 177.001127 " stroke="#000000" stroke-width="2" stroke-opacity="1" stroke-miterlimit="10"/></g></g></g></g><g clip-path="url(#9ae39da269)"><g clip-path="url(#3d3c48092d)"><g clip-path="url(#f3cec1589f)"><g clip-path="url(#97e6789aea)"><path stroke-linecap="butt" transform="matrix(0.141961, -0.133515, 0.134043, 0.142521, 0.0298004, 38.458377)" fill="none" stroke-linejoin="miter" d="M 88.601466 174.892632 C 86.593641 173.696891 84.497341 172.390857 82.2006 172.404497 C 78.797119 172.395436 75.894378 175.294798 75.201806 178.592765 C 74.495501 181.905277 75.606877 185.303523 77.507946 188.098561 C 79.395284 190.908143 82.097174 193.000764 84.796458 195.008719 C 86.901444 196.596972 89.003824 198.100559 91.495757 198.900163 C 92.497849 199.208543 93.496466 199.404036 94.613464 199.299305 C 97.003725 199.099194 99.099029 197.608663 100.299494 195.608738 C 101.499959 193.608813 101.890585 191.096897 101.69229 188.800705 " stroke="#000000" stroke-width="2" stroke-opacity="1" stroke-miterlimit="10"/></g></g></g></g><g clip-path="url(#5fa475f8e1)"><g clip-path="url(#fc1c4fdda3)"><g clip-path="url(#f86220bdec)"><g clip-path="url(#3071bab2c1)"><path stroke-linecap="round" transform="matrix(0.141961, -0.133515, 0.134043, 0.142521, 0.0298004, 38.458377)" fill="none" stroke-linejoin="miter" d="M 67.390831 199.396153 C 71.097868 195.907262 74.501924 192.710107 78.205487 189.108328 " stroke="#000000" stroke-width="2" stroke-opacity="1" stroke-miterlimit="10"/></g></g></g></g><g clip-path="url(#89d4b884a0)"><g clip-path="url(#cb3c608603)"><g clip-path="url(#d1de052c36)"><g clip-path="url(#2a44da9401)"><path stroke-linecap="round" transform="matrix(0.141961, -0.133515, 0.134043, 0.142521, 0.0298004, 38.458377)" fill="none" stroke-linejoin="miter" d="M 16.196792 239.801082 C 19.396932 237.810713 22.604724 235.608248 25.699182 233.409243 C 33.591947 227.702146 41.197903 221.890814 48.596839 215.80332 " stroke="#000000" stroke-width="2" stroke-opacity="1" stroke-miterlimit="10"/></g></g></g></g><g clip-path="url(#4be463e3ff)"><g clip-path="url(#9fd0365955)"><g clip-path="url(#569025e1b4)"><g clip-path="url(#0971bb04ad)"><path stroke-linecap="butt" transform="matrix(0.141961, -0.133515, 0.134043, 0.142521, 0.0298004, 38.458377)" fill="none" stroke-linejoin="miter" d="M 102.40149 147.804693 C 87.505345 163.697352 69.011318 183.400426 61.903163 191.103325 C 67.698321 199.71162 73.396484 208.393497 79.191642 217.001792 C 81.092712 219.79683 83.004371 223.396625 81.409308 226.397296 C 79.797038 229.299622 75.796117 229.69016 72.491203 229.197866 C 59.497345 227.193548 50.501422 216.408997 41.103415 207.303383 C 30.699676 197.310407 18.804154 188.605917 10.596021 176.69562 C 9.497305 175.090763 8.389902 173.203687 8.799638 171.312653 C 9.302026 169.206928 11.388809 167.900272 13.500783 167.412051 C 19.693301 165.895271 26.006024 169.205303 31.606069 172.395856 C 38.896191 176.594115 46.299647 180.788913 53.60437 185.000851 C 60.998758 180.608401 83.101255 157.89967 88.902229 151.493743 C 93.399497 146.497678 98.010099 141.498151 102.49016 136.403742 " stroke="#000000" stroke-width="2" stroke-opacity="1" stroke-miterlimit="10"/></g></g></g></g><g clip-path="url(#6ce962372b)"><g clip-path="url(#fed183c0d2)"><g clip-path="url(#4ee541e1ab)"><g clip-path="url(#0ced808a5d)"><path stroke-linecap="butt" transform="matrix(0.141961, -0.133515, 0.134043, 0.142521, 0.0298004, 38.458377)" fill="none" stroke-linejoin="miter" d="M 114.490181 122.704031 C 114.908067 121.999183 115.297619 121.295201 115.602171 120.593814 C 118.504454 113.993921 113.496804 110.700533 110.695888 105.390614 C 107.699079 99.705324 106.290344 93.095837 106.192763 86.700546 C 106.102794 82.395407 106.591489 78.001976 108.604437 74.296458 C 110.396799 70.795415 113.490223 68.102094 116.387919 65.499495 C 129.598419 53.810831 142.904177 41.99214 158.505398 33.803897 C 161.700492 32.110291 165.196127 30.506376 168.794466 30.396492 C 173.20161 30.304283 177.301226 32.198854 181.112461 34.398841 C 192.489501 41.000531 202.100442 50.113767 211.608308 59.103033 C 212.702516 60.100686 213.902405 61.306976 214.29957 62.693145 C 214.591922 63.8989 214.405213 65.20403 214.203903 66.495481 C 210.303306 85.809407 199.59525 103.70693 184.395664 116.190794 C 180.20696 119.694394 175.594826 122.801322 170.30637 124.205749 C 167.505874 124.89861 164.50601 125.103212 161.602273 125.206008 C 152.306317 125.405137 142.902611 124.406998 133.904629 122.308904 C 132.091126 121.898184 130.303351 121.401934 128.503913 121.908859 C 126.505273 122.393619 124.994712 123.993411 123.594879 125.505077 C 122.800139 126.405048 118.805757 130.69367 113.105955 136.701029 " stroke="#000000" stroke-width="2" stroke-opacity="1" stroke-miterlimit="10"/></g></g></g></g><g clip-path="url(#09d1a3c9ca)"><g clip-path="url(#17eaac65b0)"><g clip-path="url(#fbbb7bfa21)"><g clip-path="url(#ddd40f22d8)"><path stroke-linecap="butt" transform="matrix(0.141961, -0.133515, 0.134043, 0.142521, 0.0298004, 38.458377)" fill="none" stroke-linejoin="miter" d="M 247.097594 218.399774 C 244.504447 179.298383 259.303403 174.99055 275.112171 156.499414 C 281.802977 148.597396 285.809101 138.701101 286.399582 128.400639 C 287.503158 109.892462 283.502918 90.49495 278.401815 73.108446 C 274.19725 58.590029 248.3879 63.601319 236.295499 61.399982 C 209.911653 56.499491 213.80257 75.109385 209.602135 93.895747 C 205.601976 110.896342 198.495734 128.796868 202.398315 146.403586 C 213.289912 181.000176 241.300519 158.59125 240.793508 207.999121 C 244.498647 285.992899 255.496107 258.609189 210.705607 287.307334 C 207.910655 289.101715 208.712433 293.498111 211.992488 294.104158 C 212.590963 294.198876 213.104439 294.296189 213.391247 294.400425 C 234.599014 295.603068 259.804648 302.305065 278.49288 290.293759 C 286.006721 283.793154 266.700014 275.71046 262.702644 271.609388 C 253.400725 264.704218 250.095469 253.604647 249.501697 242.605889 C 248.700573 230.398781 247.895243 230.493995 247.097594 218.399774 Z M 247.097594 218.399774 " stroke="#000000" stroke-width="2" stroke-opacity="1" stroke-miterlimit="10"/></g></g></g></g><g clip-path="url(#14305cc9a8)"><g clip-path="url(#89371b2d54)"><g clip-path="url(#84837f8d2d)"><g clip-path="url(#d3890c32ba)"><path stroke-linecap="butt" transform="matrix(0.141961, -0.133515, 0.134043, 0.142521, 0.0298004, 38.458377)" fill="none" stroke-linejoin="miter" d="M 217.107142 64.994402 C 222.09494 70.40703 227.300885 75.99661 234.29154 78.297245 C 237.70317 79.492491 241.299938 79.792257 244.901753 79.795261 C 256.294545 79.9982 268.701131 77.204094 275.800268 68.286787 " stroke="#000000" stroke-width="2" stroke-opacity="1" stroke-miterlimit="10"/></g></g></g></g><g clip-path="url(#280d8d33bd)"><g clip-path="url(#5abacaac66)"><g clip-path="url(#5c989a3055)"><g clip-path="url(#ca0015ec2e)"><path stroke-linecap="butt" transform="matrix(0.141961, -0.133515, 0.134043, 0.142521, 0.0298004, 38.458377)" fill="none" stroke-linejoin="miter" d="M 169.50367 30.403084 C 170.996878 47.589031 183.998154 63.194744 200.588741 67.801078 C 202.203041 68.189632 203.803609 68.59273 205.499269 68.399707 C 208.790987 68.002578 211.49643 65.603589 213.903937 63.199575 " stroke="#000000" stroke-width="2" stroke-opacity="1" stroke-miterlimit="10"/></g></g></g></g><g clip-path="url(#c8da252edb)"><g clip-path="url(#85bdc80540)"><g clip-path="url(#856f905b92)"><g clip-path="url(#53347e3172)"><path stroke-linecap="round" transform="matrix(0.141961, -0.133515, 0.134043, 0.142521, 0.0298004, 38.458377)" fill="none" stroke-linejoin="miter" d="M 209.004417 28.405879 C 207.509686 19.002422 204.900565 9.788363 201.000269 1.00921 " stroke="#000000" stroke-width="2" stroke-opacity="1" stroke-miterlimit="10"/></g></g></g></g><g clip-path="url(#3f10fac8d5)"><g clip-path="url(#1b256cd089)"><g clip-path="url(#4886d060cf)"><g clip-path="url(#cce9ecab73)"><path stroke-linecap="round" transform="matrix(0.141961, -0.133515, 0.134043, 0.142521, 0.0298004, 38.458377)" fill="none" stroke-linejoin="miter" d="M 222.902337 30.297844 C 224.608703 24.002832 227.200353 17.906773 230.502241 12.311622 " stroke="#000000" stroke-width="2" stroke-opacity="1" stroke-miterlimit="10"/></g></g></g></g><g clip-path="url(#fd5b476cec)"><g clip-path="url(#7374600bd1)"><g clip-path="url(#109210b1ae)"><g clip-path="url(#3dcf03e772)"><path stroke-linecap="round" transform="matrix(0.141961, -0.133515, 0.134043, 0.142521, 0.0298004, 38.458377)" fill="none" stroke-linejoin="miter" d="M 230.793872 35.607675 C 239.20512 32.003378 247.99529 29.19259 256.997859 27.293391 " stroke="#000000" stroke-width="2" stroke-opacity="1" stroke-miterlimit="10"/></g></g></g></g><g clip-path="url(#08cd39f528)"><g clip-path="url(#825d6e01bf)"><g clip-path="url(#1b96da7a76)"><g clip-path="url(#bfcec9e212)"><path fill="#000000" d="M 26.605469 31.242188 C 27.722656 29.414062 31.792969 30.046875 33.285156 30.496094 C 36.050781 31.332031 37.527344 26.101562 40.234375 27.074219 C 40.601562 28.316406 40.042969 30.9375 39.496094 32.09375 C 38.953125 33.25 38.09375 34.242188 37.199219 35.167969 C 35.972656 36.425781 34.542969 37.664062 32.78125 37.898438 C 30.566406 38.183594 27.851562 36.894531 26.945312 34.847656 C 26.167969 33.054688 26.15625 31.988281 26.605469 31.242188 Z M 49.992188 31.21875 C 52.207031 31.984375 54.765625 30.945312 56.621094 29.363281 C 57.074219 28.964844 57.515625 28.550781 57.832031 28.035156 C 58.816406 26.492188 58.664062 24.566406 58.4375 22.792969 C 58.347656 22.070312 58.246094 21.335938 57.933594 20.660156 C 57.671875 20.128906 57.300781 19.675781 56.910156 19.234375 C 56.523438 18.765625 56.097656 18.28125 55.507812 18.054688 C 54.933594 17.84375 54.140625 17.996094 53.835938 18.550781 C 53.601562 18.988281 53.726562 19.515625 53.710938 19.984375 C 53.675781 21.199219 52.792969 22.222656 51.949219 23.148438 C 50.953125 24.246094 49.925781 25.347656 48.710938 26.21875 C 47.667969 26.957031 45.847656 27.4375 46.859375 28.742188 C 47.683594 29.789062 48.746094 30.777344 49.992188 31.21875 Z M 49.992188 31.21875 " fill-opacity="1" fill-rule="nonzero"/></g></g></g></g><g clip-path="url(#b263b4b634)"><g clip-path="url(#5d31d77d5b)"><g clip-path="url(#2149e43773)"><g clip-path="url(#d13d0d9765)"><path stroke-linecap="round" transform="matrix(0.141961, -0.133515, 0.134043, 0.142521, 0.0298004, 38.458377)" fill="none" stroke-linejoin="miter" d="M 13.697478 182.095231 C 8.409481 187.200188 3.901624 191.391497 1.001322 193.90943 " stroke="#000000" stroke-width="2" stroke-opacity="1" stroke-miterlimit="10"/></g></g></g></g><g clip-path="url(#24c860530a)"><g clip-path="url(#39b680833d)"><g clip-path="url(#9944e1a2e2)"><g clip-path="url(#5999ed8e0d)"><path stroke-linecap="round" transform="matrix(0.141961, -0.133515, 0.134043, 0.142521, 0.0298004, 38.458377)" fill="none" stroke-linejoin="miter" d="M 88.905704 151.606631 C 91.803975 145.797817 93.200744 140.500955 93.695557 134.002829 C 97.794138 135.403084 101.994926 136.899088 106.392515 136.496437 C 110.705103 136.096382 115.100125 133.306817 115.991568 129.098826 C 117.095447 123.500175 111.899223 118.687129 106.596576 116.405568 C 94.499705 111.294779 79.588489 113.798139 69.904933 122.596629 C 66.291417 125.899049 63.394219 129.89993 60.306339 133.694771 C 55.909707 139.196235 40.894147 154.894802 26.796753 169.096411 " stroke="#000000" stroke-width="2" stroke-opacity="1" stroke-miterlimit="10"/></g></g></g></g><g clip-path="url(#40d858891b)"><g clip-path="url(#4c1ec4267a)"><g clip-path="url(#abde21192d)"><g clip-path="url(#fa7a9a031e)"><path stroke-linecap="butt" transform="matrix(0.141961, -0.133515, 0.134043, 0.142521, 0.0298004, 38.458377)" fill="none" stroke-linejoin="miter" d="M 129.291354 141.503351 C 132.804655 143.698311 136.097867 147.496029 135.20295 151.591132 C 134.504297 154.691547 131.611647 156.997383 128.488358 157.798971 C 123.103776 159.305203 117.506834 157.597597 112.291794 155.398107 C 109.691574 154.305201 107.087879 153.099407 105.101273 151.21093 C 103.100065 149.308776 101.708996 146.498163 102.005935 143.706625 C 103.697281 131.395155 123.406072 137.798912 129.291354 141.503351 Z M 129.291354 141.503351 " stroke="#000000" stroke-width="2" stroke-opacity="1" stroke-miterlimit="10"/></g></g></g></g><g clip-path="url(#023e74022e)"><g clip-path="url(#08ef4ca51a)"><g clip-path="url(#3de3c9a43c)"><g clip-path="url(#a258f1c414)"><path stroke-linecap="butt" transform="matrix(0.141961, -0.133515, 0.134043, 0.142521, 0.0298004, 38.458377)" fill="none" stroke-linejoin="miter" d="M 108.598938 152.897897 C 107.894244 153.498509 93.898216 155.790308 104.006959 166.795112 C 107.897075 171.097198 113.597756 174.79315 118.298287 176.401011 C 134.000115 180.695504 142.999199 169.008328 130.998571 156.888987 " stroke="#000000" stroke-width="2" stroke-opacity="1" stroke-miterlimit="10"/></g></g></g></g><g clip-path="url(#eb7c3c1343)"><g clip-path="url(#256663bf23)"><g clip-path="url(#798c0d1fe0)"><g clip-path="url(#efc7bfdc23)"><path stroke-linecap="butt" transform="matrix(0.141961, -0.133515, 0.134043, 0.142521, 0.0298004, 38.458377)" fill="none" stroke-linejoin="miter" d="M 102.398241 165.205828 C 100.898348 163.00588 98.498033 161.497267 95.904929 161.096231 C 93.598632 160.799429 91.195672 161.508399 89.500511 163.099705 C 87.392509 165.099095 86.711063 168.297854 87.296802 171.20368 C 87.896274 174.094962 89.490722 176.602755 91.305757 178.906073 C 95.404796 184.00686 100.593036 188.099814 106.501108 190.701868 C 108.598979 191.598252 110.892578 192.403913 113.192794 192.503161 C 115.504136 192.503199 117.907096 191.79423 119.496576 189.994288 C 120.98993 188.296152 121.50849 185.794454 121.196862 183.501723 C 120.898966 181.194448 119.997548 179.089218 118.997398 177.001127 " stroke="#000000" stroke-width="2" stroke-opacity="1" stroke-miterlimit="10"/></g></g></g></g><g clip-path="url(#37907d8d99)"><g clip-path="url(#4f0b688713)"><g clip-path="url(#f14a1411ca)"><g clip-path="url(#64390c07f5)"><path stroke-linecap="butt" transform="matrix(0.141961, -0.133515, 0.134043, 0.142521, 0.0298004, 38.458377)" fill="none" stroke-linejoin="miter" d="M 88.601466 174.892632 C 86.593641 173.696891 84.497341 172.390857 82.2006 172.404497 C 78.797119 172.395436 75.894378 175.294798 75.201806 178.592765 C 74.495501 181.905277 75.606877 185.303523 77.507946 188.098561 C 79.395284 190.908143 82.097174 193.000764 84.796458 195.008719 C 86.901444 196.596972 89.003824 198.100559 91.495757 198.900163 C 92.497849 199.208543 93.496466 199.404036 94.613464 199.299305 C 97.003725 199.099194 99.099029 197.608663 100.299494 195.608738 C 101.499959 193.608813 101.890585 191.096897 101.69229 188.800705 " stroke="#000000" stroke-width="2" stroke-opacity="1" stroke-miterlimit="10"/></g></g></g></g><g clip-path="url(#254063f93f)"><g clip-path="url(#aed01606f2)"><g clip-path="url(#cd3a93f09c)"><g clip-path="url(#6cf601ca66)"><path stroke-linecap="round" transform="matrix(0.141961, -0.133515, 0.134043, 0.142521, 0.0298004, 38.458377)" fill="none" stroke-linejoin="miter" d="M 67.390831 199.396153 C 71.097868 195.907262 74.501924 192.710107 78.205487 189.108328 " stroke="#000000" stroke-width="2" stroke-opacity="1" stroke-miterlimit="10"/></g></g></g></g><g clip-path="url(#703db80b6b)"><g clip-path="url(#2986e2a675)"><g clip-path="url(#90f7389ed3)"><g clip-path="url(#343d864548)"><path stroke-linecap="round" transform="matrix(0.141961, -0.133515, 0.134043, 0.142521, 0.0298004, 38.458377)" fill="none" stroke-linejoin="miter" d="M 16.196792 239.801082 C 19.396932 237.810713 22.604724 235.608248 25.699182 233.409243 C 33.591947 227.702146 41.197903 221.890814 48.596839 215.80332 " stroke="#000000" stroke-width="2" stroke-opacity="1" stroke-miterlimit="10"/></g></g></g></g><g clip-path="url(#757d2694ac)"><g clip-path="url(#b8ac0d1749)"><g clip-path="url(#fd14907c0a)"><g clip-path="url(#a2b0a58fe6)"><path stroke-linecap="butt" transform="matrix(0.141961, -0.133515, 0.134043, 0.142521, 0.0298004, 38.458377)" fill="none" stroke-linejoin="miter" d="M 102.40149 147.804693 C 87.505345 163.697352 69.011318 183.400426 61.903163 191.103325 C 67.698321 199.71162 73.396484 208.393497 79.191642 217.001792 C 81.092712 219.79683 83.004371 223.396625 81.409308 226.397296 C 79.797038 229.299622 75.796117 229.69016 72.491203 229.197866 C 59.497345 227.193548 50.501422 216.408997 41.103415 207.303383 C 30.699676 197.310407 18.804154 188.605917 10.596021 176.69562 C 9.497305 175.090763 8.389902 173.203687 8.799638 171.312653 C 9.302026 169.206928 11.388809 167.900272 13.500783 167.412051 C 19.693301 165.895271 26.006024 169.205303 31.606069 172.395856 C 38.896191 176.594115 46.299647 180.788913 53.60437 185.000851 C 60.998758 180.608401 83.101255 157.89967 88.902229 151.493743 C 93.399497 146.497678 98.010099 141.498151 102.49016 136.403742 " stroke="#000000" stroke-width="2" stroke-opacity="1" stroke-miterlimit="10"/></g></g></g></g><g clip-path="url(#7d8ccff0e1)"><g clip-path="url(#f33d0ab39f)"><g clip-path="url(#d8021a6e26)"><g clip-path="url(#46470f80f5)"><path stroke-linecap="butt" transform="matrix(0.141961, -0.133515, 0.134043, 0.142521, 0.0298004, 38.458377)" fill="none" stroke-linejoin="miter" d="M 114.490181 122.704031 C 114.908067 121.999183 115.297619 121.295201 115.602171 120.593814 C 118.504454 113.993921 113.496804 110.700533 110.695888 105.390614 C 107.699079 99.705324 106.290344 93.095837 106.192763 86.700546 C 106.102794 82.395407 106.591489 78.001976 108.604437 74.296458 C 110.396799 70.795415 113.490223 68.102094 116.387919 65.499495 C 129.598419 53.810831 142.904177 41.99214 158.505398 33.803897 C 161.700492 32.110291 165.196127 30.506376 168.794466 30.396492 C 173.20161 30.304283 177.301226 32.198854 181.112461 34.398841 C 192.489501 41.000531 202.100442 50.113767 211.608308 59.103033 C 212.702516 60.100686 213.902405 61.306976 214.29957 62.693145 C 214.591922 63.8989 214.405213 65.20403 214.203903 66.495481 C 210.303306 85.809407 199.59525 103.70693 184.395664 116.190794 C 180.20696 119.694394 175.594826 122.801322 170.30637 124.205749 C 167.505874 124.89861 164.50601 125.103212 161.602273 125.206008 C 152.306317 125.405137 142.902611 124.406998 133.904629 122.308904 C 132.091126 121.898184 130.303351 121.401934 128.503913 121.908859 C 126.505273 122.393619 124.994712 123.993411 123.594879 125.505077 C 122.800139 126.405048 118.805757 130.69367 113.105955 136.701029 " stroke="#000000" stroke-width="2" stroke-opacity="1" stroke-miterlimit="10"/></g></g></g></g></svg>