<svg xmlns="http://www.w3.org/2000/svg" xmlnsXlink="http://www.w3.org/1999/xlink" width="26" zoomAndPan="magnify" viewBox="0 0 19.5 28.5" height="38" preserveAspectRatio="xMidYMid meet" version="1.0"><defs><clipPath id="b90b71e4a8"><path d="M 0 0.113281 L 19.011719 0.113281 L 19.011719 27.898438 L 0 27.898438 Z M 0 0.113281 " clipRule="nonzero"/></clipPath><clipPath id="5db4a83f4e"><path d="M 0 4 L 18.28125 4 L 18.28125 27.167969 L 0 27.167969 Z M 0 4 " clipRule="nonzero"/></clipPath><clipPath id="4d2a20c076"><path d="M 12 6 L 18.28125 6 L 18.28125 8 L 12 8 Z M 12 6 " clipRule="nonzero"/></clipPath><clipPath id="996eae95a9"><path d="M 14 22 L 18.28125 22 L 18.28125 25 L 14 25 Z M 14 22 " clipRule="nonzero"/></clipPath><clipPath id="53301f7336"><path d="M 8 0.113281 L 15 0.113281 L 15 6 L 8 6 Z M 8 0.113281 " clipRule="nonzero"/></clipPath><clipPath id="506eb242d4"><path d="M 0.0273438 4 L 18.308594 4 L 18.308594 27.167969 L 0.0273438 27.167969 Z M 0.0273438 4 " clipRule="nonzero"/></clipPath><clipPath id="8f6c631a62"><path d="M 0.0273438 5 L 14 5 L 14 27 L 0.0273438 27 Z M 0.0273438 5 " clipRule="nonzero"/></clipPath><clipPath id="463202028d"><path d="M 12 6 L 18.308594 6 L 18.308594 8 L 12 8 Z M 12 6 " clipRule="nonzero"/></clipPath><clipPath id="2e7c5c92d2"><path d="M 14 22 L 18.308594 22 L 18.308594 25 L 14 25 Z M 14 22 " clipRule="nonzero"/></clipPath><clipPath id="c642a65405"><path d="M 8 0.113281 L 15 0.113281 L 15 6 L 8 6 Z M 8 0.113281 " clipRule="nonzero"/></clipPath></defs><g clipPath="url(#b90b71e4a8)"><path fill="#ffffff" d="M 0 0.113281 L 19.011719 0.113281 L 19.011719 27.898438 L 0 27.898438 Z M 0 0.113281 " fillOpacity="1" fillRule="nonzero"/></g><g clipPath="url(#5db4a83f4e)"><path fill="#ffffff" d="M 1.378906 5.9375 C 1.050781 9.3125 0.726562 12.667969 0.675781 15.554688 C 0.628906 18.4375 0.855469 20.851562 1.085938 23.28125 L 0.816406 23 C 2.816406 23.285156 4.839844 23.574219 6.84375 24.195312 C 8.84375 24.820312 10.808594 25.773438 12.75 26.714844 L 12.425781 26.742188 C 13.496094 25.96875 14.597656 25.167969 15.511719 24.710938 C 16.449219 24.242188 17.191406 24.136719 17.898438 24.03125 L 17.632812 24.394531 C 17.199219 21.84375 16.761719 19.269531 16.757812 16.242188 C 16.757812 13.21875 17.191406 9.753906 17.617188 6.316406 L 17.886719 6.664062 L 6.429688 5.007812 L 6.542969 5.003906 L 1.132812 6.210938 L 1.378906 5.9375 M 0.753906 5.875 C 0.765625 5.742188 0.863281 5.628906 0.996094 5.597656 L 6.40625 4.390625 C 6.445312 4.382812 6.480469 4.382812 6.519531 4.386719 L 17.976562 6.042969 C 18.144531 6.066406 18.261719 6.222656 18.242188 6.390625 C 17.8125 9.84375 17.386719 13.265625 17.386719 16.242188 C 17.390625 19.210938 17.820312 21.738281 18.253906 24.289062 C 18.265625 24.375 18.246094 24.460938 18.195312 24.527344 C 18.148438 24.597656 18.070312 24.640625 17.988281 24.652344 C 17.292969 24.757812 16.632812 24.851562 15.792969 25.273438 C 14.933594 25.699219 13.878906 26.464844 12.796875 27.253906 C 12.703125 27.320312 12.578125 27.332031 12.476562 27.28125 C 10.527344 26.335938 8.601562 25.402344 6.65625 24.796875 C 4.710938 24.191406 2.734375 23.90625 0.726562 23.621094 C 0.585938 23.601562 0.472656 23.484375 0.460938 23.339844 C 0.230469 20.910156 0 18.464844 0.0507812 15.542969 C 0.0976562 12.628906 0.425781 9.242188 0.753906 5.875 Z M 0.753906 5.875 " fillOpacity="1" fillRule="nonzero"/></g><path fill="#ffffff" d="M 1.300781 5.769531 C 2.429688 6.007812 3.554688 6.238281 5.410156 6.480469 C 7.273438 6.71875 9.875 6.960938 12.484375 7.207031 C 12.636719 7.222656 12.757812 7.347656 12.765625 7.503906 C 13.023438 11.859375 13.277344 16.226562 13.296875 19.382812 C 13.316406 22.542969 13.101562 24.488281 12.886719 26.417969 C 12.867188 26.59375 12.710938 26.714844 12.539062 26.695312 C 12.367188 26.679688 12.242188 26.523438 12.261719 26.351562 C 12.476562 24.425781 12.691406 22.511719 12.667969 19.386719 C 12.648438 16.25 12.394531 11.902344 12.140625 7.539062 L 12.425781 7.832031 C 9.820312 7.589844 7.207031 7.34375 5.332031 7.101562 C 3.449219 6.859375 2.308594 6.621094 1.175781 6.386719 C 1.003906 6.351562 0.894531 6.183594 0.929688 6.015625 C 0.964844 5.84375 1.132812 5.734375 1.300781 5.769531 Z M 1.300781 5.769531 " fillOpacity="1" fillRule="nonzero"/><g clipPath="url(#4d2a20c076)"><path fill="#ffffff" d="M 12.488281 7.144531 C 13.167969 7.089844 13.832031 7.03125 14.679688 6.871094 C 15.53125 6.710938 16.566406 6.445312 17.617188 6.175781 C 17.785156 6.132812 17.957031 6.234375 18 6.402344 C 18.042969 6.570312 17.941406 6.742188 17.773438 6.785156 C 16.730469 7.050781 15.671875 7.324219 14.796875 7.488281 C 13.914062 7.65625 13.222656 7.714844 12.542969 7.773438 C 12.371094 7.785156 12.21875 7.660156 12.203125 7.484375 C 12.1875 7.3125 12.316406 7.160156 12.488281 7.144531 Z M 12.488281 7.144531 " fillOpacity="1" fillRule="nonzero"/></g><path fill="#ffffff" d="M 15.191406 7.113281 C 15.1875 9.9375 15.1875 12.753906 15.226562 15.359375 C 15.265625 17.964844 15.34375 20.355469 15.421875 22.75 C 15.425781 22.925781 15.289062 23.070312 15.117188 23.074219 C 14.941406 23.082031 14.796875 22.945312 14.792969 22.769531 C 14.714844 20.378906 14.636719 17.980469 14.597656 15.371094 C 14.558594 12.757812 14.5625 9.933594 14.5625 7.113281 C 14.5625 6.941406 14.703125 6.800781 14.875 6.800781 C 15.050781 6.800781 15.191406 6.941406 15.191406 7.113281 Z M 15.191406 7.113281 " fillOpacity="1" fillRule="nonzero"/><path fill="#ffffff" d="M 12.542969 26.039062 L 14.785156 22.644531 C 14.882812 22.5 15.078125 22.460938 15.222656 22.554688 C 15.367188 22.652344 15.40625 22.847656 15.3125 22.992188 L 13.066406 26.386719 C 12.972656 26.53125 12.777344 26.570312 12.632812 26.472656 C 12.488281 26.378906 12.445312 26.183594 12.542969 26.039062 Z M 12.542969 26.039062 " fillOpacity="1" fillRule="nonzero"/><g clipPath="url(#996eae95a9)"><path fill="#ffffff" d="M 15.378906 22.488281 L 17.855469 23.925781 C 18.003906 24.015625 18.054688 24.207031 17.96875 24.355469 C 17.878906 24.507812 17.6875 24.558594 17.539062 24.46875 L 15.0625 23.03125 C 14.914062 22.945312 14.863281 22.753906 14.949219 22.601562 C 15.035156 22.453125 15.230469 22.402344 15.378906 22.488281 Z M 15.378906 22.488281 " fillOpacity="1" fillRule="nonzero"/></g><path fill="#ffffff" d="M 3.527344 8.40625 C 4.101562 6.414062 4.699219 4.304688 5.960938 2.996094 C 6.875 2.054688 8.140625 1.523438 9.039062 1.523438 C 9.386719 1.523438 9.734375 1.601562 9.972656 1.828125 C 10.664062 2.484375 10.003906 4.019531 9.605469 5.039062 C 9.546875 5.191406 9.488281 5.347656 9.429688 5.496094 C 8.949219 6.765625 8.671875 7.808594 8.390625 8.863281 C 8.34375 9.03125 8.171875 9.128906 8.003906 9.085938 C 7.835938 9.039062 7.738281 8.867188 7.78125 8.703125 C 8.0625 7.644531 8.347656 6.574219 8.84375 5.273438 C 8.902344 5.121094 8.960938 4.964844 9.023438 4.808594 C 9.535156 3.496094 9.835938 2.566406 9.539062 2.285156 C 9.46875 2.21875 9.3125 2.152344 9.039062 2.152344 C 8.335938 2.152344 7.230469 2.589844 6.414062 3.433594 C 5.28125 4.601562 4.71875 6.535156 4.128906 8.582031 C 4.082031 8.75 3.90625 8.84375 3.742188 8.796875 C 3.574219 8.75 3.476562 8.574219 3.527344 8.40625 Z M 3.527344 8.40625 " fillOpacity="1" fillRule="nonzero"/><path fill="#ffffff" d="M 4.488281 8.179688 C 4.488281 8.359375 4.394531 8.496094 4.285156 8.585938 C 4.152344 8.695312 3.976562 8.75 3.800781 8.75 C 3.621094 8.75 3.445312 8.695312 3.3125 8.585938 C 3.203125 8.496094 3.109375 8.359375 3.109375 8.179688 C 3.109375 8 3.203125 7.859375 3.3125 7.769531 C 3.445312 7.660156 3.621094 7.605469 3.800781 7.605469 C 3.976562 7.605469 4.152344 7.660156 4.285156 7.769531 C 4.394531 7.859375 4.488281 8 4.488281 8.179688 M 3.859375 8.179688 C 3.859375 8.230469 3.886719 8.253906 3.886719 8.253906 C 3.882812 8.25 3.851562 8.234375 3.800781 8.234375 C 3.746094 8.234375 3.714844 8.25 3.710938 8.253906 C 3.710938 8.253906 3.738281 8.230469 3.738281 8.179688 C 3.738281 8.125 3.710938 8.101562 3.710938 8.101562 C 3.714844 8.105469 3.746094 8.125 3.800781 8.125 C 3.851562 8.125 3.882812 8.105469 3.886719 8.101562 C 3.886719 8.101562 3.859375 8.125 3.859375 8.179688 Z M 3.859375 8.179688 " fillOpacity="1" fillRule="nonzero"/><path fill="#ffffff" d="M 8.804688 8.695312 C 8.804688 8.875 8.707031 9.015625 8.601562 9.105469 C 8.46875 9.214844 8.289062 9.269531 8.113281 9.269531 C 7.9375 9.269531 7.761719 9.214844 7.628906 9.105469 C 7.519531 9.015625 7.425781 8.875 7.425781 8.695312 C 7.425781 8.515625 7.519531 8.375 7.628906 8.289062 C 7.761719 8.175781 7.9375 8.125 8.113281 8.125 C 8.289062 8.125 8.46875 8.175781 8.601562 8.289062 C 8.707031 8.375 8.804688 8.515625 8.804688 8.695312 M 8.175781 8.695312 C 8.175781 8.75 8.203125 8.773438 8.203125 8.773438 C 8.199219 8.769531 8.167969 8.75 8.113281 8.75 C 8.058594 8.75 8.03125 8.769531 8.027344 8.773438 C 8.027344 8.773438 8.054688 8.75 8.054688 8.695312 C 8.054688 8.644531 8.027344 8.617188 8.027344 8.621094 C 8.03125 8.625 8.058594 8.640625 8.113281 8.640625 C 8.167969 8.640625 8.199219 8.625 8.203125 8.621094 C 8.203125 8.617188 8.175781 8.644531 8.175781 8.695312 Z M 8.175781 8.695312 " fillOpacity="1" fillRule="nonzero"/><g clipPath="url(#53301f7336)"><path fill="#ffffff" d="M 12.921875 5.546875 C 13.75 3.707031 14.429688 2.136719 14.082031 1.367188 C 13.917969 1.003906 13.449219 0.761719 12.808594 0.761719 C 12.332031 0.761719 11.816406 0.902344 11.394531 1.179688 C 10.40625 1.832031 9.875 3.265625 9.300781 4.863281 C 9.242188 5.023438 9.0625 5.109375 8.902344 5.050781 C 8.738281 4.992188 8.652344 4.8125 8.710938 4.648438 C 9.257812 3.128906 9.847656 1.445312 11.046875 0.652344 C 11.578125 0.304688 12.214844 0.132812 12.808594 0.132812 C 13.5625 0.132812 14.34375 0.421875 14.65625 1.109375 C 15.148438 2.207031 14.246094 4.140625 13.492188 5.804688 C 13.421875 5.964844 13.234375 6.035156 13.078125 5.960938 C 12.921875 5.890625 12.851562 5.703125 12.921875 5.546875 Z M 12.921875 5.546875 " fillOpacity="1" fillRule="nonzero"/></g><g clipPath="url(#506eb242d4)"><path fill="#ffffff" d="M 1.40625 5.9375 C 1.078125 9.3125 0.753906 12.667969 0.707031 15.554688 C 0.65625 18.4375 0.882812 20.851562 1.113281 23.28125 L 0.84375 23 C 2.84375 23.285156 4.871094 23.574219 6.871094 24.195312 C 8.871094 24.820312 10.835938 25.773438 12.777344 26.714844 L 12.457031 26.742188 C 13.523438 25.96875 14.625 25.167969 15.542969 24.710938 C 16.476562 24.242188 17.222656 24.136719 17.925781 24.03125 L 17.660156 24.394531 C 17.226562 21.84375 16.789062 19.269531 16.789062 16.242188 C 16.785156 13.21875 17.21875 9.753906 17.648438 6.316406 L 17.914062 6.664062 L 6.457031 5.007812 L 6.570312 5.003906 L 1.164062 6.210938 L 1.40625 5.9375 M 0.78125 5.875 C 0.792969 5.742188 0.894531 5.628906 1.027344 5.597656 L 6.433594 4.390625 C 6.472656 4.382812 6.511719 4.382812 6.546875 4.386719 L 18.003906 6.042969 C 18.171875 6.066406 18.292969 6.222656 18.269531 6.390625 C 17.839844 9.84375 17.414062 13.265625 17.414062 16.242188 C 17.417969 19.210938 17.847656 21.738281 18.28125 24.289062 C 18.292969 24.375 18.273438 24.460938 18.226562 24.527344 C 18.175781 24.597656 18.101562 24.640625 18.015625 24.652344 C 17.320312 24.757812 16.664062 24.851562 15.820312 25.273438 C 14.960938 25.699219 13.910156 26.464844 12.824219 27.253906 C 12.730469 27.320312 12.609375 27.332031 12.503906 27.28125 C 10.554688 26.335938 8.632812 25.402344 6.683594 24.796875 C 4.738281 24.191406 2.761719 23.90625 0.757812 23.621094 C 0.613281 23.601562 0.5 23.484375 0.488281 23.339844 C 0.257812 20.910156 0.0273438 18.464844 0.078125 15.542969 C 0.128906 12.628906 0.457031 9.242188 0.78125 5.875 Z M 0.78125 5.875 " fillOpacity="1" fillRule="nonzero"/></g><g clipPath="url(#8f6c631a62)"><path fill="#ffffff" d="M 1.332031 5.769531 C 2.460938 6.007812 3.582031 6.238281 5.4375 6.480469 C 7.300781 6.71875 9.902344 6.960938 12.511719 7.207031 C 12.664062 7.222656 12.785156 7.347656 12.796875 7.503906 C 13.050781 11.859375 13.304688 16.226562 13.328125 19.382812 C 13.347656 22.542969 13.128906 24.488281 12.914062 26.417969 C 12.894531 26.59375 12.742188 26.714844 12.566406 26.695312 C 12.394531 26.679688 12.273438 26.523438 12.289062 26.351562 C 12.503906 24.425781 12.71875 22.511719 12.699219 19.386719 C 12.679688 16.25 12.421875 11.902344 12.167969 7.539062 L 12.453125 7.832031 C 9.847656 7.589844 7.234375 7.34375 5.359375 7.101562 C 3.476562 6.859375 2.335938 6.621094 1.203125 6.386719 C 1.03125 6.351562 0.925781 6.183594 0.960938 6.015625 C 0.996094 5.84375 1.160156 5.734375 1.332031 5.769531 Z M 1.332031 5.769531 " fillOpacity="1" fillRule="nonzero"/></g><g clipPath="url(#463202028d)"><path fill="#ffffff" d="M 12.519531 7.144531 C 13.195312 7.089844 13.859375 7.03125 14.707031 6.871094 C 15.558594 6.710938 16.597656 6.445312 17.644531 6.175781 C 17.816406 6.132812 17.984375 6.234375 18.027344 6.402344 C 18.070312 6.570312 17.96875 6.742188 17.800781 6.785156 C 16.757812 7.050781 15.699219 7.324219 14.824219 7.488281 C 13.945312 7.65625 13.25 7.714844 12.570312 7.773438 C 12.398438 7.785156 12.246094 7.660156 12.234375 7.484375 C 12.21875 7.3125 12.347656 7.160156 12.519531 7.144531 Z M 12.519531 7.144531 " fillOpacity="1" fillRule="nonzero"/></g><path fill="#ffffff" d="M 15.21875 7.113281 C 15.21875 9.9375 15.214844 12.753906 15.253906 15.359375 C 15.292969 17.964844 15.371094 20.355469 15.449219 22.75 C 15.453125 22.925781 15.316406 23.070312 15.144531 23.074219 C 14.972656 23.082031 14.828125 22.945312 14.820312 22.769531 C 14.742188 20.378906 14.664062 17.980469 14.625 15.371094 C 14.585938 12.757812 14.589844 9.933594 14.589844 7.113281 C 14.589844 6.941406 14.730469 6.800781 14.90625 6.800781 C 15.078125 6.800781 15.21875 6.941406 15.21875 7.113281 Z M 15.21875 7.113281 " fillOpacity="1" fillRule="nonzero"/><path fill="#ffffff" d="M 12.570312 26.039062 L 14.816406 22.644531 C 14.910156 22.5 15.105469 22.460938 15.25 22.554688 C 15.394531 22.652344 15.433594 22.847656 15.339844 22.992188 L 13.09375 26.386719 C 13 26.53125 12.804688 26.570312 12.660156 26.472656 C 12.515625 26.378906 12.476562 26.183594 12.570312 26.039062 Z M 12.570312 26.039062 " fillOpacity="1" fillRule="nonzero"/><g clipPath="url(#2e7c5c92d2)"><path fill="#ffffff" d="M 15.40625 22.488281 L 17.882812 23.925781 C 18.03125 24.015625 18.082031 24.207031 17.996094 24.355469 C 17.910156 24.507812 17.714844 24.558594 17.566406 24.46875 L 15.09375 23.03125 C 14.941406 22.945312 14.890625 22.753906 14.976562 22.601562 C 15.066406 22.453125 15.257812 22.402344 15.40625 22.488281 Z M 15.40625 22.488281 " fillOpacity="1" fillRule="nonzero"/></g><path fill="#ffffff" d="M 3.554688 8.40625 C 4.128906 6.414062 4.726562 4.304688 5.992188 2.996094 C 6.90625 2.054688 8.167969 1.523438 9.070312 1.523438 C 9.414062 1.523438 9.761719 1.601562 10 1.828125 C 10.691406 2.484375 10.03125 4.019531 9.636719 5.039062 C 9.574219 5.191406 9.515625 5.347656 9.457031 5.496094 C 8.976562 6.765625 8.699219 7.808594 8.417969 8.863281 C 8.375 9.03125 8.199219 9.128906 8.035156 9.085938 C 7.867188 9.039062 7.765625 8.867188 7.8125 8.703125 C 8.09375 7.644531 8.378906 6.574219 8.871094 5.273438 C 8.929688 5.121094 8.988281 4.964844 9.050781 4.808594 C 9.5625 3.496094 9.863281 2.566406 9.566406 2.285156 C 9.496094 2.21875 9.339844 2.152344 9.070312 2.152344 C 8.363281 2.152344 7.257812 2.589844 6.441406 3.433594 C 5.3125 4.601562 4.746094 6.535156 4.15625 8.582031 C 4.109375 8.75 3.9375 8.84375 3.769531 8.796875 C 3.601562 8.75 3.507812 8.574219 3.554688 8.40625 Z M 3.554688 8.40625 " fillOpacity="1" fillRule="nonzero"/><path fill="#ffffff" d="M 4.515625 8.179688 C 4.515625 8.359375 4.421875 8.496094 4.3125 8.585938 C 4.179688 8.695312 4.003906 8.75 3.828125 8.75 C 3.652344 8.75 3.472656 8.695312 3.339844 8.585938 C 3.234375 8.496094 3.140625 8.359375 3.140625 8.179688 C 3.140625 8 3.234375 7.859375 3.339844 7.769531 C 3.472656 7.660156 3.652344 7.605469 3.828125 7.605469 C 4.003906 7.605469 4.179688 7.660156 4.3125 7.769531 C 4.421875 7.859375 4.515625 8 4.515625 8.179688 M 3.886719 8.179688 C 3.886719 8.230469 3.914062 8.253906 3.914062 8.253906 C 3.910156 8.25 3.882812 8.234375 3.828125 8.234375 C 3.773438 8.234375 3.746094 8.25 3.742188 8.253906 C 3.738281 8.253906 3.765625 8.230469 3.765625 8.179688 C 3.765625 8.125 3.738281 8.101562 3.742188 8.101562 C 3.746094 8.105469 3.773438 8.125 3.828125 8.125 C 3.882812 8.125 3.910156 8.105469 3.914062 8.101562 C 3.914062 8.101562 3.886719 8.125 3.886719 8.179688 Z M 3.886719 8.179688 " fillOpacity="1" fillRule="nonzero"/><path fill="#ffffff" d="M 8.832031 8.695312 C 8.832031 8.875 8.738281 9.015625 8.628906 9.105469 C 8.496094 9.214844 8.320312 9.269531 8.144531 9.269531 C 7.96875 9.269531 7.789062 9.214844 7.65625 9.105469 C 7.550781 9.015625 7.457031 8.875 7.457031 8.695312 C 7.457031 8.515625 7.550781 8.375 7.65625 8.289062 C 7.789062 8.175781 7.96875 8.125 8.144531 8.125 C 8.320312 8.125 8.496094 8.175781 8.628906 8.289062 C 8.738281 8.375 8.832031 8.515625 8.832031 8.695312 M 8.203125 8.695312 C 8.203125 8.75 8.230469 8.773438 8.230469 8.773438 C 8.226562 8.769531 8.199219 8.75 8.144531 8.75 C 8.089844 8.75 8.058594 8.769531 8.054688 8.773438 C 8.054688 8.773438 8.082031 8.75 8.082031 8.695312 C 8.082031 8.644531 8.054688 8.617188 8.054688 8.621094 C 8.058594 8.625 8.089844 8.640625 8.144531 8.640625 C 8.199219 8.640625 8.226562 8.625 8.230469 8.621094 C 8.230469 8.617188 8.203125 8.644531 8.203125 8.695312 Z M 8.203125 8.695312 " fillOpacity="1" fillRule="nonzero"/><g clipPath="url(#c642a65405)"><path fill="#ffffff" d="M 12.949219 5.546875 C 13.78125 3.707031 14.457031 2.136719 14.109375 1.367188 C 13.945312 1.003906 13.476562 0.761719 12.835938 0.761719 C 12.359375 0.761719 11.84375 0.902344 11.421875 1.179688 C 10.433594 1.832031 9.902344 3.265625 9.332031 4.863281 C 9.273438 5.023438 9.09375 5.109375 8.929688 5.050781 C 8.765625 4.992188 8.679688 4.8125 8.738281 4.648438 C 9.285156 3.128906 9.875 1.445312 11.078125 0.652344 C 11.605469 0.304688 12.246094 0.132812 12.835938 0.132812 C 13.589844 0.132812 14.371094 0.421875 14.683594 1.109375 C 15.179688 2.207031 14.273438 4.140625 13.523438 5.804688 C 13.449219 5.964844 13.265625 6.035156 13.105469 5.960938 C 12.949219 5.890625 12.878906 5.703125 12.949219 5.546875 Z M 12.949219 5.546875 " fillOpacity="1" fillRule="nonzero"/></g></svg>