<svg xmlns="http://www.w3.org/2000/svg" xmlns:xlink="http://www.w3.org/1999/xlink" width="228" zoomAndPan="magnify" viewBox="0 0 171 23.25" height="31" preserveAspectRatio="xMidYMid meet" version="1.0"><defs><g/><clipPath id="1033a3a715"><path d="M 5 4 L 20 4 L 20 21 L 5 21 Z M 5 4 " clip-rule="nonzero"/></clipPath><clipPath id="2af34d1dbc"><path d="M 2.671875 4.414062 L 16.519531 0.0078125 L 22.027344 17.316406 L 8.179688 21.722656 Z M 2.671875 4.414062 " clip-rule="nonzero"/></clipPath><clipPath id="122a4cf19d"><path d="M 2.671875 4.414062 L 16.519531 0.0078125 L 22.027344 17.316406 L 8.179688 21.722656 Z M 2.671875 4.414062 " clip-rule="nonzero"/></clipPath><clipPath id="6e90b0fb65"><path d="M 2.671875 4.414062 L 16.519531 0.0078125 L 22.027344 17.316406 L 8.179688 21.722656 Z M 2.671875 4.414062 " clip-rule="nonzero"/></clipPath></defs><g clip-path="url(#1033a3a715)"><g clip-path="url(#2af34d1dbc)"><g clip-path="url(#122a4cf19d)"><g clip-path="url(#6e90b0fb65)"><path fill="#000000" d="M 19.148438 8.707031 C 18.082031 8.269531 15.992188 9.226562 14.78125 9.382812 C 13.480469 7.953125 12.640625 6.335938 11.5 4.816406 C 8.722656 2.484375 10.886719 9.835938 10.546875 10.941406 C 8.882812 11.347656 7.148438 11.875 5.570312 12.625 C 5.757812 14.09375 9.339844 14.144531 10.617188 14.605469 C 10.148438 16.445312 9.636719 17.832031 9.691406 19.722656 C 9.78125 20.527344 10.671875 20.929688 11.15625 20.167969 C 12.40625 18.761719 13.46875 17.179688 14.539062 15.632812 C 16.21875 15.796875 17.511719 16.957031 19.15625 17.046875 C 20.03125 15.125 17.945312 13.625 17.058594 12.109375 C 17.671875 11.070312 19.679688 9.972656 19.148438 8.707031 Z M 15.414062 12.011719 C 15.617188 12.722656 16.222656 13.023438 16.570312 13.523438 C 16.917969 14.03125 17.300781 14.511719 17.660156 14.992188 C 17.476562 15.292969 17.296875 15.117188 17.136719 15.066406 C 12.605469 13.339844 14.089844 14.933594 11.144531 18.101562 C 11.074219 18.066406 11.003906 18.03125 10.933594 17.996094 C 11.285156 16.53125 11.441406 15.503906 11.789062 14.039062 C 11.851562 13.769531 11.859375 13.679688 11.710938 13.492188 C 10.59375 13.378906 9.210938 13.253906 8.113281 12.800781 C 8.652344 12.695312 11.066406 11.738281 11.589844 11.714844 C 11.6875 10.160156 11.136719 8.765625 11.425781 7.234375 C 12.527344 8.542969 13.171875 9.46875 14.40625 10.582031 C 15.152344 10.59375 16.605469 9.875 17.339844 9.886719 C 17.476562 10.101562 15.71875 11.648438 15.414062 12.011719 Z M 15.414062 12.011719 " fill-opacity="1" fill-rule="nonzero"/></g></g></g></g><g fill="#000000" fill-opacity="1"><g transform="translate(30.194779, 14.848296)"><g><path d="M 8.71875 0.921875 C 8.59375 0.921875 8.476562 0.878906 8.375 0.796875 C 8.269531 0.710938 8.109375 0.492188 7.890625 0.140625 C 7.679688 -0.203125 7.296875 -0.921875 6.734375 -2.015625 C 6.171875 -3.109375 5.78125 -3.925781 5.5625 -4.46875 C 5.4375 -3.96875 5.082031 -2.484375 4.5 -0.015625 C 4.363281 0.609375 4.238281 1.019531 4.125 1.21875 C 4.007812 1.425781 3.835938 1.53125 3.609375 1.53125 C 3.285156 1.53125 3.023438 1.347656 2.828125 0.984375 C 2.628906 0.628906 2.320312 -0.195312 1.90625 -1.5 C 0.882812 -4.695312 0.375 -6.546875 0.375 -7.046875 C 0.375 -7.234375 0.441406 -7.390625 0.578125 -7.515625 C 0.710938 -7.640625 0.890625 -7.703125 1.109375 -7.703125 C 1.335938 -7.703125 1.492188 -7.625 1.578125 -7.46875 C 1.660156 -7.320312 1.828125 -6.738281 2.078125 -5.71875 C 2.328125 -4.695312 2.679688 -3.519531 3.140625 -2.1875 C 3.296875 -1.75 3.382812 -1.550781 3.40625 -1.59375 C 3.46875 -1.664062 3.65625 -2.410156 3.96875 -3.828125 C 4.289062 -5.242188 4.5 -6.109375 4.59375 -6.421875 C 4.695312 -6.742188 4.832031 -6.976562 5 -7.125 C 5.320312 -7.4375 5.582031 -7.519531 5.78125 -7.375 C 5.976562 -7.226562 6.207031 -6.757812 6.46875 -5.96875 C 6.738281 -5.1875 7.128906 -4.28125 7.640625 -3.25 C 8.160156 -2.226562 8.4375 -1.75 8.46875 -1.8125 C 8.507812 -1.9375 8.59375 -2.585938 8.71875 -3.765625 C 8.84375 -4.953125 8.921875 -5.828125 8.953125 -6.390625 C 8.984375 -6.953125 9.019531 -7.320312 9.0625 -7.5 C 9.101562 -7.675781 9.175781 -7.804688 9.28125 -7.890625 C 9.445312 -7.992188 9.578125 -8.046875 9.671875 -8.046875 C 9.773438 -8.046875 9.90625 -7.988281 10.0625 -7.875 C 10.21875 -7.757812 10.300781 -7.628906 10.3125 -7.484375 C 10.332031 -7.347656 10.320312 -6.894531 10.28125 -6.125 C 10.238281 -5.351562 10.117188 -4.144531 9.921875 -2.5 C 9.722656 -0.851562 9.59375 0.0625 9.53125 0.25 C 9.351562 0.695312 9.082031 0.921875 8.71875 0.921875 Z M 8.71875 0.921875 "/></g></g></g><g fill="#000000" fill-opacity="1"><g transform="translate(40.912152, 14.848296)"><g><path d="M 3.578125 -4.125 C 3.023438 -4.351562 2.644531 -4.347656 2.4375 -4.109375 C 2.3125 -3.953125 2.320312 -3.851562 2.46875 -3.8125 C 2.625 -3.769531 2.953125 -3.734375 3.453125 -3.703125 C 3.929688 -3.671875 4.140625 -3.710938 4.078125 -3.828125 C 4.046875 -3.898438 3.878906 -4 3.578125 -4.125 Z M 5.96875 -3.40625 C 5.96875 -3.21875 5.84375 -3.019531 5.59375 -2.8125 C 5.34375 -2.601562 5.078125 -2.472656 4.796875 -2.421875 C 4.515625 -2.367188 3.992188 -2.335938 3.234375 -2.328125 C 2.472656 -2.328125 2.035156 -2.347656 1.921875 -2.390625 C 1.804688 -2.441406 1.75 -2.453125 1.75 -2.421875 L 1.90625 -2.03125 C 2.101562 -1.550781 2.34375 -1.28125 2.625 -1.21875 C 2.90625 -1.175781 3.335938 -1.28125 3.921875 -1.53125 C 4.503906 -1.78125 4.859375 -1.914062 4.984375 -1.9375 C 5.117188 -1.957031 5.269531 -1.914062 5.4375 -1.8125 C 5.613281 -1.707031 5.707031 -1.535156 5.71875 -1.296875 C 5.738281 -1.066406 5.671875 -0.882812 5.515625 -0.75 C 5.367188 -0.613281 5.046875 -0.4375 4.546875 -0.21875 C 4.046875 -0.0078125 3.695312 0.113281 3.5 0.15625 C 3.300781 0.195312 3.003906 0.203125 2.609375 0.171875 C 2.222656 0.140625 1.867188 0.015625 1.546875 -0.203125 C 1.234375 -0.421875 0.96875 -0.742188 0.75 -1.171875 C 0.53125 -1.609375 0.40625 -2.0625 0.375 -2.53125 C 0.351562 -2.988281 0.414062 -3.390625 0.5625 -3.734375 C 0.707031 -4.078125 0.925781 -4.441406 1.21875 -4.828125 C 1.519531 -5.210938 1.78125 -5.457031 2 -5.5625 C 2.226562 -5.664062 2.578125 -5.703125 3.046875 -5.671875 C 3.515625 -5.640625 3.894531 -5.554688 4.1875 -5.421875 C 4.6875 -5.171875 5.109375 -4.851562 5.453125 -4.46875 C 5.796875 -4.09375 5.96875 -3.738281 5.96875 -3.40625 Z M 5.96875 -3.40625 "/></g></g></g><g fill="#000000" fill-opacity="1"><g transform="translate(47.252532, 14.848296)"><g><path d="M 1.0625 -9.03125 C 1.40625 -9.03125 1.617188 -8.835938 1.703125 -8.453125 C 1.785156 -8.066406 1.84375 -6.96875 1.875 -5.15625 C 1.914062 -3.34375 1.972656 -2.28125 2.046875 -1.96875 C 2.117188 -1.664062 2.265625 -1.476562 2.484375 -1.40625 C 2.566406 -1.382812 2.757812 -1.347656 3.0625 -1.296875 C 3.375 -1.242188 3.601562 -1.164062 3.75 -1.0625 C 3.894531 -0.957031 3.96875 -0.800781 3.96875 -0.59375 C 3.96875 -0.144531 3.644531 0.078125 3 0.078125 C 2.5 0.078125 2.046875 -0.03125 1.640625 -0.25 C 1.242188 -0.46875 0.945312 -0.773438 0.75 -1.171875 C 0.644531 -1.359375 0.570312 -1.75 0.53125 -2.34375 C 0.488281 -2.945312 0.445312 -3.992188 0.40625 -5.484375 C 0.375 -6.972656 0.367188 -7.882812 0.390625 -8.21875 C 0.398438 -8.550781 0.453125 -8.769531 0.546875 -8.875 C 0.648438 -8.976562 0.820312 -9.03125 1.0625 -9.03125 Z M 1.0625 -9.03125 "/></g></g></g><g fill="#000000" fill-opacity="1"><g transform="translate(51.604512, 14.848296)"><g><path d="M 1.0625 -9.03125 C 1.40625 -9.03125 1.617188 -8.835938 1.703125 -8.453125 C 1.785156 -8.066406 1.84375 -6.96875 1.875 -5.15625 C 1.914062 -3.34375 1.972656 -2.28125 2.046875 -1.96875 C 2.117188 -1.664062 2.265625 -1.476562 2.484375 -1.40625 C 2.566406 -1.382812 2.757812 -1.347656 3.0625 -1.296875 C 3.375 -1.242188 3.601562 -1.164062 3.75 -1.0625 C 3.894531 -0.957031 3.96875 -0.800781 3.96875 -0.59375 C 3.96875 -0.144531 3.644531 0.078125 3 0.078125 C 2.5 0.078125 2.046875 -0.03125 1.640625 -0.25 C 1.242188 -0.46875 0.945312 -0.773438 0.75 -1.171875 C 0.644531 -1.359375 0.570312 -1.75 0.53125 -2.34375 C 0.488281 -2.945312 0.445312 -3.992188 0.40625 -5.484375 C 0.375 -6.972656 0.367188 -7.882812 0.390625 -8.21875 C 0.398438 -8.550781 0.453125 -8.769531 0.546875 -8.875 C 0.648438 -8.976562 0.820312 -9.03125 1.0625 -9.03125 Z M 1.0625 -9.03125 "/></g></g></g><g fill="#000000" fill-opacity="1"><g transform="translate(55.956493, 14.848296)"><g/></g></g><g fill="#000000" fill-opacity="1"><g transform="translate(60.608609, 14.848296)"><g><path d="M 3.75 1.015625 C 3.71875 1.117188 3.695312 1.101562 3.6875 0.96875 C 3.664062 0.71875 3.675781 0.59375 3.71875 0.59375 C 3.726562 0.59375 3.738281 0.625 3.75 0.6875 C 3.769531 0.757812 3.769531 0.867188 3.75 1.015625 Z M 3.140625 -3.875 C 2.734375 -4.070312 2.519531 -4.171875 2.5 -4.171875 C 2.488281 -4.171875 2.363281 -4.035156 2.125 -3.765625 C 1.894531 -3.503906 1.789062 -3.203125 1.8125 -2.859375 C 1.832031 -2.515625 1.972656 -2.207031 2.234375 -1.9375 C 2.503906 -1.675781 2.773438 -1.5 3.046875 -1.40625 C 3.328125 -1.320312 3.5 -1.285156 3.5625 -1.296875 C 3.625 -1.316406 3.722656 -1.398438 3.859375 -1.546875 C 4.222656 -1.972656 4.320312 -2.445312 4.15625 -2.96875 C 4.09375 -3.175781 4.007812 -3.328125 3.90625 -3.421875 C 3.8125 -3.523438 3.554688 -3.675781 3.140625 -3.875 Z M 4.15625 -7.75 C 4.175781 -8.164062 4.238281 -8.441406 4.34375 -8.578125 C 4.46875 -8.710938 4.640625 -8.78125 4.859375 -8.78125 C 5.085938 -8.78125 5.253906 -8.71875 5.359375 -8.59375 C 5.441406 -8.414062 5.507812 -8.117188 5.5625 -7.703125 C 5.613281 -7.296875 5.660156 -6.847656 5.703125 -6.359375 C 5.753906 -5.867188 5.804688 -5.425781 5.859375 -5.03125 C 5.921875 -4.644531 5.984375 -3.828125 6.046875 -2.578125 C 6.117188 -1.328125 6.148438 -0.539062 6.140625 -0.21875 C 6.128906 0.09375 6.085938 0.300781 6.015625 0.40625 C 5.847656 0.65625 5.617188 0.738281 5.328125 0.65625 C 5.046875 0.570312 4.875 0.378906 4.8125 0.078125 L 4.71875 -0.28125 C 4.257812 0.03125 3.507812 0.195312 2.46875 0.21875 L 1.609375 -0.609375 C 1.023438 -1.179688 0.648438 -1.707031 0.484375 -2.1875 C 0.316406 -2.675781 0.34375 -3.210938 0.5625 -3.796875 C 0.8125 -4.535156 1.222656 -5.050781 1.796875 -5.34375 C 2.109375 -5.5 2.335938 -5.664062 2.484375 -5.84375 C 2.640625 -6.03125 2.816406 -6.113281 3.015625 -6.09375 C 3.222656 -6.082031 3.367188 -6.039062 3.453125 -5.96875 C 3.535156 -5.90625 3.640625 -5.734375 3.765625 -5.453125 C 3.898438 -5.171875 4.039062 -4.992188 4.1875 -4.921875 C 4.34375 -4.859375 4.429688 -4.859375 4.453125 -4.921875 C 4.460938 -5.023438 4.410156 -5.414062 4.296875 -6.09375 C 4.179688 -6.78125 4.132812 -7.332031 4.15625 -7.75 Z M 4.15625 -7.75 "/></g></g></g><g fill="#000000" fill-opacity="1"><g transform="translate(67.124069, 14.848296)"><g><path d="M 3.125 -4.0625 C 2.882812 -4.300781 2.640625 -4.328125 2.390625 -4.140625 C 2.140625 -3.960938 1.9375 -3.597656 1.78125 -3.046875 C 1.632812 -2.492188 1.671875 -1.984375 1.890625 -1.515625 C 2.109375 -1.054688 2.394531 -0.875 2.75 -0.96875 C 2.976562 -1.019531 3.140625 -1.09375 3.234375 -1.1875 C 3.335938 -1.289062 3.429688 -1.492188 3.515625 -1.796875 C 3.597656 -2.097656 3.597656 -2.503906 3.515625 -3.015625 C 3.429688 -3.535156 3.300781 -3.882812 3.125 -4.0625 Z M 0.390625 -2.765625 C 0.421875 -3.421875 0.585938 -4.015625 0.890625 -4.546875 C 1.191406 -5.078125 1.578125 -5.4375 2.046875 -5.625 C 2.523438 -5.820312 3.222656 -5.671875 4.140625 -5.171875 C 4.617188 -4.910156 4.925781 -4.6875 5.0625 -4.5 C 5.195312 -4.3125 5.203125 -4.101562 5.078125 -3.875 C 4.960938 -3.644531 4.914062 -3.195312 4.9375 -2.53125 C 4.988281 -0.945312 4.425781 0.015625 3.25 0.359375 C 2.363281 0.617188 1.601562 0.382812 0.96875 -0.34375 C 0.707031 -0.644531 0.535156 -0.960938 0.453125 -1.296875 C 0.378906 -1.628906 0.359375 -2.117188 0.390625 -2.765625 Z M 0.390625 -2.765625 "/></g></g></g><g fill="#000000" fill-opacity="1"><g transform="translate(72.676591, 14.848296)"><g><path d="M 5.140625 -0.78125 C 4.910156 -0.78125 4.738281 -0.882812 4.625 -1.09375 C 4.507812 -1.3125 4.394531 -1.710938 4.28125 -2.296875 C 4.09375 -3.328125 3.867188 -3.921875 3.609375 -4.078125 C 3.554688 -4.109375 3.5 -4.101562 3.4375 -4.0625 C 3.226562 -3.894531 3 -3.109375 2.75 -1.703125 C 2.664062 -1.242188 2.539062 -0.894531 2.375 -0.65625 C 2.207031 -0.414062 2.03125 -0.3125 1.84375 -0.34375 C 1.65625 -0.382812 1.550781 -0.40625 1.53125 -0.40625 C 1.425781 -0.40625 1.332031 -0.550781 1.25 -0.84375 C 1.164062 -1.144531 1.070312 -1.71875 0.96875 -2.5625 C 0.875 -3.40625 0.738281 -4.019531 0.5625 -4.40625 C 0.269531 -5.082031 0.3125 -5.515625 0.6875 -5.703125 C 1.082031 -5.910156 1.445312 -5.726562 1.78125 -5.15625 L 2.0625 -4.65625 L 2.453125 -5.0625 C 2.648438 -5.289062 2.890625 -5.453125 3.171875 -5.546875 C 3.453125 -5.648438 3.710938 -5.664062 3.953125 -5.59375 C 4.335938 -5.46875 4.671875 -5.175781 4.953125 -4.71875 C 5.234375 -4.269531 5.445312 -3.660156 5.59375 -2.890625 C 5.75 -2.128906 5.796875 -1.585938 5.734375 -1.265625 C 5.671875 -0.941406 5.472656 -0.78125 5.140625 -0.78125 Z M 5.140625 -0.78125 "/></g></g></g><g fill="#000000" fill-opacity="1"><g transform="translate(78.816886, 14.848296)"><g><path d="M 3.578125 -4.125 C 3.023438 -4.351562 2.644531 -4.347656 2.4375 -4.109375 C 2.3125 -3.953125 2.320312 -3.851562 2.46875 -3.8125 C 2.625 -3.769531 2.953125 -3.734375 3.453125 -3.703125 C 3.929688 -3.671875 4.140625 -3.710938 4.078125 -3.828125 C 4.046875 -3.898438 3.878906 -4 3.578125 -4.125 Z M 5.96875 -3.40625 C 5.96875 -3.21875 5.84375 -3.019531 5.59375 -2.8125 C 5.34375 -2.601562 5.078125 -2.472656 4.796875 -2.421875 C 4.515625 -2.367188 3.992188 -2.335938 3.234375 -2.328125 C 2.472656 -2.328125 2.035156 -2.347656 1.921875 -2.390625 C 1.804688 -2.441406 1.75 -2.453125 1.75 -2.421875 L 1.90625 -2.03125 C 2.101562 -1.550781 2.34375 -1.28125 2.625 -1.21875 C 2.90625 -1.175781 3.335938 -1.28125 3.921875 -1.53125 C 4.503906 -1.78125 4.859375 -1.914062 4.984375 -1.9375 C 5.117188 -1.957031 5.269531 -1.914062 5.4375 -1.8125 C 5.613281 -1.707031 5.707031 -1.535156 5.71875 -1.296875 C 5.738281 -1.066406 5.671875 -0.882812 5.515625 -0.75 C 5.367188 -0.613281 5.046875 -0.4375 4.546875 -0.21875 C 4.046875 -0.0078125 3.695312 0.113281 3.5 0.15625 C 3.300781 0.195312 3.003906 0.203125 2.609375 0.171875 C 2.222656 0.140625 1.867188 0.015625 1.546875 -0.203125 C 1.234375 -0.421875 0.96875 -0.742188 0.75 -1.171875 C 0.53125 -1.609375 0.40625 -2.0625 0.375 -2.53125 C 0.351562 -2.988281 0.414062 -3.390625 0.5625 -3.734375 C 0.707031 -4.078125 0.925781 -4.441406 1.21875 -4.828125 C 1.519531 -5.210938 1.78125 -5.457031 2 -5.5625 C 2.226562 -5.664062 2.578125 -5.703125 3.046875 -5.671875 C 3.515625 -5.640625 3.894531 -5.554688 4.1875 -5.421875 C 4.6875 -5.171875 5.109375 -4.851562 5.453125 -4.46875 C 5.796875 -4.09375 5.96875 -3.738281 5.96875 -3.40625 Z M 5.96875 -3.40625 "/></g></g></g><g fill="#000000" fill-opacity="1"><g transform="translate(85.157266, 14.848296)"><g/></g></g><g fill="#000000" fill-opacity="1"><g transform="translate(89.809382, 14.848296)"><g><path d="M 2.078125 -2.1875 L 2.078125 -3.8125 L 1.40625 -3.8125 C 1.050781 -3.820312 0.789062 -3.875 0.625 -3.96875 C 0.457031 -4.070312 0.375 -4.238281 0.375 -4.46875 C 0.375 -4.707031 0.441406 -4.867188 0.578125 -4.953125 C 0.710938 -5.046875 0.976562 -5.113281 1.375 -5.15625 L 2.140625 -5.21875 L 2.21875 -6.109375 C 2.34375 -7.234375 2.632812 -7.957031 3.09375 -8.28125 C 3.34375 -8.457031 3.632812 -8.53125 3.96875 -8.5 C 4.300781 -8.46875 4.742188 -8.320312 5.296875 -8.0625 C 5.847656 -7.800781 6.191406 -7.578125 6.328125 -7.390625 C 6.460938 -7.210938 6.46875 -7.003906 6.34375 -6.765625 C 6.226562 -6.535156 6.0625 -6.421875 5.84375 -6.421875 C 5.632812 -6.421875 5.257812 -6.535156 4.71875 -6.765625 C 4.175781 -7.003906 3.875 -7.09375 3.8125 -7.03125 C 3.75 -6.9375 3.6875 -6.359375 3.625 -5.296875 C 4.34375 -5.203125 4.773438 -5.15625 4.921875 -5.15625 C 5.078125 -5.15625 5.226562 -5.078125 5.375 -4.921875 C 5.519531 -4.773438 5.59375 -4.585938 5.59375 -4.359375 C 5.59375 -4.140625 5.507812 -3.988281 5.34375 -3.90625 C 5.175781 -3.820312 4.859375 -3.785156 4.390625 -3.796875 L 3.5625 -3.828125 C 3.457031 -2.710938 3.445312 -1.734375 3.53125 -0.890625 C 3.613281 -0.046875 3.644531 0.441406 3.625 0.578125 C 3.601562 0.710938 3.523438 0.835938 3.390625 0.953125 C 3.265625 1.066406 3.117188 1.113281 2.953125 1.09375 C 2.773438 1.082031 2.613281 1.007812 2.46875 0.875 C 2.207031 0.632812 2.078125 -0.382812 2.078125 -2.1875 Z M 2.078125 -2.1875 "/></g></g></g><g fill="#000000" fill-opacity="1"><g transform="translate(96.624977, 14.848296)"><g><path d="M 3.125 -4.0625 C 2.882812 -4.300781 2.640625 -4.328125 2.390625 -4.140625 C 2.140625 -3.960938 1.9375 -3.597656 1.78125 -3.046875 C 1.632812 -2.492188 1.671875 -1.984375 1.890625 -1.515625 C 2.109375 -1.054688 2.394531 -0.875 2.75 -0.96875 C 2.976562 -1.019531 3.140625 -1.09375 3.234375 -1.1875 C 3.335938 -1.289062 3.429688 -1.492188 3.515625 -1.796875 C 3.597656 -2.097656 3.597656 -2.503906 3.515625 -3.015625 C 3.429688 -3.535156 3.300781 -3.882812 3.125 -4.0625 Z M 0.390625 -2.765625 C 0.421875 -3.421875 0.585938 -4.015625 0.890625 -4.546875 C 1.191406 -5.078125 1.578125 -5.4375 2.046875 -5.625 C 2.523438 -5.820312 3.222656 -5.671875 4.140625 -5.171875 C 4.617188 -4.910156 4.925781 -4.6875 5.0625 -4.5 C 5.195312 -4.3125 5.203125 -4.101562 5.078125 -3.875 C 4.960938 -3.644531 4.914062 -3.195312 4.9375 -2.53125 C 4.988281 -0.945312 4.425781 0.015625 3.25 0.359375 C 2.363281 0.617188 1.601562 0.382812 0.96875 -0.34375 C 0.707031 -0.644531 0.535156 -0.960938 0.453125 -1.296875 C 0.378906 -1.628906 0.359375 -2.117188 0.390625 -2.765625 Z M 0.390625 -2.765625 "/></g></g></g><g fill="#000000" fill-opacity="1"><g transform="translate(102.177499, 14.848296)"><g><path d="M 1.734375 -5.421875 C 1.773438 -5.367188 1.8125 -5.34375 1.84375 -5.34375 C 1.882812 -5.34375 1.90625 -5.351562 1.90625 -5.375 C 1.914062 -5.394531 1.9375 -5.457031 1.96875 -5.5625 C 2.007812 -5.664062 2.15625 -5.816406 2.40625 -6.015625 C 2.65625 -6.222656 2.875 -6.351562 3.0625 -6.40625 C 3.476562 -6.5 3.96875 -6.488281 4.53125 -6.375 C 5.101562 -6.257812 5.445312 -6.085938 5.5625 -5.859375 C 5.738281 -5.535156 5.707031 -5.265625 5.46875 -5.046875 C 5.238281 -4.828125 4.957031 -4.769531 4.625 -4.875 C 4.289062 -4.988281 4.003906 -5.03125 3.765625 -5 C 3.535156 -4.976562 3.378906 -4.921875 3.296875 -4.828125 C 3.210938 -4.742188 3.070312 -4.5 2.875 -4.09375 C 2.6875 -3.695312 2.570312 -3.394531 2.53125 -3.1875 C 2.488281 -2.976562 2.460938 -2.570312 2.453125 -1.96875 C 2.453125 -1.375 2.4375 -0.992188 2.40625 -0.828125 C 2.382812 -0.660156 2.320312 -0.539062 2.21875 -0.46875 C 2.039062 -0.34375 1.859375 -0.285156 1.671875 -0.296875 C 1.492188 -0.316406 1.351562 -0.40625 1.25 -0.5625 C 1.164062 -0.800781 1.070312 -1.351562 0.96875 -2.21875 C 0.875 -3.09375 0.757812 -3.742188 0.625 -4.171875 C 0.488281 -4.609375 0.40625 -4.941406 0.375 -5.171875 C 0.351562 -5.410156 0.375 -5.578125 0.4375 -5.671875 C 0.507812 -5.773438 0.632812 -5.847656 0.8125 -5.890625 C 0.988281 -5.941406 1.117188 -5.953125 1.203125 -5.921875 C 1.285156 -5.890625 1.382812 -5.804688 1.5 -5.671875 C 1.613281 -5.554688 1.691406 -5.472656 1.734375 -5.421875 Z M 1.734375 -5.421875 "/></g></g></g><g fill="#000000" fill-opacity="1"><g transform="translate(108.217743, 14.848296)"><g/></g></g><g fill="#000000" fill-opacity="1"><g transform="translate(112.869859, 14.848296)"><g><path d="M 1.5 -5.1875 C 1.53125 -5.289062 1.546875 -5.617188 1.546875 -6.171875 C 1.546875 -6.722656 1.613281 -7.070312 1.75 -7.21875 C 1.882812 -7.375 2.078125 -7.453125 2.328125 -7.453125 C 2.578125 -7.453125 2.75 -7.34375 2.84375 -7.125 C 2.945312 -6.90625 3.003906 -6.539062 3.015625 -6.03125 L 3.015625 -5.15625 L 3.71875 -5.15625 C 4.101562 -5.15625 4.367188 -5.101562 4.515625 -5 C 4.671875 -4.894531 4.742188 -4.71875 4.734375 -4.46875 C 4.722656 -4.21875 4.648438 -4.039062 4.515625 -3.9375 C 4.390625 -3.84375 4.132812 -3.800781 3.75 -3.8125 C 3.363281 -3.820312 3.144531 -3.800781 3.09375 -3.75 C 3.050781 -3.695312 3.101562 -3.195312 3.25 -2.25 C 3.394531 -1.3125 3.507812 -0.804688 3.59375 -0.734375 C 3.675781 -0.660156 3.863281 -0.726562 4.15625 -0.9375 C 4.613281 -1.289062 4.972656 -1.332031 5.234375 -1.0625 C 5.390625 -0.90625 5.453125 -0.707031 5.421875 -0.46875 C 5.390625 -0.238281 5.265625 -0.03125 5.046875 0.15625 C 4.078125 0.957031 3.257812 0.960938 2.59375 0.171875 C 2.382812 -0.0546875 2.222656 -0.382812 2.109375 -0.8125 C 1.992188 -1.25 1.894531 -1.796875 1.8125 -2.453125 C 1.738281 -3.097656 1.675781 -3.445312 1.625 -3.5 C 1.570312 -3.550781 1.4375 -3.578125 1.21875 -3.578125 C 1.007812 -3.578125 0.863281 -3.59375 0.78125 -3.625 C 0.695312 -3.664062 0.609375 -3.75 0.515625 -3.875 C 0.328125 -4.144531 0.320312 -4.40625 0.5 -4.65625 C 0.675781 -4.90625 0.945312 -5.03125 1.3125 -5.03125 C 1.414062 -5.03125 1.476562 -5.082031 1.5 -5.1875 Z M 1.5 -5.1875 "/></g></g></g><g fill="#000000" fill-opacity="1"><g transform="translate(118.685006, 14.848296)"><g><path d="M 3.125 -4.0625 C 2.882812 -4.300781 2.640625 -4.328125 2.390625 -4.140625 C 2.140625 -3.960938 1.9375 -3.597656 1.78125 -3.046875 C 1.632812 -2.492188 1.671875 -1.984375 1.890625 -1.515625 C 2.109375 -1.054688 2.394531 -0.875 2.75 -0.96875 C 2.976562 -1.019531 3.140625 -1.09375 3.234375 -1.1875 C 3.335938 -1.289062 3.429688 -1.492188 3.515625 -1.796875 C 3.597656 -2.097656 3.597656 -2.503906 3.515625 -3.015625 C 3.429688 -3.535156 3.300781 -3.882812 3.125 -4.0625 Z M 0.390625 -2.765625 C 0.421875 -3.421875 0.585938 -4.015625 0.890625 -4.546875 C 1.191406 -5.078125 1.578125 -5.4375 2.046875 -5.625 C 2.523438 -5.820312 3.222656 -5.671875 4.140625 -5.171875 C 4.617188 -4.910156 4.925781 -4.6875 5.0625 -4.5 C 5.195312 -4.3125 5.203125 -4.101562 5.078125 -3.875 C 4.960938 -3.644531 4.914062 -3.195312 4.9375 -2.53125 C 4.988281 -0.945312 4.425781 0.015625 3.25 0.359375 C 2.363281 0.617188 1.601562 0.382812 0.96875 -0.34375 C 0.707031 -0.644531 0.535156 -0.960938 0.453125 -1.296875 C 0.378906 -1.628906 0.359375 -2.117188 0.390625 -2.765625 Z M 0.390625 -2.765625 "/></g></g></g><g fill="#000000" fill-opacity="1"><g transform="translate(124.237528, 14.848296)"><g><path d="M 3.75 1.015625 C 3.71875 1.117188 3.695312 1.101562 3.6875 0.96875 C 3.664062 0.71875 3.675781 0.59375 3.71875 0.59375 C 3.726562 0.59375 3.738281 0.625 3.75 0.6875 C 3.769531 0.757812 3.769531 0.867188 3.75 1.015625 Z M 3.140625 -3.875 C 2.734375 -4.070312 2.519531 -4.171875 2.5 -4.171875 C 2.488281 -4.171875 2.363281 -4.035156 2.125 -3.765625 C 1.894531 -3.503906 1.789062 -3.203125 1.8125 -2.859375 C 1.832031 -2.515625 1.972656 -2.207031 2.234375 -1.9375 C 2.503906 -1.675781 2.773438 -1.5 3.046875 -1.40625 C 3.328125 -1.320312 3.5 -1.285156 3.5625 -1.296875 C 3.625 -1.316406 3.722656 -1.398438 3.859375 -1.546875 C 4.222656 -1.972656 4.320312 -2.445312 4.15625 -2.96875 C 4.09375 -3.175781 4.007812 -3.328125 3.90625 -3.421875 C 3.8125 -3.523438 3.554688 -3.675781 3.140625 -3.875 Z M 4.15625 -7.75 C 4.175781 -8.164062 4.238281 -8.441406 4.34375 -8.578125 C 4.46875 -8.710938 4.640625 -8.78125 4.859375 -8.78125 C 5.085938 -8.78125 5.253906 -8.71875 5.359375 -8.59375 C 5.441406 -8.414062 5.507812 -8.117188 5.5625 -7.703125 C 5.613281 -7.296875 5.660156 -6.847656 5.703125 -6.359375 C 5.753906 -5.867188 5.804688 -5.425781 5.859375 -5.03125 C 5.921875 -4.644531 5.984375 -3.828125 6.046875 -2.578125 C 6.117188 -1.328125 6.148438 -0.539062 6.140625 -0.21875 C 6.128906 0.09375 6.085938 0.300781 6.015625 0.40625 C 5.847656 0.65625 5.617188 0.738281 5.328125 0.65625 C 5.046875 0.570312 4.875 0.378906 4.8125 0.078125 L 4.71875 -0.28125 C 4.257812 0.03125 3.507812 0.195312 2.46875 0.21875 L 1.609375 -0.609375 C 1.023438 -1.179688 0.648438 -1.707031 0.484375 -2.1875 C 0.316406 -2.675781 0.34375 -3.210938 0.5625 -3.796875 C 0.8125 -4.535156 1.222656 -5.050781 1.796875 -5.34375 C 2.109375 -5.5 2.335938 -5.664062 2.484375 -5.84375 C 2.640625 -6.03125 2.816406 -6.113281 3.015625 -6.09375 C 3.222656 -6.082031 3.367188 -6.039062 3.453125 -5.96875 C 3.535156 -5.90625 3.640625 -5.734375 3.765625 -5.453125 C 3.898438 -5.171875 4.039062 -4.992188 4.1875 -4.921875 C 4.34375 -4.859375 4.429688 -4.859375 4.453125 -4.921875 C 4.460938 -5.023438 4.410156 -5.414062 4.296875 -6.09375 C 4.179688 -6.78125 4.132812 -7.332031 4.15625 -7.75 Z M 4.15625 -7.75 "/></g></g></g><g fill="#000000" fill-opacity="1"><g transform="translate(130.752988, 14.848296)"><g><path d="M 2.71875 -1.5 C 2.832031 -1.5 3 -1.671875 3.21875 -2.015625 C 3.445312 -2.367188 3.628906 -2.742188 3.765625 -3.140625 C 3.898438 -3.546875 3.96875 -3.820312 3.96875 -3.96875 C 3.96875 -4.125 3.90625 -4.257812 3.78125 -4.375 C 3.40625 -4.5625 3.066406 -4.578125 2.765625 -4.421875 C 2.460938 -4.273438 2.21875 -4.015625 2.03125 -3.640625 C 1.851562 -3.273438 1.789062 -2.914062 1.84375 -2.5625 C 1.882812 -2.351562 2.003906 -2.125 2.203125 -1.875 C 2.410156 -1.625 2.582031 -1.5 2.71875 -1.5 Z M 6.03125 -2.65625 C 6.28125 -1.445312 6.40625 -0.71875 6.40625 -0.46875 C 6.40625 -0.21875 6.351562 -0.046875 6.25 0.046875 C 6.144531 0.148438 5.96875 0.203125 5.71875 0.203125 C 5.476562 0.203125 5.3125 0.132812 5.21875 0 C 5.132812 -0.132812 5.039062 -0.457031 4.9375 -0.96875 C 4.832031 -1.488281 4.757812 -1.75 4.71875 -1.75 C 4.695312 -1.75 4.566406 -1.566406 4.328125 -1.203125 C 3.898438 -0.515625 3.34375 -0.171875 2.65625 -0.171875 C 1.976562 -0.171875 1.410156 -0.519531 0.953125 -1.21875 C 0.609375 -1.757812 0.421875 -2.242188 0.390625 -2.671875 C 0.359375 -3.109375 0.445312 -3.550781 0.65625 -4 C 0.875 -4.445312 1.15625 -4.84375 1.5 -5.1875 C 1.84375 -5.539062 2.144531 -5.757812 2.40625 -5.84375 C 3.113281 -6.082031 3.851562 -5.96875 4.625 -5.5 C 5.070312 -5.226562 5.351562 -4.984375 5.46875 -4.765625 C 5.59375 -4.554688 5.78125 -3.851562 6.03125 -2.65625 Z M 6.03125 -2.65625 "/></g></g></g><g fill="#000000" fill-opacity="1"><g transform="translate(137.54358, 14.848296)"><g><path d="M 2.96875 2.5 C 2.632812 2.5 2.445312 2.320312 2.40625 1.96875 C 2.375 1.625 2.5 1.039062 2.78125 0.21875 L 3.0625 -0.625 C 2.726562 -1.0625 2.335938 -1.644531 1.890625 -2.375 C 1.453125 -3.101562 1.109375 -3.660156 0.859375 -4.046875 C 0.609375 -4.429688 0.457031 -4.6875 0.40625 -4.8125 C 0.320312 -5.039062 0.382812 -5.253906 0.59375 -5.453125 C 0.800781 -5.648438 1.03125 -5.71875 1.28125 -5.65625 C 1.394531 -5.613281 1.644531 -5.316406 2.03125 -4.765625 C 2.425781 -4.222656 2.789062 -3.664062 3.125 -3.09375 C 3.457031 -2.53125 3.648438 -2.242188 3.703125 -2.234375 C 3.753906 -2.234375 3.984375 -2.664062 4.390625 -3.53125 C 4.785156 -4.382812 5.03125 -4.960938 5.125 -5.265625 C 5.21875 -5.566406 5.289062 -5.757812 5.34375 -5.84375 C 5.425781 -5.96875 5.601562 -6.019531 5.875 -6 C 6.144531 -5.976562 6.316406 -5.898438 6.390625 -5.765625 C 6.546875 -5.484375 6.554688 -5.144531 6.421875 -4.75 C 6.285156 -4.351562 5.910156 -3.488281 5.296875 -2.15625 C 4.679688 -0.820312 4.269531 0.191406 4.0625 0.890625 C 3.851562 1.597656 3.679688 2.039062 3.546875 2.21875 C 3.410156 2.40625 3.21875 2.5 2.96875 2.5 Z M 2.96875 2.5 "/></g></g></g><g fill="#000000" fill-opacity="1"><g transform="translate(144.450948, 14.848296)"><g/></g></g></svg>