<svg xmlns="http://www.w3.org/2000/svg" xmlns:xlink="http://www.w3.org/1999/xlink" width="103" zoomAndPan="magnify" viewBox="0 0 77.25 50.249999" height="67" preserveAspectRatio="xMidYMid meet" version="1.0"><defs><g/></defs><g fill="#000000" fillOpacity="1"><g transform="translate(7.937322, 34.715112)"><g><path d="M 0.140625 -12.890625 L 0.125 -13.59375 C 0.125 -13.875 0.15625 -14.148438 0.21875 -14.421875 C 0.289062 -14.691406 0.40625 -14.921875 0.5625 -15.109375 C 0.71875 -15.304688 0.941406 -15.40625 1.234375 -15.40625 C 1.554688 -15.40625 1.785156 -15.273438 1.921875 -15.015625 C 2.066406 -14.753906 2.144531 -14.484375 2.15625 -14.203125 L 2.1875 -11.21875 C 2.1875 -11.132812 2.203125 -10.9375 2.234375 -10.625 C 2.265625 -10.320312 2.300781 -9.976562 2.34375 -9.59375 C 2.394531 -9.207031 2.441406 -8.820312 2.484375 -8.4375 C 2.523438 -8.0625 2.570312 -7.789062 2.625 -7.625 C 2.65625 -7.351562 2.707031 -6.957031 2.78125 -6.4375 C 2.851562 -5.925781 2.925781 -5.414062 3 -4.90625 C 3.082031 -4.40625 3.164062 -3.957031 3.25 -3.5625 C 3.34375 -3.175781 3.429688 -2.984375 3.515625 -2.984375 C 3.679688 -2.984375 3.882812 -3.15625 4.125 -3.5 C 4.363281 -3.851562 4.609375 -4.28125 4.859375 -4.78125 C 5.117188 -5.289062 5.378906 -5.835938 5.640625 -6.421875 C 5.910156 -7.003906 6.1875 -7.550781 6.46875 -8.0625 C 6.75 -8.570312 7.007812 -9 7.25 -9.34375 C 7.5 -9.6875 7.738281 -9.863281 7.96875 -9.875 C 8.175781 -9.875 8.363281 -9.773438 8.53125 -9.578125 C 8.707031 -9.378906 8.796875 -9.179688 8.796875 -8.984375 C 8.796875 -8.503906 8.757812 -8.007812 8.6875 -7.5 C 8.613281 -7 8.523438 -6.503906 8.421875 -6.015625 C 8.316406 -5.535156 8.222656 -5.046875 8.140625 -4.546875 C 8.066406 -4.046875 8.03125 -3.539062 8.03125 -3.03125 C 8.039062 -2.769531 8.0625 -2.570312 8.09375 -2.4375 C 8.125 -2.3125 8.28125 -2.25 8.5625 -2.25 C 9.40625 -2.257812 10.203125 -2.582031 10.953125 -3.21875 C 11.703125 -3.851562 12.394531 -4.648438 13.03125 -5.609375 C 13.664062 -6.578125 14.25 -7.613281 14.78125 -8.71875 C 15.320312 -9.820312 15.804688 -10.851562 16.234375 -11.8125 C 16.671875 -12.78125 17.054688 -13.582031 17.390625 -14.21875 C 17.722656 -14.851562 18 -15.171875 18.21875 -15.171875 C 18.5 -15.179688 18.691406 -15.101562 18.796875 -14.9375 C 18.910156 -14.78125 18.96875 -14.566406 18.96875 -14.296875 C 18.96875 -13.671875 18.8125 -12.894531 18.5 -11.96875 C 18.195312 -11.050781 17.773438 -10.082031 17.234375 -9.0625 C 16.703125 -8.039062 16.082031 -7.015625 15.375 -5.984375 C 14.664062 -4.953125 13.925781 -4.03125 13.15625 -3.21875 C 12.382812 -2.40625 11.597656 -1.738281 10.796875 -1.21875 C 10.003906 -0.707031 9.253906 -0.453125 8.546875 -0.453125 C 7.960938 -0.441406 7.519531 -0.550781 7.21875 -0.78125 C 6.914062 -1.019531 6.703125 -1.332031 6.578125 -1.71875 C 6.460938 -2.070312 6.398438 -2.46875 6.390625 -2.90625 L 6.390625 -3.015625 C 6.398438 -3.484375 6.414062 -3.960938 6.4375 -4.453125 C 6.394531 -4.347656 6.289062 -4.148438 6.125 -3.859375 C 5.96875 -3.578125 5.804688 -3.269531 5.640625 -2.9375 C 5.472656 -2.601562 5.3125 -2.296875 5.15625 -2.015625 C 5.007812 -1.742188 4.910156 -1.546875 4.859375 -1.421875 C 4.671875 -1.109375 4.46875 -0.859375 4.25 -0.671875 C 4.03125 -0.492188 3.734375 -0.40625 3.359375 -0.40625 C 2.941406 -0.40625 2.601562 -0.546875 2.34375 -0.828125 C 2.082031 -1.109375 1.925781 -1.4375 1.875 -1.8125 L 0.171875 -11.984375 C 0.171875 -12.003906 0.164062 -12.128906 0.15625 -12.359375 C 0.144531 -12.597656 0.140625 -12.773438 0.140625 -12.890625 Z M 0.140625 -12.890625 "/></g></g></g><g fill="#000000" fillOpacity="1"><g transform="translate(27.439983, 34.540938)"><g><path d="M 0.265625 -2.59375 C 0.273438 -2.800781 0.289062 -3.070312 0.3125 -3.40625 C 0.332031 -3.75 0.347656 -4.085938 0.359375 -4.421875 C 0.367188 -4.765625 0.382812 -5.066406 0.40625 -5.328125 C 0.425781 -5.597656 0.4375 -5.75 0.4375 -5.78125 C 0.457031 -5.875 0.476562 -6.066406 0.5 -6.359375 C 0.519531 -6.648438 0.570312 -6.945312 0.65625 -7.25 C 0.738281 -7.550781 0.851562 -7.820312 1 -8.0625 C 1.144531 -8.300781 1.332031 -8.421875 1.5625 -8.421875 C 2.125 -8.421875 2.410156 -8.117188 2.421875 -7.515625 C 2.421875 -6.929688 2.40625 -6.382812 2.375 -5.875 C 2.351562 -5.375 2.332031 -4.863281 2.3125 -4.34375 C 2.289062 -3.820312 2.269531 -3.296875 2.25 -2.765625 C 2.25 -2.492188 2.25 -2.210938 2.25 -1.921875 C 2.25 -1.628906 2.253906 -1.320312 2.265625 -1 C 2.179688 -0.738281 2.082031 -0.570312 1.96875 -0.5 C 1.851562 -0.425781 1.65625 -0.390625 1.375 -0.390625 C 1.132812 -0.390625 0.9375 -0.441406 0.78125 -0.546875 C 0.632812 -0.648438 0.519531 -0.796875 0.4375 -0.984375 C 0.363281 -1.171875 0.316406 -1.375 0.296875 -1.59375 C 0.273438 -1.8125 0.265625 -2.035156 0.265625 -2.265625 Z M 1.34375 -12.234375 C 1.34375 -12.554688 1.375 -12.757812 1.4375 -12.84375 C 1.5 -12.9375 1.691406 -12.984375 2.015625 -12.984375 C 2.265625 -12.984375 2.488281 -12.90625 2.6875 -12.75 C 2.882812 -12.59375 2.984375 -12.378906 2.984375 -12.109375 C 2.984375 -11.898438 2.898438 -11.691406 2.734375 -11.484375 C 2.578125 -11.285156 2.394531 -11.1875 2.1875 -11.1875 C 1.90625 -11.1875 1.691406 -11.304688 1.546875 -11.546875 C 1.410156 -11.785156 1.34375 -12.015625 1.34375 -12.234375 Z M 1.34375 -12.234375 "/></g></g></g><g fill="#000000" fillOpacity="1"><g transform="translate(30.954836, 34.509548)"><g><path d="M 0.265625 -0.984375 C 0.265625 -1.078125 0.257812 -1.257812 0.25 -1.53125 C 0.238281 -1.800781 0.234375 -1.988281 0.234375 -2.09375 C 0.234375 -2.257812 0.238281 -2.546875 0.25 -2.953125 C 0.269531 -3.367188 0.296875 -3.84375 0.328125 -4.375 C 0.359375 -4.90625 0.398438 -5.457031 0.453125 -6.03125 C 0.503906 -6.601562 0.566406 -7.125 0.640625 -7.59375 C 0.722656 -8.0625 0.820312 -8.445312 0.9375 -8.75 C 1.050781 -9.0625 1.171875 -9.21875 1.296875 -9.21875 C 1.453125 -9.21875 1.597656 -9.117188 1.734375 -8.921875 C 1.878906 -8.722656 1.972656 -8.554688 2.015625 -8.421875 C 2.035156 -8.328125 2.054688 -8.175781 2.078125 -7.96875 C 2.097656 -7.757812 2.117188 -7.535156 2.140625 -7.296875 C 2.160156 -7.066406 2.175781 -6.847656 2.1875 -6.640625 C 2.207031 -6.441406 2.21875 -6.300781 2.21875 -6.21875 C 2.5625 -6.34375 2.828125 -6.550781 3.015625 -6.84375 C 3.203125 -7.144531 3.378906 -7.460938 3.546875 -7.796875 C 3.722656 -8.128906 3.929688 -8.421875 4.171875 -8.671875 C 4.421875 -8.921875 4.765625 -9.046875 5.203125 -9.046875 C 5.722656 -9.046875 6.160156 -8.8125 6.515625 -8.34375 C 6.867188 -7.882812 7.15625 -7.34375 7.375 -6.71875 C 7.59375 -6.101562 7.769531 -5.484375 7.90625 -4.859375 C 8.050781 -4.234375 8.171875 -3.769531 8.265625 -3.46875 C 8.265625 -3.425781 8.289062 -3.335938 8.34375 -3.203125 C 8.394531 -3.078125 8.460938 -2.929688 8.546875 -2.765625 C 8.628906 -2.609375 8.695312 -2.460938 8.75 -2.328125 C 8.8125 -2.203125 8.847656 -2.117188 8.859375 -2.078125 C 8.859375 -2.054688 8.863281 -2.003906 8.875 -1.921875 C 8.882812 -1.835938 8.890625 -1.78125 8.890625 -1.75 C 8.890625 -1.53125 8.816406 -1.328125 8.671875 -1.140625 C 8.523438 -0.953125 8.332031 -0.859375 8.09375 -0.859375 C 7.582031 -0.847656 7.195312 -1 6.9375 -1.3125 C 6.675781 -1.625 6.484375 -2.007812 6.359375 -2.46875 C 6.234375 -2.925781 6.148438 -3.421875 6.109375 -3.953125 C 6.066406 -4.484375 6.007812 -4.976562 5.9375 -5.4375 C 5.875 -5.90625 5.769531 -6.289062 5.625 -6.59375 C 5.476562 -6.90625 5.234375 -7.0625 4.890625 -7.0625 C 4.640625 -7.0625 4.390625 -6.925781 4.140625 -6.65625 C 3.898438 -6.394531 3.675781 -6.09375 3.46875 -5.75 C 3.257812 -5.414062 3.082031 -5.082031 2.9375 -4.75 C 2.800781 -4.425781 2.707031 -4.1875 2.65625 -4.03125 C 2.601562 -3.945312 2.53125 -3.753906 2.4375 -3.453125 C 2.351562 -3.148438 2.253906 -2.828125 2.140625 -2.484375 C 2.035156 -2.148438 1.9375 -1.835938 1.84375 -1.546875 C 1.75 -1.265625 1.691406 -1.082031 1.671875 -1 C 1.597656 -0.769531 1.539062 -0.640625 1.5 -0.609375 C 1.457031 -0.585938 1.328125 -0.578125 1.109375 -0.578125 C 0.929688 -0.566406 0.769531 -0.578125 0.625 -0.609375 C 0.476562 -0.648438 0.359375 -0.773438 0.265625 -0.984375 Z M 0.265625 -0.984375 "/></g></g></g><g fill="#000000" fillOpacity="1"><g transform="translate(40.280936, 34.426259)"><g><path d="M 0.21875 -4 C 0.207031 -4.5625 0.273438 -5.070312 0.421875 -5.53125 C 0.566406 -6 0.773438 -6.425781 1.046875 -6.8125 C 1.328125 -7.195312 1.644531 -7.546875 2 -7.859375 C 2.351562 -8.171875 2.753906 -8.484375 3.203125 -8.796875 C 3.328125 -8.890625 3.472656 -9.007812 3.640625 -9.15625 C 3.816406 -9.300781 3.992188 -9.4375 4.171875 -9.5625 C 4.359375 -9.6875 4.546875 -9.796875 4.734375 -9.890625 C 4.921875 -9.984375 5.097656 -10.03125 5.265625 -10.03125 C 5.472656 -10.03125 5.691406 -10 5.921875 -9.9375 C 6.160156 -9.882812 6.375 -9.789062 6.5625 -9.65625 C 6.757812 -9.519531 6.914062 -9.363281 7.03125 -9.1875 C 7.15625 -9.007812 7.21875 -8.796875 7.21875 -8.546875 C 7.226562 -8.078125 7.109375 -7.648438 6.859375 -7.265625 C 6.617188 -6.878906 6.316406 -6.546875 5.953125 -6.265625 C 5.597656 -5.992188 5.191406 -5.78125 4.734375 -5.625 C 4.273438 -5.46875 3.835938 -5.390625 3.421875 -5.390625 C 3.390625 -5.390625 3.328125 -5.398438 3.234375 -5.421875 C 3.179688 -5.421875 3.039062 -5.441406 2.8125 -5.484375 C 2.59375 -5.535156 2.46875 -5.578125 2.4375 -5.609375 L 2.328125 -5.609375 C 2.171875 -5.609375 2.054688 -5.546875 1.984375 -5.421875 C 1.921875 -5.296875 1.875 -5.144531 1.84375 -4.96875 C 1.820312 -4.800781 1.8125 -4.640625 1.8125 -4.484375 L 1.828125 -4.109375 C 1.828125 -3.441406 1.960938 -2.957031 2.234375 -2.65625 C 2.503906 -2.351562 2.96875 -2.203125 3.625 -2.203125 C 4.40625 -2.210938 5.097656 -2.3125 5.703125 -2.5 C 6.316406 -2.6875 6.960938 -3.003906 7.640625 -3.453125 C 7.660156 -3.453125 7.707031 -3.457031 7.78125 -3.46875 C 7.851562 -3.488281 7.898438 -3.5 7.921875 -3.5 C 8.410156 -3.5 8.65625 -3.253906 8.65625 -2.765625 C 8.664062 -2.398438 8.476562 -2.070312 8.09375 -1.78125 C 7.707031 -1.5 7.257812 -1.253906 6.75 -1.046875 C 6.238281 -0.847656 5.71875 -0.695312 5.1875 -0.59375 C 4.65625 -0.5 4.253906 -0.445312 3.984375 -0.4375 C 3.453125 -0.4375 2.957031 -0.519531 2.5 -0.6875 C 2.039062 -0.863281 1.640625 -1.101562 1.296875 -1.40625 C 0.960938 -1.707031 0.695312 -2.078125 0.5 -2.515625 C 0.3125 -2.960938 0.21875 -3.457031 0.21875 -4 Z M 3.21875 -7.1875 C 3.25 -7.09375 3.296875 -7.035156 3.359375 -7.015625 C 3.429688 -7.003906 3.507812 -7 3.59375 -7 C 3.738281 -7 3.925781 -7.03125 4.15625 -7.09375 C 4.394531 -7.15625 4.625 -7.242188 4.84375 -7.359375 C 5.070312 -7.472656 5.265625 -7.601562 5.421875 -7.75 C 5.578125 -7.894531 5.65625 -8.0625 5.65625 -8.25 C 5.238281 -8.25 4.789062 -8.160156 4.3125 -7.984375 C 3.832031 -7.816406 3.46875 -7.550781 3.21875 -7.1875 Z M 3.21875 -7.1875 "/></g></g></g><g fill="#000000" fillOpacity="1"><g transform="translate(49.386704, 34.344938)"><g><path d="M 0.265625 -1.5 C 0.253906 -2.601562 0.28125 -3.695312 0.34375 -4.78125 C 0.414062 -5.863281 0.488281 -6.9375 0.5625 -8 C 0.632812 -9.070312 0.703125 -10.148438 0.765625 -11.234375 C 0.773438 -11.859375 0.78125 -12.484375 0.78125 -13.109375 C 0.769531 -13.597656 0.757812 -14.082031 0.75 -14.5625 C 1.050781 -14.976562 1.421875 -15.1875 1.859375 -15.1875 C 2.210938 -15.1875 2.484375 -15.03125 2.671875 -14.71875 C 2.859375 -14.40625 2.953125 -14.09375 2.953125 -13.78125 C 2.960938 -12.832031 2.9375 -11.832031 2.875 -10.78125 C 2.820312 -9.726562 2.753906 -8.648438 2.671875 -7.546875 C 2.597656 -6.453125 2.523438 -5.363281 2.453125 -4.28125 C 2.378906 -3.207031 2.316406 -2.179688 2.265625 -1.203125 C 2.179688 -0.929688 2.015625 -0.695312 1.765625 -0.5 C 1.523438 -0.300781 1.265625 -0.203125 0.984375 -0.203125 C 0.847656 -0.191406 0.71875 -0.226562 0.59375 -0.3125 C 0.46875 -0.40625 0.363281 -0.5 0.28125 -0.59375 Z M 0.265625 -1.5 "/></g></g></g><g fill="#000000" fillOpacity="1"><g transform="translate(52.901558, 34.313547)"><g><path d="M 0.21875 -4.09375 C 0.207031 -4.488281 0.300781 -5.003906 0.5 -5.640625 C 0.707031 -6.273438 0.984375 -6.960938 1.328125 -7.703125 C 1.671875 -8.441406 2.066406 -9.1875 2.515625 -9.9375 C 2.960938 -10.6875 3.421875 -11.367188 3.890625 -11.984375 C 4.359375 -12.597656 4.828125 -13.09375 5.296875 -13.46875 C 5.773438 -13.851562 6.226562 -14.046875 6.65625 -14.046875 C 6.976562 -14.046875 7.207031 -14 7.34375 -13.90625 C 7.476562 -13.8125 7.578125 -13.695312 7.640625 -13.5625 C 7.703125 -13.425781 7.78125 -13.273438 7.875 -13.109375 C 7.96875 -12.941406 8.125 -12.789062 8.34375 -12.65625 C 9.019531 -12.257812 9.578125 -11.910156 10.015625 -11.609375 C 10.453125 -11.316406 10.800781 -10.988281 11.0625 -10.625 C 11.332031 -10.269531 11.519531 -9.828125 11.625 -9.296875 C 11.738281 -8.773438 11.800781 -8.097656 11.8125 -7.265625 C 11.8125 -6.835938 11.710938 -6.429688 11.515625 -6.046875 C 11.328125 -5.671875 11.164062 -5.285156 11.03125 -4.890625 C 10.570312 -3.429688 9.753906 -2.320312 8.578125 -1.5625 C 7.410156 -0.8125 6.078125 -0.429688 4.578125 -0.421875 C 3.960938 -0.410156 3.394531 -0.46875 2.875 -0.59375 C 2.351562 -0.726562 1.894531 -0.945312 1.5 -1.25 C 1.113281 -1.550781 0.800781 -1.929688 0.5625 -2.390625 C 0.332031 -2.859375 0.21875 -3.425781 0.21875 -4.09375 Z M 2.0625 -3.40625 C 2.082031 -3.082031 2.1875 -2.84375 2.375 -2.6875 C 2.570312 -2.53125 2.796875 -2.414062 3.046875 -2.34375 C 3.296875 -2.269531 3.554688 -2.226562 3.828125 -2.21875 C 4.097656 -2.207031 4.34375 -2.207031 4.5625 -2.21875 C 5.289062 -2.21875 5.972656 -2.359375 6.609375 -2.640625 C 7.242188 -2.929688 7.796875 -3.320312 8.265625 -3.8125 C 8.734375 -4.300781 9.109375 -4.867188 9.390625 -5.515625 C 9.671875 -6.171875 9.8125 -6.863281 9.8125 -7.59375 L 9.8125 -7.6875 C 9.789062 -7.757812 9.757812 -7.898438 9.71875 -8.109375 C 9.675781 -8.328125 9.632812 -8.546875 9.59375 -8.765625 C 9.550781 -8.984375 9.507812 -9.195312 9.46875 -9.40625 C 9.425781 -9.613281 9.394531 -9.769531 9.375 -9.875 C 9.289062 -10.050781 9.132812 -10.1875 8.90625 -10.28125 C 8.675781 -10.382812 8.425781 -10.457031 8.15625 -10.5 C 7.894531 -10.539062 7.640625 -10.5625 7.390625 -10.5625 C 7.140625 -10.570312 6.941406 -10.597656 6.796875 -10.640625 C 6.753906 -10.640625 6.6875 -10.660156 6.59375 -10.703125 C 6.5 -10.753906 6.394531 -10.800781 6.28125 -10.84375 C 6.164062 -10.894531 6.054688 -10.9375 5.953125 -10.96875 C 5.847656 -11 5.785156 -11.015625 5.765625 -11.015625 C 5.503906 -10.960938 5.226562 -10.769531 4.9375 -10.4375 C 4.644531 -10.113281 4.359375 -9.710938 4.078125 -9.234375 C 3.804688 -8.753906 3.539062 -8.226562 3.28125 -7.65625 C 3.019531 -7.09375 2.796875 -6.535156 2.609375 -5.984375 C 2.421875 -5.429688 2.273438 -4.925781 2.171875 -4.46875 C 2.097656 -4.070312 2.0625 -3.753906 2.0625 -3.515625 Z M 2.0625 -3.40625 "/></g></g></g><g fill="#000000" fillOpacity="1"><g transform="translate(65.215905, 34.203571)"><g><path d="M 0.265625 -1.5 C 0.253906 -2.601562 0.28125 -3.695312 0.34375 -4.78125 C 0.414062 -5.863281 0.488281 -6.9375 0.5625 -8 C 0.632812 -9.070312 0.703125 -10.148438 0.765625 -11.234375 C 0.773438 -11.859375 0.78125 -12.484375 0.78125 -13.109375 C 0.769531 -13.597656 0.757812 -14.082031 0.75 -14.5625 C 1.050781 -14.976562 1.421875 -15.1875 1.859375 -15.1875 C 2.210938 -15.1875 2.484375 -15.03125 2.671875 -14.71875 C 2.859375 -14.40625 2.953125 -14.09375 2.953125 -13.78125 C 2.960938 -12.832031 2.9375 -11.832031 2.875 -10.78125 C 2.820312 -9.726562 2.753906 -8.648438 2.671875 -7.546875 C 2.597656 -6.453125 2.523438 -5.363281 2.453125 -4.28125 C 2.378906 -3.207031 2.316406 -2.179688 2.265625 -1.203125 C 2.179688 -0.929688 2.015625 -0.695312 1.765625 -0.5 C 1.523438 -0.300781 1.265625 -0.203125 0.984375 -0.203125 C 0.847656 -0.191406 0.71875 -0.226562 0.59375 -0.3125 C 0.46875 -0.40625 0.363281 -0.5 0.28125 -0.59375 Z M 0.265625 -1.5 "/></g></g></g><g fill="#000000" fillOpacity="1"><g transform="translate(33.666104, 37.065941)"><g><path d="M 0.960938 -0.167969 L 0.773438 -0.179688 L 0.730469 -0.171875 L 0.671875 -0.171875 L 0.621094 -0.175781 L 0.464844 -0.171875 L 0.414062 -0.207031 L 0.390625 -0.277344 L 0.386719 -1.53125 L 0.414062 -1.582031 L 0.464844 -1.609375 L 0.5625 -1.609375 L 0.617188 -1.613281 L 0.664062 -1.609375 L 0.714844 -1.613281 L 0.816406 -1.601562 L 1.042969 -1.609375 L 1.125 -1.59375 L 1.128906 -1.5625 L 1.074219 -1.554688 L 0.769531 -1.554688 L 0.722656 -1.550781 L 0.542969 -1.550781 L 0.464844 -1.527344 L 0.445312 -1.480469 L 0.445312 -1.125 L 0.441406 -1.078125 L 0.449219 -1.027344 L 0.464844 -0.976562 L 0.515625 -0.949219 L 0.570312 -0.957031 L 0.695312 -0.949219 L 0.765625 -0.957031 L 0.820312 -0.953125 L 0.867188 -0.957031 L 0.914062 -0.945312 L 0.964844 -0.945312 L 1.023438 -0.949219 L 1.074219 -0.933594 L 1.070312 -0.902344 L 0.992188 -0.886719 L 0.867188 -0.894531 L 0.824219 -0.886719 L 0.664062 -0.890625 L 0.617188 -0.894531 L 0.519531 -0.890625 L 0.472656 -0.867188 L 0.449219 -0.824219 L 0.441406 -0.773438 L 0.449219 -0.691406 L 0.441406 -0.332031 L 0.472656 -0.257812 L 0.546875 -0.222656 L 0.625 -0.230469 L 0.726562 -0.222656 L 0.773438 -0.230469 L 0.878906 -0.222656 L 0.933594 -0.230469 L 0.984375 -0.226562 L 1.042969 -0.230469 L 1.144531 -0.21875 L 1.144531 -0.1875 L 1.09375 -0.167969 Z M 0.960938 -0.167969 "/></g></g></g><g fill="#000000" fillOpacity="1"><g transform="translate(35.125671, 37.065941)"><g><path d="M 0.734375 -0.144531 L 0.640625 -0.160156 L 0.503906 -0.210938 L 0.425781 -0.265625 L 0.386719 -0.3125 L 0.363281 -0.347656 L 0.351562 -0.382812 L 0.386719 -0.386719 L 0.503906 -0.28125 L 0.597656 -0.238281 L 0.6875 -0.210938 L 0.8125 -0.203125 L 0.925781 -0.214844 L 1.003906 -0.230469 L 1.054688 -0.246094 L 1.101562 -0.265625 L 1.1875 -0.332031 L 1.253906 -0.414062 L 1.265625 -0.457031 L 1.273438 -0.535156 L 1.273438 -0.609375 L 1.257812 -0.65625 L 1.199219 -0.742188 L 1.066406 -0.808594 L 0.917969 -0.84375 L 0.71875 -0.855469 L 0.671875 -0.867188 L 0.617188 -0.871094 L 0.53125 -0.902344 L 0.4375 -0.953125 L 0.398438 -0.988281 L 0.34375 -1.066406 L 0.3125 -1.164062 L 0.308594 -1.238281 L 0.320312 -1.304688 L 0.332031 -1.355469 L 0.371094 -1.445312 L 0.457031 -1.535156 L 0.523438 -1.578125 L 0.566406 -1.59375 L 0.722656 -1.632812 L 0.898438 -1.628906 L 1.023438 -1.59375 L 1.113281 -1.550781 L 1.152344 -1.519531 L 1.21875 -1.445312 L 1.234375 -1.402344 L 1.195312 -1.40625 L 1.070312 -1.503906 L 1.019531 -1.535156 L 0.96875 -1.554688 L 0.867188 -1.570312 L 0.789062 -1.578125 L 0.714844 -1.578125 L 0.664062 -1.566406 L 0.523438 -1.507812 L 0.449219 -1.445312 L 0.414062 -1.402344 L 0.386719 -1.359375 L 0.367188 -1.308594 L 0.375 -1.160156 L 0.386719 -1.109375 L 0.40625 -1.0625 L 0.445312 -1.023438 L 0.480469 -0.992188 L 0.523438 -0.96875 L 0.570312 -0.949219 L 0.675781 -0.917969 L 0.882812 -0.898438 L 0.933594 -0.890625 L 0.980469 -0.886719 L 1.140625 -0.84375 L 1.222656 -0.789062 L 1.261719 -0.753906 L 1.292969 -0.710938 L 1.316406 -0.667969 L 1.328125 -0.621094 L 1.328125 -0.464844 L 1.308594 -0.414062 L 1.292969 -0.363281 L 1.179688 -0.253906 L 1.140625 -0.222656 L 1 -0.164062 L 0.949219 -0.152344 L 0.898438 -0.144531 Z M 0.734375 -0.144531 "/></g></g></g><g fill="#000000" fillOpacity="1"><g transform="translate(36.75081, 37.065941)"><g><path d="M 0.730469 -0.179688 L 0.699219 -0.183594 L 0.6875 -0.226562 L 0.683594 -0.289062 L 0.691406 -0.339844 L 0.683594 -0.390625 L 0.6875 -0.4375 L 0.679688 -0.496094 L 0.683594 -0.546875 L 0.679688 -0.699219 L 0.683594 -0.75 L 0.683594 -0.808594 L 0.691406 -0.90625 L 0.679688 -1.011719 L 0.6875 -1.058594 L 0.683594 -1.113281 L 0.691406 -1.167969 L 0.683594 -1.21875 L 0.691406 -1.320312 L 0.683594 -1.425781 L 0.675781 -1.472656 L 0.660156 -1.523438 L 0.613281 -1.554688 L 0.304688 -1.550781 L 0.222656 -1.570312 L 0.226562 -1.59375 L 0.277344 -1.605469 L 0.53125 -1.609375 L 0.582031 -1.605469 L 1.09375 -1.609375 L 1.140625 -1.605469 L 1.191406 -1.589844 L 1.199219 -1.566406 L 1.140625 -1.550781 L 0.816406 -1.554688 L 0.765625 -1.527344 L 0.742188 -1.476562 L 0.742188 -1.320312 L 0.734375 -1.265625 L 0.742188 -1.21875 L 0.742188 -1.058594 L 0.734375 -1.011719 L 0.742188 -0.957031 L 0.742188 -0.800781 L 0.738281 -0.75 L 0.742188 -0.699219 L 0.738281 -0.648438 L 0.742188 -0.492188 L 0.738281 -0.4375 L 0.742188 -0.261719 Z M 0.730469 -0.179688 "/></g></g></g><g fill="#000000" fillOpacity="1"><g transform="translate(38.174716, 37.065941)"><g><path d="M 0.382812 -0.160156 L 0.328125 -0.164062 L 0.304688 -0.175781 L 0.296875 -0.191406 L 0.292969 -0.246094 L 0.3125 -0.261719 L 0.324219 -0.273438 L 0.378906 -0.273438 L 0.394531 -0.261719 L 0.414062 -0.242188 L 0.414062 -0.195312 L 0.394531 -0.171875 Z M 0.382812 -0.160156 "/></g></g></g><g fill="#000000" fillOpacity="1"><g transform="translate(38.898131, 37.065941)"><g/></g></g><g fill="#000000" fillOpacity="1"><g transform="translate(39.588433, 37.065941)"><g><path d="M 0.773438 -0.167969 L 0.457031 -0.179688 L 0.414062 -0.199219 L 0.421875 -0.238281 L 0.472656 -0.316406 L 0.507812 -0.355469 L 0.53125 -0.402344 L 0.625 -0.519531 L 0.648438 -0.566406 L 0.984375 -1.0625 L 1.023438 -1.152344 L 1.035156 -1.203125 L 1.035156 -1.304688 L 1.007812 -1.394531 L 0.992188 -1.4375 L 0.953125 -1.484375 L 0.914062 -1.515625 L 0.828125 -1.558594 L 0.699219 -1.578125 L 0.628906 -1.578125 L 0.53125 -1.542969 L 0.484375 -1.519531 L 0.441406 -1.484375 L 0.414062 -1.4375 L 0.375 -1.394531 L 0.339844 -1.402344 L 0.347656 -1.445312 L 0.375 -1.492188 L 0.402344 -1.527344 L 0.441406 -1.558594 L 0.527344 -1.605469 L 0.574219 -1.621094 L 0.78125 -1.628906 L 0.828125 -1.617188 L 0.925781 -1.578125 L 0.96875 -1.550781 L 1.066406 -1.425781 L 1.082031 -1.378906 L 1.09375 -1.285156 L 1.085938 -1.226562 L 1.082031 -1.175781 L 1.074219 -1.128906 L 0.949219 -0.898438 L 0.800781 -0.683594 L 0.765625 -0.640625 L 0.566406 -0.335938 L 0.53125 -0.292969 L 0.523438 -0.25 L 0.5625 -0.230469 L 1.050781 -0.230469 L 1.132812 -0.214844 L 1.132812 -0.191406 L 1.0625 -0.171875 L 0.824219 -0.175781 Z M 0.773438 -0.167969 "/></g></g></g><g fill="#000000" fillOpacity="1"><g transform="translate(41.053095, 37.065941)"><g><path d="M 0.734375 -0.148438 L 0.578125 -0.195312 L 0.496094 -0.246094 L 0.457031 -0.28125 L 0.417969 -0.320312 L 0.390625 -0.363281 L 0.347656 -0.511719 L 0.34375 -0.589844 L 0.347656 -0.664062 L 0.335938 -0.816406 L 0.339844 -0.871094 L 0.339844 -0.96875 L 0.34375 -1.015625 L 0.335938 -1.191406 L 0.355469 -1.320312 L 0.398438 -1.417969 L 0.457031 -1.496094 L 0.496094 -1.535156 L 0.539062 -1.5625 L 0.589844 -1.585938 L 0.683594 -1.617188 L 0.742188 -1.628906 L 0.816406 -1.632812 L 0.898438 -1.628906 L 0.992188 -1.609375 L 1.042969 -1.585938 L 1.09375 -1.558594 L 1.175781 -1.496094 L 1.234375 -1.417969 L 1.257812 -1.367188 L 1.285156 -1.269531 L 1.285156 -1.191406 L 1.296875 -1.117188 L 1.292969 -0.863281 L 1.300781 -0.820312 L 1.277344 -0.464844 L 1.257812 -0.410156 L 1.207031 -0.320312 L 1.175781 -0.28125 L 1.09375 -0.21875 L 1.042969 -0.195312 L 0.894531 -0.152344 Z M 0.738281 -0.203125 L 0.820312 -0.203125 L 0.894531 -0.207031 L 0.933594 -0.214844 L 1.035156 -0.253906 L 1.074219 -0.273438 L 1.117188 -0.308594 L 1.152344 -0.34375 L 1.183594 -0.382812 L 1.203125 -0.425781 L 1.226562 -0.515625 L 1.242188 -0.71875 L 1.238281 -0.765625 L 1.238281 -1.183594 L 1.207031 -1.359375 L 1.183594 -1.402344 L 1.117188 -1.480469 L 1.074219 -1.511719 L 1.035156 -1.535156 L 0.984375 -1.542969 L 0.890625 -1.574219 L 0.8125 -1.578125 L 0.691406 -1.566406 L 0.636719 -1.550781 L 0.597656 -1.527344 L 0.488281 -1.445312 L 0.457031 -1.40625 L 0.433594 -1.359375 L 0.398438 -1.261719 L 0.390625 -1.191406 L 0.394531 -1.066406 L 0.402344 -1.011719 L 0.402344 -0.960938 L 0.386719 -0.871094 L 0.394531 -0.820312 L 0.398438 -0.589844 L 0.410156 -0.476562 L 0.4375 -0.429688 L 0.449219 -0.382812 L 0.484375 -0.339844 L 0.546875 -0.273438 L 0.605469 -0.246094 L 0.644531 -0.230469 Z M 0.738281 -0.203125 "/></g></g></g><g fill="#000000" fillOpacity="1"><g transform="translate(42.688422, 37.065941)"><g><path d="M 0.773438 -0.167969 L 0.457031 -0.179688 L 0.414062 -0.199219 L 0.421875 -0.238281 L 0.472656 -0.316406 L 0.507812 -0.355469 L 0.53125 -0.402344 L 0.625 -0.519531 L 0.648438 -0.566406 L 0.984375 -1.0625 L 1.023438 -1.152344 L 1.035156 -1.203125 L 1.035156 -1.304688 L 1.007812 -1.394531 L 0.992188 -1.4375 L 0.953125 -1.484375 L 0.914062 -1.515625 L 0.828125 -1.558594 L 0.699219 -1.578125 L 0.628906 -1.578125 L 0.53125 -1.542969 L 0.484375 -1.519531 L 0.441406 -1.484375 L 0.414062 -1.4375 L 0.375 -1.394531 L 0.339844 -1.402344 L 0.347656 -1.445312 L 0.375 -1.492188 L 0.402344 -1.527344 L 0.441406 -1.558594 L 0.527344 -1.605469 L 0.574219 -1.621094 L 0.78125 -1.628906 L 0.828125 -1.617188 L 0.925781 -1.578125 L 0.96875 -1.550781 L 1.066406 -1.425781 L 1.082031 -1.378906 L 1.09375 -1.285156 L 1.085938 -1.226562 L 1.082031 -1.175781 L 1.074219 -1.128906 L 0.949219 -0.898438 L 0.800781 -0.683594 L 0.765625 -0.640625 L 0.566406 -0.335938 L 0.53125 -0.292969 L 0.523438 -0.25 L 0.5625 -0.230469 L 1.050781 -0.230469 L 1.132812 -0.214844 L 1.132812 -0.191406 L 1.0625 -0.171875 L 0.824219 -0.175781 Z M 0.773438 -0.167969 "/></g></g></g><g fill="#000000" fillOpacity="1"><g transform="translate(44.153084, 37.065941)"><g><path d="M 0.636719 -0.136719 L 0.53125 -0.167969 L 0.441406 -0.214844 L 0.367188 -0.28125 L 0.347656 -0.332031 L 0.335938 -0.378906 L 0.375 -0.378906 L 0.441406 -0.285156 L 0.488281 -0.253906 L 0.574219 -0.214844 L 0.625 -0.203125 L 0.792969 -0.195312 L 0.898438 -0.234375 L 0.988281 -0.3125 L 1.042969 -0.378906 L 1.066406 -0.46875 L 1.089844 -0.601562 L 1.085938 -0.675781 L 1.058594 -0.765625 L 1.035156 -0.8125 L 1.007812 -0.847656 L 0.972656 -0.886719 L 0.9375 -0.914062 L 0.886719 -0.9375 L 0.832031 -0.957031 L 0.761719 -0.964844 L 0.703125 -0.996094 L 0.703125 -1.042969 L 0.71875 -1.085938 L 0.75 -1.136719 L 0.808594 -1.261719 L 0.890625 -1.402344 L 0.90625 -1.441406 L 0.933594 -1.492188 L 0.925781 -1.535156 L 0.890625 -1.554688 L 0.792969 -1.550781 L 0.648438 -1.5625 L 0.597656 -1.554688 L 0.496094 -1.554688 L 0.453125 -1.558594 L 0.394531 -1.554688 L 0.355469 -1.566406 L 0.351562 -1.601562 L 0.40625 -1.609375 L 0.976562 -1.609375 L 1.027344 -1.59375 L 1.027344 -1.546875 L 0.996094 -1.496094 L 0.953125 -1.414062 L 0.910156 -1.316406 L 0.851562 -1.226562 L 0.835938 -1.183594 L 0.789062 -1.09375 L 0.789062 -1.046875 L 0.824219 -1.007812 L 0.875 -0.996094 L 0.964844 -0.957031 L 1.042969 -0.894531 L 1.070312 -0.855469 L 1.09375 -0.8125 L 1.113281 -0.765625 L 1.140625 -0.667969 L 1.144531 -0.523438 L 1.082031 -0.332031 L 1.015625 -0.257812 L 0.890625 -0.171875 L 0.847656 -0.152344 L 0.796875 -0.144531 Z M 0.636719 -0.136719 "/></g></g></g></svg>